<svg width="199" height="181" viewBox="0 0 199 181" fill="none" xmlns="http://www.w3.org/2000/svg">
<path d="M22.668 90.3365C21.371 74.4457 24.9859 57.358 36.6652 45.8346C41.5712 40.9941 47.7001 37.2947 54.4376 35.7016C63.0314 33.6696 71.8614 35.8114 80.5378 34.7084C95.0422 32.8645 111.838 21.2589 126.118 21.2446C160.202 21.2105 170.233 40.9311 171.49 44.8872C172.72 48.761 175.388 51.9164 178.168 54.7853C184.225 61.0373 188.848 66.4164 189.277 75.528C189.646 83.3572 188.203 91.4569 185.466 98.7822C180.002 113.405 167.929 125.556 152.189 128.34C143.588 129.861 135.658 127.447 127.425 125.23C119.104 122.99 110.56 121.708 101.943 121.49C91.9707 121.238 81.9592 122.367 72.3016 124.87C63.3249 127.198 54.1633 131.84 44.6628 130.341C27.8507 127.688 23.7351 104.233 22.668 90.3365Z" fill="white" fill-opacity="0.2"/>
<path d="M141.857 107.599H137.504C135.7 107.599 134.238 109.061 134.238 110.865V115.217C134.238 117.021 135.7 118.483 137.504 118.483H139.129L141.857 121.211V118.483C143.66 118.483 145.123 117.021 145.123 115.217V110.865C145.123 109.061 143.66 107.599 141.857 107.599Z" fill="#6495ED"/>
<path d="M142.733 110.619H136.574V111.603H142.733V110.619Z" fill="white"/>
<path d="M142.733 112.543H136.574V113.527H142.733V112.543Z" fill="white"/>
<path d="M140.131 114.468H136.574V115.451H140.131V114.468Z" fill="white"/>
<path d="M35.2458 103.38H29.0594C27.9845 103.38 27.113 102.508 27.113 101.433V96.8596C27.113 96.1451 27.6922 95.5658 28.4068 95.5658H35.8985C36.613 95.5658 37.1923 96.145 37.1923 96.8596V101.433C37.1922 102.508 36.3208 103.38 35.2458 103.38Z" fill="#6495ED"/>
<path d="M35.9545 101.533C35.6564 101.205 35.3516 100.883 35.0492 100.559C34.743 100.239 34.4405 99.9152 34.1311 99.5982C33.8657 99.3264 33.6026 99.0523 33.3358 98.7817L33.4157 98.7204C33.7979 98.4184 34.1839 98.1215 34.5622 97.8143C34.9432 97.5107 35.32 97.2015 35.6959 96.8913C36.0695 96.578 36.4438 96.2656 36.8085 95.9405C36.3972 96.2042 35.9955 96.4804 35.5931 96.7558C35.193 97.0343 34.7938 97.3138 34.3988 97.5989C34.001 97.8805 33.6111 98.1722 33.2173 98.4589L33.102 98.5452L33.1007 98.5439L32.9837 98.6318L32.1489 99.2586L31.2498 98.6286L31.1276 98.5429L31.1261 98.5445L31.0513 98.4923C30.6472 98.2178 30.2467 97.9385 29.8389 97.6693C29.4336 97.3966 29.0243 97.1296 28.6141 96.8636C28.2019 96.6007 27.7901 96.3372 27.3694 96.0862C27.7459 96.3997 28.1313 96.7004 28.5162 97.002C28.9033 97.3004 29.2911 97.5978 29.683 97.8895C30.0723 98.1848 30.4689 98.4698 30.8621 98.7598L30.9068 98.7919C30.6538 99.0775 30.4043 99.3662 30.1526 99.6529C29.8606 99.9861 29.5752 100.325 29.2863 100.661C29.0014 101.001 28.7139 101.338 28.4333 101.682C28.1505 102.023 27.8719 102.369 27.5976 102.718C27.9159 102.408 28.2299 102.095 28.5397 101.777C28.8518 101.462 29.1569 101.141 29.4646 100.822C29.7683 100.499 30.0755 100.179 30.3761 99.8538C30.6425 99.5648 30.9115 99.2779 31.1764 98.9875L32.0524 99.6142L32.0642 99.6226L32.1561 99.6886L32.2441 99.621L32.2574 99.6108L33.0718 98.9866C33.3519 99.2635 33.6364 99.5361 33.9182 99.8113C34.2352 100.121 34.5591 100.423 34.8792 100.729C35.2032 101.032 35.5247 101.337 35.8529 101.635C36.1791 101.935 36.5091 102.231 36.8433 102.523C36.5511 102.189 36.2547 101.859 35.9545 101.533Z" fill="#0047AB"/>
<path d="M128.17 107.09C127.713 106.632 127.16 106.404 126.512 106.404C125.864 106.404 125.312 106.632 124.855 107.09C124.397 107.547 124.168 108.1 124.168 108.748C124.168 109.395 124.397 109.948 124.855 110.405C125.312 110.863 125.864 111.091 126.512 111.091C127.16 111.091 127.713 110.863 128.17 110.405C128.628 109.948 128.856 109.395 128.856 108.748C128.856 108.1 128.627 107.547 128.17 107.09Z" fill="#FDC564"/>
<path d="M127.861 110.661C127.86 110.66 127.858 110.659 127.857 110.659H127.588C127.587 110.659 127.585 110.66 127.584 110.661C127.583 110.662 127.582 110.663 127.582 110.665C127.582 110.667 127.583 110.668 127.584 110.669C127.585 110.671 127.587 110.671 127.588 110.671H127.857C127.858 110.671 127.86 110.671 127.861 110.669C127.862 110.668 127.863 110.667 127.863 110.665C127.863 110.663 127.862 110.662 127.861 110.661ZM128.085 110.478C128.084 110.476 128.082 110.476 128.08 110.476H127.812C127.81 110.476 127.809 110.476 127.808 110.478C127.806 110.479 127.806 110.48 127.806 110.482C127.806 110.484 127.806 110.485 127.808 110.486C127.809 110.487 127.81 110.488 127.812 110.488H128.08C128.082 110.488 128.084 110.487 128.085 110.486C128.086 110.485 128.087 110.484 128.087 110.482C128.087 110.48 128.086 110.479 128.085 110.478ZM128.264 110.297C128.263 110.295 128.261 110.294 128.259 110.294H127.991C127.989 110.294 127.988 110.295 127.987 110.297C127.985 110.298 127.985 110.299 127.985 110.301C127.985 110.302 127.985 110.304 127.987 110.305C127.988 110.306 127.989 110.307 127.991 110.307H128.259C128.261 110.307 128.263 110.306 128.264 110.305C128.265 110.304 128.266 110.302 128.266 110.301C128.266 110.299 128.265 110.298 128.264 110.297ZM128.411 110.115C128.41 110.114 128.408 110.113 128.407 110.113H128.138C128.136 110.113 128.135 110.114 128.134 110.115C128.132 110.117 128.132 110.118 128.132 110.12C128.132 110.121 128.132 110.123 128.134 110.124C128.135 110.125 128.136 110.126 128.138 110.126H128.407C128.408 110.126 128.41 110.125 128.411 110.124C128.412 110.123 128.413 110.121 128.413 110.12C128.413 110.118 128.412 110.117 128.411 110.115ZM127.288 110.85C127.289 110.852 127.29 110.853 127.292 110.853H127.561C127.562 110.853 127.564 110.852 127.565 110.85C127.566 110.849 127.567 110.848 127.567 110.846C127.567 110.845 127.566 110.843 127.565 110.842C127.564 110.841 127.562 110.84 127.561 110.84H127.292C127.29 110.84 127.289 110.841 127.288 110.842C127.286 110.843 127.286 110.845 127.286 110.846C127.286 110.848 127.286 110.849 127.288 110.85ZM126.787 111.034C126.788 111.035 126.79 111.036 126.791 111.036H127.06C127.061 111.036 127.063 111.035 127.064 111.034C127.065 111.033 127.066 111.031 127.066 111.03C127.066 111.028 127.065 111.026 127.064 111.025C127.063 111.024 127.061 111.023 127.06 111.023H126.791C126.79 111.023 126.788 111.024 126.787 111.025C126.786 111.026 126.785 111.028 126.785 111.03C126.785 111.031 126.786 111.033 126.787 111.034ZM128.63 109.751C128.629 109.75 128.628 109.749 128.626 109.749H128.357C128.356 109.749 128.354 109.75 128.353 109.751C128.352 109.752 128.351 109.754 128.351 109.755C128.351 109.757 128.352 109.758 128.353 109.759C128.354 109.761 128.356 109.762 128.357 109.762H128.626C128.628 109.762 128.629 109.761 128.63 109.759C128.631 109.758 128.632 109.757 128.632 109.755C128.632 109.754 128.631 109.752 128.63 109.751ZM128.709 109.568C128.708 109.566 128.706 109.566 128.705 109.566H128.434C128.432 109.566 128.431 109.566 128.43 109.568C128.429 109.569 128.428 109.57 128.428 109.572C128.428 109.574 128.429 109.575 128.43 109.576C128.431 109.578 128.433 109.578 128.434 109.578H128.705C128.706 109.578 128.708 109.578 128.709 109.576C128.71 109.575 128.711 109.574 128.711 109.572C128.711 109.57 128.71 109.569 128.709 109.568ZM128.494 109.384C128.492 109.385 128.491 109.385 128.49 109.387C128.488 109.388 128.488 109.389 128.487 109.391C128.488 109.392 128.488 109.394 128.49 109.395C128.491 109.396 128.492 109.397 128.494 109.397H128.762C128.764 109.397 128.765 109.396 128.767 109.395C128.768 109.394 128.769 109.392 128.769 109.391C128.769 109.389 128.768 109.388 128.767 109.387C128.765 109.385 128.764 109.385 128.762 109.384H128.494ZM128.809 109.203C128.808 109.202 128.807 109.201 128.805 109.201H128.536C128.535 109.201 128.533 109.202 128.532 109.203C128.531 109.205 128.53 109.206 128.53 109.208C128.53 109.209 128.531 109.211 128.532 109.212C128.533 109.213 128.535 109.214 128.536 109.214H128.805C128.807 109.214 128.808 109.213 128.809 109.212C128.81 109.211 128.811 109.209 128.811 109.208C128.811 109.206 128.81 109.205 128.809 109.203ZM128.255 109.941C128.256 109.942 128.258 109.943 128.259 109.943H128.53C128.532 109.943 128.533 109.942 128.534 109.941C128.536 109.94 128.536 109.938 128.536 109.936C128.536 109.935 128.536 109.933 128.534 109.932C128.533 109.931 128.532 109.93 128.53 109.93H128.259C128.258 109.93 128.256 109.931 128.255 109.932C128.254 109.933 128.253 109.935 128.253 109.936C128.253 109.938 128.254 109.939 128.255 109.941ZM128.57 108.85C128.572 108.851 128.573 108.852 128.575 108.852H128.843C128.845 108.852 128.846 108.851 128.847 108.85C128.849 108.849 128.849 108.847 128.85 108.845C128.849 108.844 128.849 108.842 128.847 108.841C128.846 108.84 128.845 108.839 128.843 108.839H128.575C128.573 108.839 128.572 108.84 128.57 108.841C128.569 108.842 128.568 108.844 128.568 108.845C128.568 108.847 128.569 108.849 128.57 108.85ZM128.562 109.02C128.56 109.02 128.559 109.021 128.558 109.022C128.556 109.023 128.556 109.025 128.556 109.026C128.556 109.028 128.556 109.03 128.558 109.031C128.559 109.032 128.56 109.033 128.562 109.033H128.831C128.832 109.033 128.834 109.032 128.835 109.031C128.836 109.03 128.837 109.028 128.837 109.026C128.837 109.025 128.836 109.023 128.835 109.022C128.834 109.021 128.832 109.02 128.831 109.02H128.562ZM128.577 108.656C128.575 108.656 128.574 108.657 128.573 108.658C128.571 108.659 128.571 108.661 128.571 108.662C128.571 108.664 128.571 108.665 128.573 108.666C128.574 108.668 128.575 108.668 128.577 108.668H128.845C128.847 108.668 128.848 108.668 128.85 108.666C128.851 108.665 128.852 108.664 128.852 108.662C128.852 108.66 128.851 108.659 128.85 108.658C128.848 108.657 128.847 108.656 128.845 108.656H128.577ZM128.771 108.112C128.77 108.111 128.768 108.11 128.767 108.11H128.498C128.496 108.11 128.495 108.111 128.494 108.112C128.492 108.114 128.492 108.115 128.492 108.117C128.492 108.118 128.492 108.12 128.494 108.121C128.495 108.122 128.496 108.123 128.498 108.123H128.767C128.768 108.123 128.77 108.122 128.771 108.121C128.772 108.12 128.773 108.118 128.773 108.117C128.773 108.115 128.772 108.114 128.771 108.112ZM128.811 108.294C128.81 108.292 128.809 108.292 128.807 108.291H128.539C128.537 108.292 128.535 108.292 128.534 108.294C128.533 108.295 128.532 108.296 128.532 108.298C128.532 108.299 128.533 108.301 128.534 108.302C128.535 108.303 128.537 108.304 128.539 108.304H128.807C128.809 108.304 128.81 108.303 128.811 108.302C128.813 108.301 128.813 108.299 128.813 108.298C128.813 108.296 128.813 108.295 128.811 108.294ZM128.837 108.477C128.836 108.475 128.834 108.475 128.833 108.475H128.564C128.562 108.475 128.561 108.475 128.56 108.477C128.559 108.478 128.558 108.479 128.558 108.481C128.558 108.483 128.559 108.484 128.56 108.485C128.561 108.487 128.562 108.487 128.564 108.487H128.833C128.834 108.487 128.836 108.487 128.837 108.485C128.838 108.484 128.839 108.483 128.839 108.481C128.839 108.479 128.838 108.478 128.837 108.477ZM128.44 107.927C128.439 107.927 128.437 107.928 128.436 107.929C128.435 107.93 128.434 107.932 128.434 107.933C128.434 107.935 128.435 107.937 128.436 107.938C128.437 107.939 128.439 107.94 128.44 107.94H128.709C128.711 107.94 128.712 107.939 128.713 107.938C128.715 107.937 128.715 107.935 128.715 107.933C128.715 107.932 128.715 107.93 128.713 107.929C128.712 107.928 128.711 107.927 128.709 107.927H128.44ZM128.36 107.757C128.361 107.758 128.362 107.759 128.364 107.759H128.632C128.634 107.759 128.635 107.758 128.636 107.757C128.638 107.756 128.638 107.754 128.639 107.752C128.638 107.751 128.638 107.749 128.636 107.748C128.635 107.747 128.634 107.746 128.632 107.746H128.364C128.362 107.746 128.361 107.747 128.36 107.748C128.358 107.749 128.357 107.751 128.357 107.752C128.357 107.754 128.358 107.756 128.36 107.757ZM128.264 107.573C128.265 107.575 128.266 107.575 128.268 107.576H128.536C128.538 107.575 128.539 107.575 128.541 107.573C128.542 107.572 128.543 107.571 128.543 107.569C128.543 107.568 128.542 107.566 128.541 107.565C128.539 107.564 128.538 107.563 128.536 107.563H128.268C128.266 107.563 128.265 107.564 128.264 107.565C128.262 107.566 128.262 107.568 128.262 107.569C128.262 107.571 128.262 107.572 128.264 107.573ZM128.144 107.392C128.145 107.394 128.147 107.394 128.149 107.394H128.417C128.419 107.394 128.42 107.394 128.421 107.392C128.423 107.391 128.423 107.39 128.423 107.388C128.423 107.386 128.423 107.385 128.421 107.384C128.42 107.383 128.419 107.382 128.417 107.382H128.149C128.147 107.382 128.145 107.383 128.144 107.384C128.143 107.385 128.142 107.386 128.142 107.388C128.142 107.39 128.143 107.391 128.144 107.392ZM128.002 107.201C128 107.201 127.999 107.201 127.997 107.203C127.996 107.204 127.995 107.205 127.995 107.207C127.995 107.209 127.996 107.21 127.997 107.211C127.999 107.212 128 107.213 128.002 107.213H128.27C128.272 107.213 128.273 107.212 128.274 107.211C128.276 107.21 128.276 107.209 128.276 107.207C128.276 107.205 128.276 107.204 128.274 107.203C128.273 107.201 128.272 107.201 128.27 107.201H128.002ZM128.097 107.024C128.097 107.022 128.097 107.021 128.095 107.019C128.094 107.018 128.093 107.017 128.091 107.017H127.823C127.821 107.017 127.82 107.018 127.818 107.019C127.817 107.021 127.816 107.022 127.816 107.024C127.816 107.025 127.817 107.027 127.818 107.028C127.82 107.029 127.821 107.03 127.823 107.03H128.091C128.093 107.03 128.094 107.029 128.095 107.028C128.097 107.027 128.097 107.025 128.097 107.024ZM127.605 106.836C127.604 106.836 127.602 106.837 127.601 106.838C127.6 106.839 127.599 106.841 127.599 106.843C127.599 106.844 127.6 106.846 127.601 106.847C127.602 106.848 127.604 106.849 127.605 106.849H127.874C127.875 106.849 127.877 106.848 127.878 106.847C127.879 106.846 127.88 106.844 127.88 106.843C127.88 106.841 127.879 106.839 127.878 106.838C127.877 106.837 127.875 106.836 127.874 106.836H127.605ZM127.309 106.664C127.31 106.665 127.312 106.666 127.313 106.666H127.582C127.583 106.666 127.585 106.665 127.586 106.664C127.587 106.662 127.588 106.661 127.588 106.659C127.588 106.658 127.587 106.656 127.586 106.655C127.585 106.654 127.583 106.653 127.582 106.653H127.313C127.312 106.653 127.31 106.654 127.309 106.655C127.308 106.656 127.307 106.658 127.307 106.659C127.307 106.661 127.308 106.662 127.309 106.664ZM126.838 106.483C126.839 106.484 126.841 106.485 126.842 106.485H127.111C127.113 106.485 127.114 106.484 127.115 106.483C127.117 106.481 127.117 106.48 127.117 106.478C127.117 106.477 127.117 106.475 127.115 106.474C127.114 106.473 127.113 106.472 127.111 106.472H126.842C126.841 106.472 126.839 106.473 126.838 106.474C126.837 106.475 126.836 106.477 126.836 106.478C126.836 106.48 126.837 106.481 126.838 106.483Z" fill="#CA872A"/>
<path d="M127.902 107.09C127.444 106.632 126.892 106.404 126.244 106.404C125.596 106.404 125.043 106.632 124.586 107.09C124.129 107.547 123.9 108.1 123.9 108.748C123.9 109.395 124.129 109.948 124.586 110.405C125.043 110.863 125.596 111.091 126.244 111.091C126.891 111.091 127.444 110.863 127.902 110.405C128.359 109.948 128.588 109.395 128.588 108.748C128.588 108.1 128.359 107.547 127.902 107.09Z" fill="#FBB43C"/>
<path d="M127.561 107.429C127.198 107.066 126.759 106.884 126.244 106.884C125.729 106.884 125.29 107.066 124.926 107.429C124.563 107.793 124.381 108.232 124.381 108.747C124.381 109.262 124.563 109.701 124.926 110.065C125.29 110.428 125.729 110.61 126.244 110.61C126.759 110.61 127.198 110.428 127.561 110.065C127.925 109.701 128.107 109.262 128.107 108.747C128.107 108.232 127.925 107.793 127.561 107.429Z" fill="#F4A621"/>
<path d="M125.797 108C125.71 108.086 125.667 108.197 125.667 108.332C125.667 108.411 125.68 108.478 125.706 108.535C125.73 108.591 125.765 108.641 125.811 108.683C125.855 108.725 125.91 108.763 125.973 108.795C126.037 108.827 126.111 108.86 126.198 108.892C126.286 108.925 126.348 108.961 126.385 109.001C126.42 109.039 126.438 109.091 126.438 109.157C126.438 109.22 126.418 109.27 126.378 109.308C126.337 109.345 126.281 109.363 126.211 109.363C126.125 109.363 126.061 109.338 126.016 109.287C125.971 109.236 125.948 109.163 125.948 109.068H125.601C125.601 109.232 125.646 109.364 125.736 109.463C125.826 109.561 125.953 109.619 126.117 109.637V109.874H126.308V109.636C126.457 109.62 126.574 109.57 126.658 109.486C126.743 109.401 126.786 109.29 126.786 109.154C126.786 109.081 126.774 109.018 126.751 108.964C126.729 108.908 126.697 108.859 126.654 108.817C126.612 108.774 126.56 108.736 126.498 108.702C126.437 108.668 126.358 108.631 126.263 108.593C126.168 108.554 126.102 108.516 126.067 108.479C126.032 108.443 126.014 108.394 126.014 108.333C126.014 108.268 126.032 108.216 126.068 108.18C126.104 108.142 126.155 108.123 126.22 108.123C126.287 108.123 126.34 108.147 126.38 108.196C126.419 108.242 126.438 108.314 126.438 108.411H126.786C126.786 108.254 126.746 108.127 126.665 108.03C126.585 107.931 126.474 107.872 126.333 107.851V107.592H126.14V107.849C125.997 107.863 125.883 107.913 125.797 108Z" fill="#624118"/>
<path d="M125.754 108C125.668 108.086 125.625 108.197 125.625 108.332C125.625 108.411 125.637 108.478 125.663 108.535C125.687 108.591 125.723 108.641 125.769 108.683C125.813 108.725 125.867 108.763 125.931 108.795C125.994 108.827 126.069 108.86 126.156 108.892C126.243 108.925 126.306 108.961 126.342 109.001C126.378 109.039 126.395 109.091 126.395 109.157C126.395 109.22 126.375 109.27 126.335 109.308C126.294 109.345 126.238 109.363 126.168 109.363C126.083 109.363 126.018 109.338 125.974 109.287C125.928 109.236 125.905 109.163 125.905 109.068H125.558C125.558 109.232 125.603 109.364 125.694 109.463C125.784 109.561 125.911 109.619 126.075 109.637V109.874H126.265V109.636C126.414 109.62 126.531 109.57 126.615 109.486C126.7 109.401 126.743 109.29 126.743 109.154C126.743 109.081 126.732 109.018 126.709 108.964C126.687 108.908 126.654 108.859 126.612 108.817C126.57 108.774 126.518 108.736 126.455 108.702C126.394 108.668 126.316 108.631 126.221 108.593C126.125 108.554 126.059 108.516 126.024 108.479C125.989 108.443 125.971 108.394 125.971 108.333C125.971 108.268 125.989 108.216 126.025 108.18C126.061 108.142 126.112 108.123 126.178 108.123C126.244 108.123 126.297 108.147 126.338 108.196C126.376 108.242 126.395 108.314 126.395 108.411H126.743C126.743 108.254 126.703 108.127 126.623 108.03C126.542 107.931 126.432 107.872 126.291 107.851V107.592H126.098V107.849C125.955 107.863 125.84 107.913 125.754 108Z" fill="#724B1E"/>
<path d="M128.588 106.404V99.0835" stroke="#0047AB" stroke-miterlimit="10"/>
<path d="M125.953 105.072V102.502" stroke="#0047AB" stroke-miterlimit="10"/>
<path d="M125.953 100.712V98.2329" stroke="#0047AB" stroke-miterlimit="10"/>
<path d="M123.379 108.754V102.958" stroke="#0047AB" stroke-miterlimit="10"/>
<path d="M36.8976 65.9468C36.4402 65.4894 35.8877 65.2607 35.2399 65.2607C34.5921 65.2607 34.0396 65.4894 33.5821 65.9468C33.1247 66.4042 32.896 66.9568 32.896 67.6046C32.896 68.2523 33.1247 68.805 33.5821 69.2624C34.0395 69.7198 34.592 69.9484 35.2399 69.9484C35.8876 69.9484 36.4401 69.7198 36.8976 69.2624C37.355 68.805 37.5837 68.2524 37.5837 67.6046C37.5837 66.9568 37.355 66.4042 36.8976 65.9468Z" fill="#FDC564"/>
<path d="M36.5887 69.5179C36.5876 69.5166 36.5862 69.5159 36.5845 69.5158H36.316C36.3143 69.5159 36.3129 69.5166 36.3118 69.5179C36.3104 69.5191 36.3098 69.5205 36.3097 69.5221C36.3098 69.5238 36.3104 69.5252 36.3118 69.5264C36.3129 69.5277 36.3144 69.5284 36.316 69.5285H36.5845C36.5862 69.5284 36.5876 69.5277 36.5887 69.5264C36.5901 69.5252 36.5908 69.5238 36.5909 69.5221C36.5908 69.5205 36.59 69.5191 36.5887 69.5179ZM36.8125 69.3347C36.8113 69.3333 36.8099 69.3327 36.8082 69.3326H36.5397C36.5381 69.3327 36.5367 69.3333 36.5355 69.3347C36.5342 69.3358 36.5335 69.3373 36.5334 69.3389C36.5335 69.3405 36.5342 69.342 36.5355 69.3431C36.5367 69.3445 36.5381 69.3451 36.5397 69.3452H36.8082C36.8099 69.3451 36.8113 69.3445 36.8125 69.3431C36.8138 69.342 36.8145 69.3405 36.8146 69.3389C36.8145 69.3373 36.8138 69.3358 36.8125 69.3347ZM36.9915 69.1536C36.9903 69.1522 36.9889 69.1516 36.9872 69.1515H36.7187C36.717 69.1516 36.7157 69.1522 36.7145 69.1536C36.7132 69.1547 36.7125 69.1562 36.7124 69.1578C36.7125 69.1594 36.7132 69.1609 36.7145 69.162C36.7157 69.1634 36.7171 69.164 36.7187 69.1641H36.9872C36.9889 69.164 36.9903 69.1634 36.9915 69.162C36.9928 69.1609 36.9935 69.1594 36.9936 69.1578C36.9935 69.1562 36.9927 69.1547 36.9915 69.1536ZM37.1384 68.9725C37.1373 68.9711 37.1358 68.9704 37.1342 68.9703H36.8657C36.864 68.9704 36.8626 68.9711 36.8615 68.9725C36.8601 68.9736 36.8595 68.975 36.8594 68.9767C36.8595 68.9783 36.8601 68.9797 36.8615 68.9809C36.8626 68.9822 36.8641 68.9829 36.8657 68.983H37.1342C37.1358 68.9829 37.1373 68.9822 37.1384 68.9809C37.1398 68.9797 37.1404 68.9783 37.1405 68.9767C37.1404 68.975 37.1398 68.9736 37.1384 68.9725ZM36.0156 69.7076C36.0167 69.7089 36.0182 69.7096 36.0198 69.7097H36.2883C36.2899 69.7096 36.2914 69.7089 36.2925 69.7076C36.2939 69.7064 36.2945 69.705 36.2946 69.7033C36.2945 69.7016 36.2939 69.7003 36.2925 69.6991C36.2914 69.6978 36.2899 69.6971 36.2883 69.697H36.0198C36.0181 69.6971 36.0167 69.6978 36.0156 69.6991C36.0142 69.7003 36.0135 69.7017 36.0135 69.7033C36.0135 69.705 36.0142 69.7064 36.0156 69.7076ZM35.5148 69.8908C35.516 69.8921 35.5174 69.8928 35.519 69.8929H35.7875C35.7892 69.8928 35.7906 69.8921 35.7918 69.8908C35.7931 69.8896 35.7938 69.8882 35.7939 69.8866C35.7938 69.8849 35.7931 69.8835 35.7918 69.8823C35.7906 69.881 35.7892 69.8803 35.7875 69.8802H35.519C35.5173 69.8803 35.516 69.881 35.5148 69.8823C35.5135 69.8835 35.5128 69.8849 35.5127 69.8866C35.5128 69.8882 35.5135 69.8896 35.5148 69.8908ZM37.3579 68.6081C37.3568 68.6068 37.3553 68.6061 37.3537 68.606H37.0852C37.0835 68.6061 37.0821 68.6068 37.081 68.6081C37.0796 68.6093 37.0789 68.6107 37.0788 68.6123C37.0789 68.614 37.0796 68.6154 37.081 68.6166C37.0821 68.6179 37.0835 68.6186 37.0852 68.6187H37.3537C37.3553 68.6186 37.3568 68.6179 37.3579 68.6166C37.3593 68.6154 37.3599 68.614 37.36 68.6123C37.3599 68.6107 37.3593 68.6093 37.3579 68.6081ZM37.4368 68.4249C37.4356 68.4235 37.4342 68.4229 37.4325 68.4228H37.1619C37.1602 68.4229 37.1589 68.4235 37.1577 68.4249C37.1564 68.426 37.1557 68.4275 37.1556 68.4291C37.1557 68.4307 37.1564 68.4322 37.1577 68.4333C37.1589 68.4347 37.1603 68.4353 37.1619 68.4354H37.4325C37.4342 68.4353 37.4356 68.4347 37.4368 68.4333C37.4381 68.4322 37.4388 68.4307 37.4389 68.4291C37.4388 68.4274 37.4381 68.426 37.4368 68.4249ZM37.2215 68.2416C37.2199 68.2417 37.2184 68.2423 37.2173 68.2437C37.2159 68.2448 37.2153 68.2463 37.2152 68.2479C37.2153 68.2496 37.2159 68.251 37.2173 68.2521C37.2184 68.2535 37.2199 68.2541 37.2215 68.2542H37.49C37.4916 68.2541 37.4931 68.2535 37.4942 68.2521C37.4956 68.251 37.4962 68.2495 37.4963 68.2479C37.4962 68.2462 37.4956 68.2448 37.4942 68.2437C37.4931 68.2423 37.4916 68.2417 37.49 68.2416H37.2215ZM37.5369 68.0605C37.5358 68.0591 37.5343 68.0584 37.5327 68.0583H37.2642C37.2625 68.0584 37.2611 68.0591 37.26 68.0605C37.2586 68.0616 37.258 68.063 37.2579 68.0647C37.258 68.0664 37.2586 68.0677 37.26 68.0689C37.2611 68.0702 37.2626 68.0709 37.2642 68.071H37.5327C37.5343 68.0709 37.5358 68.0702 37.5369 68.0689C37.5383 68.0677 37.5389 68.0663 37.539 68.0647C37.5389 68.063 37.5383 68.0616 37.5369 68.0605ZM36.9829 68.7978C36.9841 68.7991 36.9855 68.7998 36.9871 68.7999H37.2578C37.2594 68.7998 37.2608 68.7991 37.262 68.7978C37.2633 68.7966 37.264 68.7952 37.2641 68.7935C37.264 68.7918 37.2633 68.7905 37.262 68.7893C37.2608 68.788 37.2594 68.7873 37.2578 68.7872H36.9871C36.9854 68.7873 36.9841 68.788 36.9829 68.7893C36.9816 68.7905 36.9809 68.7919 36.9808 68.7935C36.9808 68.7952 36.9816 68.7965 36.9829 68.7978ZM37.2982 67.7068C37.2994 67.7081 37.3008 67.7088 37.3025 67.7089H37.571C37.5726 67.7088 37.574 67.7081 37.5752 67.7068C37.5765 67.7056 37.5772 67.7042 37.5773 67.7025C37.5772 67.7009 37.5765 67.6995 37.5752 67.6983C37.574 67.697 37.5726 67.6963 37.571 67.6962H37.3025C37.3007 67.6963 37.2994 67.697 37.2982 67.6983C37.2969 67.6995 37.2962 67.7009 37.2961 67.7025C37.2962 67.7042 37.2969 67.7056 37.2982 67.7068ZM37.2897 67.8772C37.288 67.8773 37.2866 67.878 37.2855 67.8793C37.2841 67.8805 37.2835 67.8819 37.2834 67.8836C37.2835 67.8852 37.2841 67.8866 37.2855 67.8878C37.2866 67.8891 37.2881 67.8898 37.2897 67.8899H37.5582C37.5598 67.8898 37.5613 67.8891 37.5624 67.8878C37.5638 67.8866 37.5644 67.8852 37.5645 67.8836C37.5644 67.8818 37.5638 67.8805 37.5624 67.8793C37.5613 67.878 37.5598 67.8773 37.5582 67.8772H37.2897ZM37.3047 67.5129C37.3029 67.513 37.3016 67.5136 37.3004 67.515C37.2991 67.5161 37.2984 67.5176 37.2983 67.5192C37.2984 67.5209 37.2991 67.5223 37.3004 67.5234C37.3016 67.5248 37.303 67.5254 37.3047 67.5255H37.5732C37.5748 67.5254 37.5762 67.5248 37.5774 67.5234C37.5787 67.5223 37.5794 67.5208 37.5795 67.5192C37.5794 67.5176 37.5787 67.5161 37.5774 67.515C37.5762 67.5136 37.5748 67.513 37.5732 67.5129H37.3047ZM37.4985 66.9695C37.4974 66.9682 37.496 66.9675 37.4943 66.9674H37.2258C37.2241 66.9675 37.2227 66.9682 37.2216 66.9695C37.2202 66.9707 37.2196 66.9721 37.2195 66.9738C37.2196 66.9754 37.2202 66.9768 37.2216 66.978C37.2227 66.9793 37.2242 66.98 37.2258 66.9801H37.4943C37.496 66.98 37.4974 66.9793 37.4985 66.978C37.4999 66.9768 37.5006 66.9754 37.5007 66.9738C37.5006 66.9721 37.4999 66.9707 37.4985 66.9695ZM37.539 67.1507C37.5379 67.1493 37.5364 67.1486 37.5348 67.1485H37.2663C37.2647 67.1486 37.2632 67.1493 37.2621 67.1507C37.2607 67.1518 37.2601 67.1532 37.26 67.1549C37.2601 67.1565 37.2607 67.1579 37.2621 67.1591C37.2632 67.1604 37.2647 67.1611 37.2663 67.1612H37.5348C37.5364 67.1611 37.5379 67.1604 37.539 67.1591C37.5404 67.1579 37.541 67.1565 37.5411 67.1549C37.541 67.1532 37.5404 67.1518 37.539 67.1507ZM37.5645 67.3339C37.5634 67.3325 37.562 67.3319 37.5603 67.3318H37.2918C37.2901 67.3319 37.2887 67.3325 37.2876 67.3339C37.2863 67.335 37.2856 67.3365 37.2855 67.3381C37.2856 67.3397 37.2863 67.3412 37.2876 67.3423C37.2887 67.3437 37.2902 67.3443 37.2918 67.3444H37.5603C37.562 67.3443 37.5634 67.3437 37.5645 67.3423C37.5659 67.3412 37.5666 67.3397 37.5667 67.3381C37.5667 67.3365 37.5659 67.335 37.5645 67.3339ZM37.1683 66.7842C37.1666 66.7843 37.1652 66.785 37.164 66.7863C37.1627 66.7875 37.162 66.7889 37.1619 66.7905C37.162 66.7922 37.1627 66.7936 37.164 66.7947C37.1652 66.7961 37.1666 66.7968 37.1683 66.7969H37.4368C37.4384 66.7968 37.4398 66.7961 37.441 66.7947C37.4423 66.7936 37.443 66.7922 37.4431 66.7905C37.443 66.7888 37.4423 66.7875 37.441 66.7863C37.4398 66.785 37.4384 66.7843 37.4368 66.7842H37.1683ZM37.0873 66.6137C37.0884 66.6151 37.0899 66.6157 37.0915 66.6158H37.36C37.3617 66.6157 37.3631 66.6151 37.3642 66.6137C37.3656 66.6126 37.3663 66.6111 37.3664 66.6095C37.3663 66.6078 37.3656 66.6064 37.3642 66.6053C37.3631 66.6039 37.3617 66.6033 37.36 66.6032H37.0915C37.0898 66.6033 37.0884 66.6039 37.0873 66.6053C37.0859 66.6064 37.0853 66.6079 37.0852 66.6095C37.0853 66.6111 37.0859 66.6126 37.0873 66.6137ZM36.9915 66.4305C36.9926 66.4318 36.994 66.4325 36.9957 66.4326H37.2642C37.2658 66.4325 37.2673 66.4318 37.2684 66.4305C37.2697 66.4294 37.2704 66.4279 37.2705 66.4263C37.2704 66.4246 37.2697 66.4232 37.2684 66.4221C37.2673 66.4207 37.2658 66.42 37.2642 66.42H36.9957C36.994 66.42 36.9926 66.4207 36.9915 66.4221C36.9901 66.4232 36.9894 66.4247 36.9893 66.4263C36.9893 66.4279 36.9901 66.4293 36.9915 66.4305ZM36.8721 66.2494C36.8733 66.2507 36.8747 66.2514 36.8763 66.2515H37.1448C37.1466 66.2514 37.1479 66.2507 37.1491 66.2494C37.1504 66.2482 37.1511 66.2468 37.1512 66.2452C37.1511 66.2434 37.1504 66.2421 37.1491 66.2409C37.1479 66.2396 37.1465 66.2389 37.1448 66.2388H36.8763C36.8746 66.2389 36.8733 66.2396 36.8721 66.2409C36.8708 66.2421 36.8701 66.2435 36.87 66.2452C36.87 66.2468 36.8708 66.2481 36.8721 66.2494ZM36.7293 66.0576C36.7276 66.0577 36.7262 66.0584 36.7251 66.0597C36.7237 66.0609 36.723 66.0623 36.7229 66.064C36.723 66.0657 36.7237 66.067 36.7251 66.0682C36.7262 66.0695 36.7276 66.0702 36.7293 66.0703H36.9978C36.9994 66.0702 37.0009 66.0695 37.002 66.0682C37.0034 66.067 37.004 66.0656 37.0041 66.064C37.004 66.0623 37.0034 66.0609 37.002 66.0597C37.0009 66.0584 36.9994 66.0577 36.9978 66.0576H36.7293ZM36.8252 65.8807C36.8251 65.8791 36.8244 65.8777 36.8231 65.8765C36.8219 65.8752 36.8205 65.8745 36.8189 65.8744H36.5504C36.5487 65.8745 36.5473 65.8752 36.5462 65.8765C36.5448 65.8777 36.5441 65.8791 36.544 65.8807C36.5441 65.8825 36.5448 65.8838 36.5462 65.8849C36.5473 65.8863 36.5487 65.887 36.5504 65.8871H36.8189C36.8205 65.887 36.8219 65.8863 36.8231 65.8849C36.8244 65.8838 36.8251 65.8825 36.8252 65.8807ZM36.333 65.6933C36.3313 65.6934 36.3299 65.694 36.3287 65.6954C36.3273 65.6965 36.3267 65.698 36.3266 65.6996C36.3267 65.7012 36.3273 65.7027 36.3287 65.7038C36.3298 65.7052 36.3313 65.7058 36.333 65.7059H36.6015C36.6031 65.7058 36.6046 65.7052 36.6057 65.7038C36.6071 65.7027 36.6077 65.7012 36.6078 65.6996C36.6077 65.6979 36.6071 65.6965 36.6057 65.6954C36.6046 65.694 36.6031 65.6934 36.6015 65.6933H36.333ZM36.0369 65.5206C36.038 65.522 36.0394 65.5226 36.0411 65.5227H36.3096C36.3112 65.5226 36.3127 65.522 36.3138 65.5206C36.3151 65.5195 36.3158 65.518 36.3159 65.5164C36.3158 65.5147 36.3151 65.5133 36.3138 65.5122C36.3127 65.5108 36.3112 65.5102 36.3096 65.5101H36.0411C36.0394 65.5102 36.038 65.5108 36.0369 65.5122C36.0355 65.5133 36.0348 65.5148 36.0347 65.5164C36.0347 65.518 36.0355 65.5195 36.0369 65.5206ZM35.5659 65.3395C35.5671 65.3408 35.5685 65.3415 35.5702 65.3416H35.8387C35.8403 65.3415 35.8417 65.3408 35.8429 65.3395C35.8442 65.3383 35.8449 65.3369 35.845 65.3353C35.8449 65.3335 35.8442 65.3322 35.8429 65.331C35.8417 65.3297 35.8403 65.329 35.8387 65.3289H35.5702C35.5684 65.329 35.5671 65.3297 35.5659 65.331C35.5646 65.3322 35.5639 65.3336 35.5638 65.3353C35.5639 65.3369 35.5646 65.3383 35.5659 65.3395Z" fill="#CA872A"/>
<path d="M36.6293 65.9468C36.1719 65.4894 35.6194 65.2607 34.9715 65.2607C34.3237 65.2607 33.7713 65.4894 33.3138 65.9468C32.8564 66.4042 32.6277 66.9568 32.6277 67.6046C32.6277 68.2523 32.8564 68.805 33.3138 69.2624C33.7712 69.7198 34.3237 69.9484 34.9715 69.9484C35.6194 69.9484 36.1718 69.7198 36.6293 69.2624C37.0867 68.805 37.3154 68.2524 37.3154 67.6046C37.3154 66.9568 37.0867 66.4042 36.6293 65.9468Z" fill="#FBB43C"/>
<path d="M36.2891 66.2865C35.9256 65.9229 35.4864 65.7411 34.9715 65.7411C34.4567 65.7411 34.0176 65.9229 33.6539 66.2865C33.2904 66.65 33.1086 67.0892 33.1086 67.6041C33.1086 68.1189 33.2904 68.558 33.6539 68.9216C34.0175 69.2852 34.4567 69.4669 34.9715 69.4669C35.4863 69.4669 35.9255 69.2852 36.2891 68.9216C36.6527 68.5581 36.8344 68.1189 36.8344 67.6041C36.8344 67.0892 36.6527 66.65 36.2891 66.2865Z" fill="#F4A621"/>
<path d="M34.5238 66.857C34.4378 66.943 34.3948 67.0536 34.3948 67.1888C34.3948 67.2674 34.4074 67.335 34.4328 67.3916C34.4574 67.4481 34.4926 67.4977 34.5385 67.5403C34.5828 67.5821 34.6368 67.6194 34.7007 67.6521C34.7638 67.6841 34.8388 67.7164 34.9257 67.7492C35.0133 67.782 35.0756 67.8181 35.1124 67.8574C35.1477 67.8959 35.1653 67.9479 35.1653 68.0135C35.1653 68.0766 35.1452 68.127 35.1051 68.1646C35.0641 68.2015 35.0084 68.22 34.9379 68.22C34.8527 68.22 34.788 68.1946 34.7438 68.1438C34.6979 68.093 34.675 68.0201 34.675 67.925H34.3284C34.3284 68.0888 34.3734 68.2204 34.4635 68.3195C34.5537 68.4178 34.6807 68.476 34.8445 68.494V68.7312H35.035V68.4928C35.1841 68.4773 35.3008 68.4272 35.3852 68.3429C35.4704 68.2577 35.513 68.1471 35.513 68.0111C35.513 67.9381 35.5016 67.8747 35.4786 67.8206C35.4565 67.7648 35.4241 67.7161 35.3815 67.6743C35.3397 67.6309 35.2877 67.5924 35.2254 67.5588C35.164 67.5244 35.0857 67.4879 34.9907 67.4494C34.8949 67.4109 34.8293 67.3732 34.7941 67.3364C34.7588 67.2995 34.7412 67.2508 34.7412 67.1901C34.7412 67.1246 34.7593 67.0734 34.7953 67.0365C34.8313 66.9989 34.8822 66.98 34.9477 66.98C35.014 66.98 35.0673 67.0042 35.1074 67.0525C35.1459 67.0992 35.1652 67.1709 35.1652 67.2675H35.513C35.513 67.1111 35.4728 66.9841 35.3925 66.8866C35.3122 66.7883 35.2016 66.7289 35.0607 66.7084V66.449H34.8678V66.7059C34.7245 66.7198 34.6098 66.7701 34.5238 66.857Z" fill="#624118"/>
<path d="M34.4813 66.857C34.3953 66.943 34.3523 67.0536 34.3523 67.1888C34.3523 67.2674 34.365 67.335 34.3904 67.3916C34.4149 67.4481 34.4502 67.4977 34.496 67.5403C34.5403 67.5821 34.5944 67.6194 34.6583 67.6521C34.7213 67.6841 34.7963 67.7164 34.8832 67.7492C34.9708 67.782 35.0331 67.8181 35.07 67.8574C35.1052 67.8959 35.1228 67.9479 35.1228 68.0135C35.1228 68.0766 35.1027 68.127 35.0626 68.1646C35.0217 68.2015 34.9659 68.22 34.8955 68.22C34.8102 68.22 34.7455 68.1946 34.7013 68.1438C34.6554 68.093 34.6325 68.0201 34.6325 67.925H34.2859C34.2859 68.0888 34.3309 68.2204 34.4211 68.3195C34.5112 68.4178 34.6382 68.476 34.8021 68.494V68.7312H34.9926V68.4928C35.1417 68.4773 35.2584 68.4272 35.3428 68.3429C35.428 68.2577 35.4706 68.1471 35.4706 68.0111C35.4706 67.9381 35.4592 67.8747 35.4362 67.8206C35.4141 67.7648 35.3817 67.7161 35.3391 67.6743C35.2973 67.6309 35.2452 67.5924 35.183 67.5588C35.1215 67.5244 35.0433 67.4879 34.9483 67.4494C34.8525 67.4109 34.7869 67.3732 34.7517 67.3364C34.7164 67.2995 34.6988 67.2508 34.6988 67.1901C34.6988 67.1246 34.7169 67.0734 34.7529 67.0365C34.7889 66.9989 34.8397 66.98 34.9052 66.98C34.9716 66.98 35.0249 67.0042 35.065 67.0525C35.1035 67.0992 35.1228 67.1709 35.1228 67.2675H35.4706C35.4706 67.1111 35.4304 66.9841 35.3502 66.8866C35.2699 66.7883 35.1593 66.7289 35.0183 66.7084V66.449H34.8254V66.7059C34.682 66.7198 34.5673 66.7701 34.4813 66.857Z" fill="#724B1E"/>
<path d="M37.3154 65.2607V57.9406" stroke="#0047AB" stroke-miterlimit="10"/>
<path d="M34.6804 63.9286V61.3594" stroke="#0047AB" stroke-miterlimit="10"/>
<path d="M34.6804 59.5695V57.0901" stroke="#0047AB" stroke-miterlimit="10"/>
<path d="M32.1064 67.6109V61.8148" stroke="#0047AB" stroke-miterlimit="10"/>
<path d="M80.7805 30.8986C82.3635 30.8986 83.6468 29.6154 83.6468 28.0324C83.6468 26.4494 82.3635 25.1662 80.7805 25.1662C79.1976 25.1662 77.9143 26.4494 77.9143 28.0324C77.9143 29.6154 79.1976 30.8986 80.7805 30.8986Z" fill="#E8F0F7"/>
<path d="M186.219 48.9438C186.401 47.8233 185.64 46.7676 184.519 46.5858C183.399 46.4039 182.343 47.1648 182.161 48.2852C181.979 49.4056 182.74 50.4613 183.861 50.6432C184.981 50.825 186.037 50.0642 186.219 48.9438Z" fill="#E8F0F7"/>
<path d="M176.443 45.9153C177.218 45.9153 177.846 45.2872 177.846 44.5125C177.846 43.7378 177.218 43.1098 176.443 43.1098C175.669 43.1098 175.041 43.7378 175.041 44.5125C175.041 45.2872 175.669 45.9153 176.443 45.9153Z" fill="#E8F0F7"/>
<path d="M113.208 130.453C116.574 130.453 119.302 127.724 119.302 124.358C119.302 120.992 116.574 118.264 113.208 118.264C109.842 118.264 107.113 120.992 107.113 124.358C107.113 127.724 109.842 130.453 113.208 130.453Z" fill="#E8F0F7"/>
<path d="M123.9 131.013C124.839 131.013 125.601 130.251 125.601 129.312C125.601 128.373 124.839 127.611 123.9 127.611C122.961 127.611 122.199 128.373 122.199 129.312C122.199 130.251 122.961 131.013 123.9 131.013Z" fill="#E8F0F7"/>
<path d="M33.5793 148.677H181.136" stroke="#0047AB" stroke-opacity="0.45" stroke-miterlimit="10" stroke-linecap="round" stroke-linejoin="round"/>
<path d="M182.323 148.676H186.174" stroke="#0047AB" stroke-opacity="0.45" stroke-miterlimit="10" stroke-linecap="round" stroke-linejoin="round"/>
<path d="M187.346 148.676H188.481" stroke="#0047AB" stroke-opacity="0.45" stroke-miterlimit="10" stroke-linecap="round" stroke-linejoin="round"/>
<path d="M32.007 148.676H28.1562" stroke="#0047AB" stroke-opacity="0.45" stroke-miterlimit="10" stroke-linecap="round" stroke-linejoin="round"/>
<path d="M26.9842 148.676H25.8484" stroke="#0047AB" stroke-opacity="0.45" stroke-miterlimit="10" stroke-linecap="round" stroke-linejoin="round"/>
<path d="M64.7591 42.626C65.1326 42.626 65.4354 42.3232 65.4354 41.9497C65.4354 41.5761 65.1326 41.2733 64.7591 41.2733C64.3856 41.2733 64.0828 41.5761 64.0828 41.9497C64.0828 42.3232 64.3856 42.626 64.7591 42.626Z" stroke="#5672B6" stroke-width="0.54" stroke-miterlimit="10" stroke-linecap="round" stroke-linejoin="round"/>
<path d="M112.531 103.791C112.905 103.791 113.208 103.488 113.208 103.114C113.208 102.741 112.905 102.438 112.531 102.438C112.158 102.438 111.855 102.741 111.855 103.114C111.855 103.488 112.158 103.791 112.531 103.791Z" stroke="#5672B6" stroke-width="3.536" stroke-miterlimit="10" stroke-linecap="round" stroke-linejoin="round"/>
<path d="M91.1945 41.9496C91.9416 41.9496 92.5472 41.344 92.5472 40.5969C92.5472 39.8499 91.9416 39.2442 91.1945 39.2442C90.4474 39.2442 89.8418 39.8499 89.8418 40.5969C89.8418 41.344 90.4474 41.9496 91.1945 41.9496Z" stroke="#5672B6" stroke-width="0.54" stroke-miterlimit="10" stroke-linecap="round" stroke-linejoin="round"/>
<path d="M50.7584 64.3741C51.5734 64.3741 52.2341 63.7134 52.2341 62.8984C52.2341 62.0834 51.5734 61.4227 50.7584 61.4227C49.9434 61.4227 49.2827 62.0834 49.2827 62.8984C49.2827 63.7134 49.9434 64.3741 50.7584 64.3741Z" stroke="#5672B6" stroke-width="0.54" stroke-miterlimit="10" stroke-linecap="round" stroke-linejoin="round"/>
<path d="M154.772 109.3C154.902 108.495 154.356 107.737 153.551 107.607C152.747 107.476 151.989 108.022 151.858 108.827C151.728 109.631 152.274 110.389 153.078 110.52C153.883 110.651 154.641 110.104 154.772 109.3Z" stroke="#5672B6" stroke-width="0.54" stroke-miterlimit="10" stroke-linecap="round" stroke-linejoin="round"/>
<path d="M164.014 56.6169L163.045 55.6479" stroke="#5672B6" stroke-miterlimit="10" stroke-linecap="round" stroke-linejoin="round"/>
<path d="M161.598 54.2017L160.687 53.2905" stroke="#5672B6" stroke-miterlimit="10" stroke-linecap="round" stroke-linejoin="round"/>
<path d="M161.656 55.6479L160.687 56.6169" stroke="#5672B6" stroke-miterlimit="10" stroke-linecap="round" stroke-linejoin="round"/>
<path d="M164.014 53.2905L163.045 54.2595" stroke="#5672B6" stroke-miterlimit="10" stroke-linecap="round" stroke-linejoin="round"/>
<path d="M116.853 35.1627L115.884 34.1937" stroke="#5672B6" stroke-miterlimit="10" stroke-linecap="round" stroke-linejoin="round"/>
<path d="M114.438 32.7475L113.527 31.8363" stroke="#5672B6" stroke-miterlimit="10" stroke-linecap="round" stroke-linejoin="round"/>
<path d="M114.496 34.1937L113.527 35.1627" stroke="#5672B6" stroke-miterlimit="10" stroke-linecap="round" stroke-linejoin="round"/>
<path d="M116.853 31.8363L115.884 32.8053" stroke="#5672B6" stroke-miterlimit="10" stroke-linecap="round" stroke-linejoin="round"/>
<path d="M63.8257 111.478L62.8567 110.509" stroke="#5672B6" stroke-width="0.54" stroke-miterlimit="10" stroke-linecap="round" stroke-linejoin="round"/>
<path d="M61.4105 109.063L60.4993 108.152" stroke="#5672B6" stroke-width="0.54" stroke-miterlimit="10" stroke-linecap="round" stroke-linejoin="round"/>
<path d="M61.4683 110.509L60.4993 111.478" stroke="#5672B6" stroke-width="0.54" stroke-miterlimit="10" stroke-linecap="round" stroke-linejoin="round"/>
<path d="M63.8257 108.152L62.8567 109.121" stroke="#5672B6" stroke-width="0.54" stroke-miterlimit="10" stroke-linecap="round" stroke-linejoin="round"/>
<path d="M177.12 72.2333C177.493 72.2333 177.796 71.9305 177.796 71.557C177.796 71.1835 177.493 70.8807 177.12 70.8807C176.746 70.8807 176.443 71.1835 176.443 71.557C176.443 71.9305 176.746 72.2333 177.12 72.2333Z" stroke="#5672B6" stroke-width="0.54" stroke-miterlimit="10" stroke-linecap="round" stroke-linejoin="round"/>
<path d="M139.786 37.0339C140.159 37.0339 140.462 36.7311 140.462 36.3576C140.462 35.9841 140.159 35.6813 139.786 35.6813C139.412 35.6813 139.11 35.9841 139.11 36.3576C139.11 36.7311 139.412 37.0339 139.786 37.0339Z" stroke="#5672B6" stroke-width="3.536" stroke-miterlimit="10" stroke-linecap="round" stroke-linejoin="round"/>
<path d="M150.776 98.3863H60.6861C59.7421 98.3863 58.9768 97.6211 58.9768 96.6771V49.018C58.9768 48.074 59.7421 47.3087 60.6861 47.3087H150.776C151.72 47.3087 152.485 48.074 152.485 49.018V96.6771C152.485 97.6211 151.72 98.3863 150.776 98.3863Z" fill="#E3E8FF"/>
<path d="M105.731 72.8474H58.9768V49.5107C58.9768 48.0767 60.1394 46.9142 61.5733 46.9142H105.731L105.731 72.8474ZM149.889 98.2255H105.731V72.894H152.485V95.6289C152.485 97.063 151.323 98.2255 149.889 98.2255Z" fill="#F0F3FF"/>
<path d="M150.777 98.688H60.6868C59.3562 98.688 58.2737 97.6054 58.2737 96.2749V48.6157C58.2737 47.2852 59.3562 46.2026 60.6868 46.2026H150.777C152.107 46.2026 153.19 47.2852 153.19 48.6157V96.2748C153.19 97.6054 152.107 98.688 150.777 98.688ZM60.6868 47.6103C60.1324 47.6103 59.6813 48.0613 59.6813 48.6157V96.2748C59.6813 96.8292 60.1324 97.2803 60.6868 97.2803H150.777C151.331 97.2803 151.782 96.8292 151.782 96.2748V48.6157C151.782 48.0613 151.331 47.6103 150.777 47.6103H60.6868Z" fill="#0047AB"/>
<path d="M150.776 98.688V97.2804C151.33 97.2804 151.781 96.8293 151.781 96.2749H153.189C153.189 97.6054 152.107 98.688 150.776 98.688ZM153.189 48.6157H151.781C151.781 48.0613 151.33 47.6102 150.776 47.6102V46.2026C152.107 46.2026 153.189 47.2852 153.189 48.6157ZM59.6806 48.6157H58.2729C58.2729 47.2852 59.3555 46.2026 60.686 46.2026V47.6102C60.1317 47.6102 59.6806 48.0613 59.6806 48.6157ZM60.6861 98.688C59.3555 98.688 58.273 97.6054 58.273 96.2749H59.6807C59.6807 96.8293 60.1317 97.2804 60.6861 97.2804V98.688Z" fill="#0047AB"/>
<path d="M63.8257 67.4837H63.8765" stroke="#4C4D51" stroke-width="0.1" stroke-linecap="round" stroke-linejoin="round"/>
<path d="M64.2808 67.4837H97.4822" stroke="#4C4D51" stroke-width="0.1" stroke-linecap="round" stroke-linejoin="round" stroke-dasharray="1.12 4.47"/>
<path d="M97.6848 67.4837H97.7355" stroke="#4C4D51" stroke-width="0.1" stroke-linecap="round" stroke-linejoin="round"/>
<path d="M63.8257 62.3897H63.8765" stroke="#4C4D51" stroke-width="0.1" stroke-linecap="round" stroke-linejoin="round"/>
<path d="M64.2808 62.3897H97.4822" stroke="#4C4D51" stroke-width="0.1" stroke-linecap="round" stroke-linejoin="round" stroke-dasharray="1.12 4.47"/>
<path d="M97.6848 62.3897H97.7355" stroke="#4C4D51" stroke-width="0.1" stroke-linecap="round" stroke-linejoin="round"/>
<path d="M63.8257 57.2957H63.8765" stroke="#4C4D51" stroke-width="0.1" stroke-linecap="round" stroke-linejoin="round"/>
<path d="M64.281 57.2957H97.4825" stroke="#4C4D51" stroke-width="0.1" stroke-linecap="round" stroke-linejoin="round" stroke-dasharray="1.12 4.47"/>
<path d="M97.6848 57.2957H97.7355" stroke="#4C4D51" stroke-width="0.1" stroke-linecap="round" stroke-linejoin="round"/>
<path d="M63.8257 52.2018H63.8765" stroke="#4C4D51" stroke-width="0.1" stroke-linecap="round" stroke-linejoin="round"/>
<path d="M64.281 52.2018H97.4825" stroke="#4C4D51" stroke-width="0.1" stroke-linecap="round" stroke-linejoin="round" stroke-dasharray="1.12 4.47"/>
<path d="M97.6848 52.2018H97.7355" stroke="#4C4D51" stroke-width="0.1" stroke-linecap="round" stroke-linejoin="round"/>
<path d="M97.0264 50.4543V53.0411L96.167 52.1817L86.8325 61.5533L84.7105 59.4314L77.7993 66.3425L74.3316 62.8748L66.1518 71.0194H64.2629L74.3316 60.9905L77.7993 64.4582L84.7105 57.5471L86.8325 59.669L95.2247 51.2397L94.4397 50.4543H97.0264Z" fill="#6495ED"/>
<path d="M98.8097 71.0194H63.8257V49.7552" stroke="#4C4D51" stroke-width="0.1" stroke-miterlimit="10"/>
<path d="M98.8098 71.6587V70.3801L99.4491 71.0194L98.8098 71.6587Z" fill="#4C4D51"/>
<path d="M64.4649 49.7552H63.1863L63.8256 49.116L64.4649 49.7552Z" fill="#4C4D51"/>
<path d="M110.341 92.076H110.391" stroke="#4C4D51" stroke-width="0.1" stroke-linecap="round" stroke-linejoin="round"/>
<path d="M110.796 92.076H143.997" stroke="#4C4D51" stroke-width="0.1" stroke-linecap="round" stroke-linejoin="round" stroke-dasharray="1.12 4.47"/>
<path d="M144.199 92.076H144.25" stroke="#4C4D51" stroke-width="0.1" stroke-linecap="round" stroke-linejoin="round"/>
<path d="M110.341 86.982H110.391" stroke="#4C4D51" stroke-width="0.1" stroke-linecap="round" stroke-linejoin="round"/>
<path d="M110.796 86.982H143.997" stroke="#4C4D51" stroke-width="0.1" stroke-linecap="round" stroke-linejoin="round" stroke-dasharray="1.12 4.47"/>
<path d="M144.199 86.982H144.25" stroke="#4C4D51" stroke-width="0.1" stroke-linecap="round" stroke-linejoin="round"/>
<path d="M110.341 81.8879H110.391" stroke="#4C4D51" stroke-width="0.1" stroke-linecap="round" stroke-linejoin="round"/>
<path d="M110.796 81.8879H143.997" stroke="#4C4D51" stroke-width="0.1" stroke-linecap="round" stroke-linejoin="round" stroke-dasharray="1.12 4.47"/>
<path d="M144.2 81.8879H144.251" stroke="#4C4D51" stroke-width="0.1" stroke-linecap="round" stroke-linejoin="round"/>
<path d="M110.341 76.794H110.391" stroke="#4C4D51" stroke-width="0.1" stroke-linecap="round" stroke-linejoin="round"/>
<path d="M110.796 76.794H143.997" stroke="#4C4D51" stroke-width="0.1" stroke-linecap="round" stroke-linejoin="round" stroke-dasharray="1.12 4.47"/>
<path d="M144.2 76.794H144.251" stroke="#4C4D51" stroke-width="0.1" stroke-linecap="round" stroke-linejoin="round"/>
<path d="M145.325 95.7625H110.19V74.3475H110.491V95.4609H145.325V95.7625Z" fill="#4C4D51"/>
<path d="M145.324 96.2509V94.9724L145.964 95.6117L145.324 96.2509Z" fill="#4C4D51"/>
<path d="M110.98 74.3475H109.701L110.34 73.7082L110.98 74.3475Z" fill="#4C4D51"/>
<path d="M142.153 77.4159L141.912 76.5446L141.041 76.7857L141.458 77.0218L134.827 88.9938L125.404 83.3772L120.342 89.3115L116.091 86.5817L110.214 95.5289L110.466 95.6944L116.179 86.9969L120.401 89.7075L125.468 83.7666L134.94 89.4123L141.72 77.1705L142.153 77.4159Z" fill="#4C4D51"/>
<path d="M145.059 76.3397L145.057 75.4356L144.153 75.437L144.499 75.7815L133.766 86.4772L122.09 83.3994L116.514 91.3122H110.341V91.6139H116.671L122.216 83.7445L133.773 86.7909L133.856 86.8129L144.712 75.9946L144.699 75.9815L145.059 76.3397Z" fill="#6495ED"/>
<path d="M108.368 67.802H149.385" stroke="#4C4D51" stroke-width="0.1" stroke-miterlimit="10" stroke-linecap="round" stroke-linejoin="round" stroke-dasharray="1.11 4.44"/>
<path d="M114.123 63.5192H110.397C110.12 63.5192 109.895 63.7443 109.895 64.022V71.0194H114.626V64.022C114.626 63.7443 114.401 63.5192 114.123 63.5192Z" fill="#6495ED"/>
<path d="M108.368 63.5192H149.385" stroke="#4C4D51" stroke-width="0.1" stroke-miterlimit="10" stroke-linecap="round" stroke-linejoin="round" stroke-dasharray="1.11 4.44"/>
<path d="M108.368 59.2365H149.385" stroke="#4C4D51" stroke-width="0.1" stroke-miterlimit="10" stroke-linecap="round" stroke-linejoin="round" stroke-dasharray="1.11 4.44"/>
<path d="M108.368 54.9537H149.385" stroke="#4C4D51" stroke-width="0.1" stroke-miterlimit="10" stroke-linecap="round" stroke-linejoin="round" stroke-dasharray="1.11 4.44"/>
<path d="M108.368 50.671H149.385" stroke="#4C4D51" stroke-width="0.1" stroke-miterlimit="10" stroke-linecap="round" stroke-linejoin="round" stroke-dasharray="1.11 4.44"/>
<path d="M122.235 60.5028H118.509C118.231 60.5028 118.006 60.7279 118.006 61.0055V71.0194H122.737V61.0055C122.737 60.7279 122.512 60.5028 122.235 60.5028ZM130.346 58.4919H126.62C126.342 58.4919 126.117 58.717 126.117 58.9946V71.0194H130.849V58.9946C130.849 58.717 130.624 58.4919 130.346 58.4919ZM138.457 55.4755H134.731C134.454 55.4755 134.229 55.7006 134.229 55.9782V71.0194H138.96V55.9782C138.96 55.7006 138.735 55.4755 138.457 55.4755ZM146.569 53.4645H142.843C142.565 53.4645 142.34 53.6896 142.34 53.9672V71.0194H147.071V53.9672C147.071 53.6896 146.846 53.4645 146.569 53.4645Z" fill="#6495ED"/>
<path d="M149.385 70.8183H108.368" stroke="#4C4D51" stroke-width="0.1" stroke-miterlimit="10"/>
<path d="M87.2213 91.8269C90.7789 88.2691 90.7788 82.5009 87.2211 78.9433C83.6633 75.3856 77.8951 75.3857 74.3374 78.9435C70.7798 82.5013 70.7799 88.2695 74.3377 91.8271C77.8954 95.3848 83.6636 95.3847 87.2213 91.8269Z" fill="#D0D0D0"/>
<path d="M86.7189 91.3245C89.9991 88.0442 89.999 82.7259 86.7187 79.4457C83.4384 76.1655 78.1201 76.1656 74.8399 79.4459C71.5597 82.7262 71.5598 88.0445 74.8401 91.3247C78.1204 94.6049 83.4387 94.6048 86.7189 91.3245Z" fill="white"/>
<path d="M80.7804 85.3854L86.7158 90.8992C85.1837 92.5484 83.0315 93.4867 80.7804 93.4867C77.7215 93.4867 74.9131 91.7542 73.5405 89.0205L80.7804 85.3854Z" fill="#F0F0F0"/>
<path d="M80.7803 85.3854L84.6623 78.2748C87.2598 79.6929 88.8816 82.426 88.8816 85.3854C88.8816 87.4245 88.1117 89.3902 86.7269 90.887L80.7803 85.3854Z" fill="#0047AB"/>
<path d="M80.7804 85.3854L73.5774 89.0931C72.9872 87.9464 72.6792 86.6751 72.6792 85.3854C72.6792 80.9412 76.3362 77.2842 80.7804 77.2842C82.173 77.2842 83.5424 77.6433 84.7558 78.3267L80.7804 85.3854Z" fill="#6495ED"/>
<path opacity="0.31" d="M124.484 132.658L114.52 127.834L103.275 141.244L101.387 138.564L103.737 120.537L94.4285 92.5193L73.0962 100.072L78.7781 114.375L97.0384 158.334L101.065 168.294L101.532 165.402L105.981 148.436L112.2 141.53L123.304 140.676L105.621 128.437L124.484 132.658Z" fill="white"/>
<path d="M107.306 79.9057C113.903 79.9057 119.251 74.7451 119.251 68.3791C119.251 62.0132 113.903 56.8526 107.306 56.8526C100.709 56.8526 95.3616 62.0132 95.3616 68.3791C95.3616 74.7451 100.709 79.9057 107.306 79.9057Z" fill="#0047AB"/>
<path d="M138.831 149.342L131.565 152.991C129.452 148.973 124.972 146.31 119.897 146.715C113.96 147.19 109.225 151.966 108.978 157.709C108.886 159.852 109.396 161.877 110.373 163.629L109.88 163.875L105.999 165.82L101.069 168.294C98.5254 162.55 96.3732 156.785 94.5556 151.094C94.2607 150.183 93.9746 149.263 93.7017 148.352V148.343C93.4993 147.674 93.2968 146.988 93.1428 146.455C92.9887 145.927 92.8831 145.562 92.8831 145.562C89.6219 134.185 87.6282 123.275 86.4311 113.702L86.4399 113.887C84.8467 103.381 84.7674 91.9429 84.7674 91.9429C84.7146 90.0416 84.7014 88.3208 84.7014 86.8024C84.7014 85.8825 84.7014 85.0331 84.719 84.2673C84.7674 81.2217 84.8775 79.4217 84.8907 79.1664V79.1356L91.2547 79.9982L94.4675 80.5352C94.4455 80.8168 94.4323 81.1029 94.4323 81.389C94.4323 87.7574 99.7797 92.9155 106.373 92.9155C111.874 92.9155 116.5 89.333 117.886 84.4522L121.319 85.0243L126.556 85.9441V85.9662C126.543 86.1466 126.402 88.7169 126.42 92.8495C126.42 92.8495 126.723 104.504 127.216 109.002C127.837 115.379 128.884 122.443 130.658 129.348C130.667 129.37 130.671 129.388 130.676 129.41C131.345 132.125 131.437 132.209 131.441 132.209C133.22 138.357 135.614 144.272 138.835 149.338L138.831 149.342Z" fill="#6495ED"/>
</svg>
