<svg width="202" height="99" viewBox="0 0 202 99" fill="none" xmlns="http://www.w3.org/2000/svg">
<g clip-path="url(#clip0_273_219)">
<path d="M82.6953 20.5472H83.0355V24.8575H82.6953V20.5472ZM77.3542 24.8541H77.6944V29.1644H77.3542V24.8541ZM88.7848 24.8541H89.125V29.1644H88.7848V24.8541ZM82.6953 29.1644H83.0355V33.4747H82.6953V29.1644Z" fill="#E2E6ED"/>
<path d="M72.8602 29.2597C74.5305 29.1917 76.2009 29.1576 77.8713 29.1304C79.5416 29.1032 81.212 29.1066 82.8824 29.0896C84.5527 29.0726 86.2231 29.0896 87.8935 29.1304L90.4007 29.178C91.2342 29.2053 92.0711 29.2223 92.9046 29.2597C92.0711 29.3005 91.2342 29.3175 90.4007 29.3447L87.8935 29.3924C86.2231 29.4196 84.5527 29.4162 82.8824 29.4298C81.212 29.4434 79.5416 29.4298 77.8713 29.3924C76.2009 29.355 74.5135 29.3277 72.8602 29.2597ZM72.8602 24.9494C74.5305 24.878 76.2009 24.8439 77.8713 24.8167C79.5416 24.7895 81.212 24.7929 82.8824 24.7793C84.5527 24.7657 86.2231 24.7793 87.8935 24.8167L90.4007 24.8644C91.2342 24.895 92.0711 24.9086 92.9046 24.9494C92.0711 24.9868 91.2342 25.0038 90.4007 25.0311L87.8935 25.0787C86.2231 25.1059 84.5527 25.1059 82.8824 25.1195C81.212 25.1331 79.5416 25.1195 77.8713 25.0787C76.2009 25.0379 74.5135 25.0174 72.8602 24.9494ZM77.2453 33.4747C78.2115 33.4033 79.181 33.3693 80.1472 33.3421C81.1133 33.3148 82.0863 33.308 83.0525 33.3046C84.0186 33.3012 84.9882 33.3046 85.9577 33.3421L87.4104 33.3897C87.8935 33.4169 88.3765 33.4339 88.8596 33.4747C88.3765 33.5122 87.8935 33.5292 87.4104 33.5564L85.9577 33.604C84.9882 33.6346 84.022 33.638 83.0525 33.6414C82.0829 33.6448 81.1167 33.6414 80.1472 33.604C79.1776 33.5666 78.2115 33.5428 77.2453 33.4747ZM77.0582 20.6391C78.0244 20.5677 78.9939 20.5371 79.9601 20.5098C80.9262 20.4826 81.8958 20.4724 82.8654 20.469C83.8349 20.4656 84.8011 20.469 85.7706 20.5098L87.2199 20.5575C87.7063 20.5847 88.1894 20.6017 88.6725 20.6391C88.1894 20.6765 87.7063 20.6935 87.2199 20.7242L85.7706 20.7718C84.8011 20.8024 83.8349 20.8058 82.8654 20.8092C81.8958 20.8126 80.9296 20.8092 79.9601 20.7684C78.9905 20.7276 78.0244 20.7106 77.0582 20.6391Z" fill="#E2E6ED"/>
<path d="M68.9275 80H79.443V92.9887H68.9275V80Z" fill="#254FA3"/>
<path d="M74.187 82.8678H46.0187C45.8993 82.8677 45.7821 82.8362 45.6787 82.7764C45.5754 82.7166 45.4896 82.6307 45.43 82.5273C45.3703 82.4239 45.339 82.3066 45.339 82.1873C45.339 82.0679 45.3705 81.9506 45.4301 81.8472L59.5109 57.5912L74.187 32.3214L88.8494 57.5912L102.934 81.8472C102.993 81.9506 103.025 82.0679 103.025 82.1873C103.025 82.3066 102.993 82.4239 102.934 82.5273C102.874 82.6307 102.788 82.7166 102.685 82.7764C102.582 82.8362 102.464 82.8677 102.345 82.8678H74.187Z" fill="#4467AD"/>
<path d="M74.1869 32.3113L59.5108 57.5913L52.8124 69.1274H95.5581L88.863 57.5913L74.1869 32.3113Z" fill="#415E97"/>
<path d="M74.187 65.7253H50.9413C50.8222 65.7246 50.7054 65.6926 50.6026 65.6326C50.4997 65.5726 50.4144 65.4867 50.3551 65.3833C50.2959 65.28 50.2648 65.163 50.265 65.0439C50.2652 64.9248 50.2966 64.8079 50.3562 64.7047L61.9739 44.6875L74.187 23.6498L86.4 44.6875L98.0347 64.7013C98.0944 64.8047 98.1259 64.922 98.1259 65.0413C98.1259 65.1607 98.0946 65.278 98.0349 65.3814C97.9753 65.4848 97.8895 65.5707 97.7862 65.6305C97.6828 65.6903 97.5656 65.7218 97.4462 65.7219L74.187 65.7253Z" fill="#4467AD"/>
<path d="M74.1869 23.6498L61.9739 44.6875L58.1739 51.2363H90.2L86.4 44.6875L74.1869 23.6498Z" fill="#415E97"/>
<path d="M74.187 48.4536H56.6464C56.5271 48.4535 56.4098 48.422 56.3065 48.3622C56.2031 48.3024 56.1173 48.2165 56.0577 48.1131C55.9981 48.0097 55.9667 47.8924 55.9667 47.7731C55.9668 47.6537 55.9982 47.5364 56.0579 47.433L64.8248 32.3215L74.187 16.1962L83.5458 32.3215L92.3126 47.4228C92.3722 47.526 92.4036 47.6429 92.4038 47.762C92.404 47.8811 92.3729 47.9981 92.3137 48.1015C92.2545 48.2048 92.1691 48.2907 92.0663 48.3507C91.9634 48.4107 91.8466 48.4427 91.7275 48.4434L74.187 48.4536Z" fill="#4467AD"/>
<path d="M74.1869 16.288L64.8247 32.4099L62.6951 36.0806H85.6788L83.5457 32.4099L74.1869 16.288Z" fill="#415E97"/>
<path d="M74.1869 32.9032H62.0623C61.9427 32.9037 61.825 32.8726 61.7212 32.8131C61.6174 32.7536 61.5311 32.6677 61.471 32.5642C61.411 32.4607 61.3793 32.3432 61.3792 32.2235C61.3791 32.1038 61.4105 31.9863 61.4704 31.8826L67.5361 21.3025L74.1869 9.70862L80.8344 21.3059L86.9001 31.886C86.9598 31.9894 86.9912 32.1067 86.9912 32.2261C86.9913 32.3454 86.9599 32.4627 86.9002 32.5661C86.8406 32.6695 86.7548 32.7554 86.6515 32.8152C86.5481 32.875 86.4309 32.9065 86.3115 32.9066L74.1869 32.9032Z" fill="#4467AD"/>
<path d="M63.845 27.7458C66.2669 27.1669 68.6362 26.3863 70.9279 25.4121C72.0643 24.9162 73.1727 24.3586 74.2482 23.7417C74.7891 23.4287 75.313 23.1021 75.8267 22.7517C76.3404 22.4013 76.8473 22.0373 77.3236 21.6631C77.7522 21.3184 78.1707 20.9623 78.5789 20.5949C78.9833 20.2217 79.3736 19.8336 79.7492 19.4314C79.4124 19.8697 79.05 20.2878 78.664 20.6833C78.2815 21.0839 77.8784 21.4643 77.4563 21.823C76.9664 22.2482 76.4833 22.6258 75.973 23.0001C75.4627 23.3743 74.9286 23.7043 74.3945 24.0206C73.3195 24.6711 72.1971 25.2397 71.0367 25.7216C69.881 26.2081 68.6959 26.6217 67.4885 26.9599C66.2923 27.3007 65.0752 27.5632 63.845 27.7458ZM61.6337 37.8224C63.2224 38.6219 64.7635 39.503 66.3795 40.2344C67.9954 40.9658 69.6351 41.6462 71.2953 42.2756C72.9554 42.905 74.653 43.4051 76.3642 43.8507C78.0777 44.2976 79.8172 44.6385 81.5726 44.8713C82.3415 44.9666 83.1103 45.0584 83.8826 45.1128C84.6548 45.1673 85.4271 45.2013 86.2027 45.2047C86.9784 45.2081 87.754 45.2047 88.5262 45.1469C89.2985 45.089 90.0741 45.0176 90.843 44.9189C89.312 45.2054 87.76 45.3647 86.2027 45.3952C85.4237 45.3952 84.6446 45.3952 83.8656 45.3578C83.0865 45.3204 82.3109 45.2591 81.5352 45.1605C79.7656 44.9408 78.0113 44.6113 76.2826 44.1739C74.5535 43.7271 72.85 43.1866 71.1796 42.5546C69.513 41.9275 67.8791 41.2167 66.2842 40.4249C65.8828 40.2276 65.4881 40.0269 65.0935 39.8228C64.6989 39.6187 64.3179 39.3839 63.93 39.1628L61.6337 37.8224ZM50.9753 63.6195L56.2212 63.1092C57.9698 62.9187 59.7116 62.6976 61.45 62.4561C64.9268 61.9526 68.3934 61.3844 71.8192 60.619C75.2538 59.8927 78.6452 58.975 81.9775 57.8702L83.2192 57.4382L83.8383 57.2204L84.4541 56.9823L85.6788 56.506C86.087 56.3427 86.4851 56.1658 86.8899 55.9889C88.5097 55.3109 90.0846 54.5302 91.605 53.6518C88.6283 55.5297 85.3692 56.9245 82.0625 58.1186C78.7313 59.2647 75.3346 60.211 71.8906 60.9524C68.4512 61.6906 64.9744 62.2656 61.484 62.7112C59.7388 62.9255 57.9902 63.116 56.2382 63.2725L50.9753 63.6195ZM51.9585 70.6004C53.8201 71.6378 55.7422 72.5625 57.7146 73.3696C58.691 73.7948 59.6912 74.1588 60.6846 74.5399C61.6779 74.9209 62.6951 75.2203 63.7055 75.5604C67.7694 76.8294 71.9207 77.7993 76.1261 78.4623C80.3316 79.1267 84.5739 79.5334 88.829 79.6802L92.0201 79.7755L95.2145 79.7483H96.8134L98.409 79.6836L101.607 79.5476C97.3544 79.8571 93.1019 80.1157 88.8188 79.9524C84.5498 79.842 80.2922 79.4602 76.0717 78.8093C71.8535 78.1305 67.6933 77.1308 63.6273 75.819C59.5616 74.5035 55.6494 72.7539 51.9585 70.6004Z" fill="#233D70"/>
<path d="M77.6876 26.9565C78.8825 26.9565 79.8512 26.0564 79.8512 24.946C79.8512 23.8356 78.8825 22.9354 77.6876 22.9354C76.4926 22.9354 75.5239 23.8356 75.5239 24.946C75.5239 26.0564 76.4926 26.9565 77.6876 26.9565Z" fill="#3B77EF"/>
<path d="M68.4104 31.2872C69.6054 31.2872 70.5741 30.3871 70.5741 29.2767C70.5741 28.1663 69.6054 27.2661 68.4104 27.2661C67.2155 27.2661 66.2468 28.1663 66.2468 29.2767C66.2468 30.3871 67.2155 31.2872 68.4104 31.2872Z" fill="#06389E"/>
<path d="M74.2856 48.6067C75.4806 48.6067 76.4493 47.7065 76.4493 46.5961C76.4493 45.4857 75.4806 44.5856 74.2856 44.5856C73.0907 44.5856 72.1219 45.4857 72.1219 46.5961C72.1219 47.7065 73.0907 48.6067 74.2856 48.6067Z" fill="#06389E"/>
<path d="M67.1721 66.8549C68.367 66.8549 69.3357 65.9547 69.3357 64.8443C69.3357 63.7339 68.367 62.8337 67.1721 62.8337C65.9771 62.8337 65.0084 63.7339 65.0084 64.8443C65.0084 65.9547 65.9771 66.8549 67.1721 66.8549Z" fill="#06389E"/>
<path d="M79.6117 63.677C80.1226 62.6911 79.6766 61.4462 78.6156 60.8965C77.5546 60.3467 76.2804 60.7003 75.7696 61.6863C75.2587 62.6722 75.7047 63.9171 76.7657 64.4668C77.8267 65.0165 79.1009 64.6629 79.6117 63.677Z" fill="#5C92FE"/>
<path d="M73.3569 83.2455C74.5518 83.2455 75.5205 82.3453 75.5205 81.2349C75.5205 80.1245 74.5518 79.2244 73.3569 79.2244C72.1619 79.2244 71.1932 80.1245 71.1932 81.2349C71.1932 82.3453 72.1619 83.2455 73.3569 83.2455Z" fill="#3B77EF"/>
<path d="M96.8645 84.4838C98.0594 84.4838 99.0281 83.5836 99.0281 82.4732C99.0281 81.3628 98.0594 80.4626 96.8645 80.4626C95.6695 80.4626 94.7008 81.3628 94.7008 82.4732C94.7008 83.5836 95.6695 84.4838 96.8645 84.4838Z" fill="#5C92FE"/>
<path d="M55.4183 68.0931C56.6132 68.0931 57.5819 67.193 57.5819 66.0826C57.5819 64.9722 56.6132 64.072 55.4183 64.072C54.2233 64.072 53.2546 64.9722 53.2546 66.0826C53.2546 67.193 54.2233 68.0931 55.4183 68.0931Z" fill="#3B77EF"/>
<path d="M53.5642 76.7511C54.7592 76.7511 55.7279 75.8509 55.7279 74.7405C55.7279 73.6301 54.7592 72.73 53.5642 72.73C52.3693 72.73 51.4006 73.6301 51.4006 74.7405C51.4006 75.8509 52.3693 76.7511 53.5642 76.7511Z" fill="#06389E"/>
<path d="M85.7298 50.1545C86.9248 50.1545 87.8935 49.2544 87.8935 48.144C87.8935 47.0336 86.9248 46.1334 85.7298 46.1334C84.5349 46.1334 83.5662 47.0336 83.5662 48.144C83.5662 49.2544 84.5349 50.1545 85.7298 50.1545Z" fill="#5C92FE"/>
<path d="M88.8222 60.0509C90.0172 60.0509 90.9859 59.1508 90.9859 58.0403C90.9859 56.9299 90.0172 56.0298 88.8222 56.0298C87.6273 56.0298 86.6586 56.9299 86.6586 58.0403C86.6586 59.1508 87.6273 60.0509 88.8222 60.0509Z" fill="#3B77EF"/>
<path d="M64.3893 44.5856C65.5843 44.5856 66.5529 43.6854 66.5529 42.575C66.5529 41.4646 65.5843 40.5645 64.3893 40.5645C63.1944 40.5645 62.2256 41.4646 62.2256 42.575C62.2256 43.6854 63.1944 44.5856 64.3893 44.5856Z" fill="#3B77EF"/>
<path d="M78.2046 14.0257L74.7823 12.403C74.6828 12.3554 74.5732 12.3326 74.4629 12.3368C74.3527 12.3409 74.2451 12.3718 74.1495 12.4268L70.87 14.3285C70.7597 14.3938 70.6332 14.4267 70.5051 14.4233C70.3769 14.4199 70.2524 14.3804 70.1457 14.3093C70.0391 14.2382 69.9546 14.1384 69.9022 14.0214C69.8498 13.9044 69.8315 13.775 69.8494 13.6481L70.3359 9.88893C70.3496 9.77973 70.3367 9.66883 70.2982 9.56573C70.2597 9.46263 70.1967 9.37041 70.1148 9.29699L67.2945 6.76592C67.1993 6.68048 67.1301 6.56992 67.0949 6.44694C67.0597 6.32397 67.0598 6.19355 67.0954 6.07066C67.1309 5.94776 67.2003 5.83737 67.2957 5.75215C67.3911 5.66693 67.5086 5.61033 67.6347 5.58884L71.3599 4.90845C71.4668 4.8841 71.5663 4.83426 71.6498 4.76318C71.7333 4.6921 71.7984 4.60188 71.8396 4.50021L73.384 1.0234C73.4352 0.906758 73.518 0.80681 73.6232 0.734929C73.7283 0.663048 73.8515 0.622121 73.9788 0.616804C74.106 0.611487 74.2322 0.641994 74.343 0.704854C74.4538 0.767713 74.5447 0.860401 74.6054 0.972373L76.4186 4.2995C76.4727 4.39436 76.5489 4.4748 76.6407 4.53402C76.7325 4.59323 76.8372 4.62948 76.9459 4.63969L80.7187 5.03092C80.8446 5.04456 80.9641 5.09305 81.0639 5.17094C81.1637 5.24882 81.2398 5.35301 81.2837 5.47178C81.3275 5.59056 81.3373 5.7192 81.312 5.84325C81.2868 5.96731 81.2274 6.08184 81.1405 6.17398L78.538 8.92957C78.4625 9.00973 78.4076 9.10702 78.3779 9.21309C78.3483 9.31916 78.3449 9.43083 78.3679 9.53852L79.1606 13.2705C79.1866 13.3944 79.1775 13.523 79.1344 13.642C79.0913 13.7611 79.0158 13.8657 78.9165 13.9441C78.8172 14.0226 78.6979 14.0718 78.5722 14.0862C78.4464 14.1006 78.3191 14.0797 78.2046 14.0257Z" fill="#5C92FE"/>
<path d="M48.1211 54.0634H38.5241C38.3437 54.0634 38.1706 53.9917 38.043 53.8641C37.9154 53.7365 37.8438 53.5635 37.8438 53.383V45.3271H48.8015V53.383C48.8015 53.5635 48.7298 53.7365 48.6022 53.8641C48.4746 53.9917 48.3015 54.0634 48.1211 54.0634Z" fill="#3B77EF"/>
<path d="M37.8438 45.3271H48.8015V47.5486H37.8438V45.3271Z" fill="#2457BF"/>
<path d="M49.4683 43.8983H37.1736C36.7978 43.8983 36.4932 44.2029 36.4932 44.5787V45.7592C36.4932 46.135 36.7978 46.4396 37.1736 46.4396H49.4683C49.844 46.4396 50.1487 46.135 50.1487 45.7592V44.5787C50.1487 44.2029 49.844 43.8983 49.4683 43.8983Z" fill="#3B77EF"/>
<path d="M64.6955 93.2167H51.768C51.5875 93.2167 51.4145 93.145 51.2869 93.0174C51.1593 92.8898 51.0876 92.7167 51.0876 92.5363V81.8269H65.3758V92.5363C65.3758 92.7167 65.3042 92.8898 65.1766 93.0174C65.049 93.145 64.8759 93.2167 64.6955 93.2167Z" fill="#06389E"/>
<path d="M51.091 81.8269H65.3725V84.7254H51.091V81.8269Z" fill="#022D83"/>
<path d="M66.4543 79.9659H50.0125C49.6368 79.9659 49.3322 80.2706 49.3322 80.6463V82.5991C49.3322 82.9748 49.6368 83.2795 50.0125 83.2795H66.4543C66.83 83.2795 67.1347 82.9748 67.1347 82.5991V80.6463C67.1347 80.2706 66.83 79.9659 66.4543 79.9659Z" fill="#06389E"/>
<path d="M96.4494 93.2677H82.7973C82.6169 93.2677 82.4438 93.196 82.3162 93.0684C82.1886 92.9408 82.1169 92.7678 82.1169 92.5873V84.0824H97.1298V92.5873C97.1298 92.7678 97.0581 92.9408 96.9305 93.0684C96.8029 93.196 96.6299 93.2677 96.4494 93.2677Z" fill="#3B77EF"/>
<path d="M82.1169 84.0959H97.1298V86.4297H82.1169V84.0959Z" fill="#2457BF"/>
<path d="M98.3001 82.5957H80.9466C80.5709 82.5957 80.2662 82.9003 80.2662 83.2761V84.5825C80.2662 84.9582 80.5709 85.2628 80.9466 85.2628H98.3001C98.6758 85.2628 98.9805 84.9582 98.9805 84.5825V83.2761C98.9805 82.9003 98.6758 82.5957 98.3001 82.5957Z" fill="#3B77EF"/>
<path d="M94.4219 82.5413H84.8249C84.6445 82.5413 84.4714 82.4696 84.3438 82.342C84.2162 82.2144 84.1445 82.0413 84.1445 81.8609V73.8254H95.1023V81.8779C95.0978 82.0554 95.0242 82.2241 94.8971 82.348C94.7699 82.472 94.5994 82.5413 94.4219 82.5413Z" fill="#06389E"/>
<path d="M84.1445 73.8085H95.1023V76.03H84.1445V73.8085Z" fill="#022D83"/>
<path d="M95.769 72.3796H83.4743C83.0986 72.3796 82.7939 72.6843 82.7939 73.06V74.2405C82.7939 74.6163 83.0986 74.9209 83.4743 74.9209H95.769C96.1448 74.9209 96.4494 74.6163 96.4494 74.2405V73.06C96.4494 72.6843 96.1448 72.3796 95.769 72.3796Z" fill="#06389E"/>
<path d="M9.89321 48.4434H10.2334V52.7537H9.89321V48.4434ZM4.55212 52.7503H4.89232V57.0605H4.55212V52.7503ZM15.9827 52.7503H16.3229V57.0605H15.9827V52.7503ZM9.89321 57.0605H10.2334V61.3708H9.89321V57.0605Z" fill="#E2E6ED"/>
<path d="M0.0581055 57.1558C1.72847 57.0878 3.39884 57.0538 5.0692 57.0265C6.73957 56.9993 8.40993 57.0027 10.0803 56.9857C11.7507 56.9687 13.421 56.9857 15.0914 57.0265L17.5986 57.0742C18.4321 57.1014 19.269 57.1184 20.1025 57.1558C19.269 57.1966 18.4321 57.2136 17.5986 57.2409L15.0914 57.2885C13.421 57.3157 11.7507 57.3123 10.0803 57.3259C8.40993 57.3395 6.73957 57.3259 5.0692 57.2885C3.39884 57.2511 1.71146 57.2239 0.0581055 57.1558ZM0.0581055 52.8455C1.72847 52.7741 3.39884 52.7401 5.0692 52.7128C6.73957 52.6856 8.40993 52.689 10.0803 52.6754C11.7507 52.6618 13.421 52.6754 15.0914 52.7128L17.5986 52.7605C18.4321 52.7911 19.269 52.8047 20.1025 52.8455C19.269 52.8829 18.4321 52.9 17.5986 52.9272L15.0914 52.9748C13.421 53.002 11.7507 53.002 10.0803 53.0156C8.40993 53.0292 6.73957 53.0156 5.0692 52.9748C3.39884 52.934 1.71146 52.9136 0.0581055 52.8455ZM4.44324 61.3709C5.4094 61.2994 6.37896 61.2654 7.34512 61.2382C8.31128 61.211 9.28424 61.2042 10.2504 61.2008C11.2166 61.1974 12.1861 61.2008 13.1557 61.2382L14.6083 61.2858C15.0914 61.313 15.5745 61.33 16.0576 61.3709C15.5745 61.4083 15.0914 61.4253 14.6083 61.4525L13.1557 61.5001C12.1861 61.5307 11.22 61.5341 10.2504 61.5376C9.28084 61.541 8.31468 61.5376 7.34512 61.5001C6.37556 61.4627 5.4094 61.4389 4.44324 61.3709ZM4.25613 48.5352C5.22229 48.4638 6.19185 48.4332 7.15801 48.406C8.12417 48.3787 9.09373 48.3685 10.0633 48.3651C11.0329 48.3617 11.999 48.3651 12.9686 48.406L14.4178 48.4536C14.9043 48.4808 15.3874 48.4978 15.8704 48.5352C15.3874 48.5727 14.9043 48.5897 14.4178 48.6203L12.9686 48.6679C11.999 48.6985 11.0329 48.7019 10.0633 48.7053C9.09373 48.7087 8.12757 48.7053 7.15801 48.6645C6.18845 48.6237 5.22229 48.6067 4.25613 48.5352ZM109.911 69.5356H110.251V73.8459H109.911V69.5356ZM104.57 73.8425H104.91V78.1528H104.57V73.8425ZM116.001 73.8425H116.341V78.1528H116.001V73.8425ZM109.911 78.1528H110.251V82.4631H109.911V78.1528Z" fill="#E2E6ED"/>
<path d="M100.076 78.248C101.746 78.1799 103.417 78.1459 105.087 78.1187C106.757 78.0915 108.428 78.0949 110.098 78.0779C111.768 78.0609 113.439 78.0779 115.109 78.1187L117.616 78.1663C118.45 78.1935 119.287 78.2106 120.12 78.248C119.287 78.2888 118.45 78.3058 117.616 78.333L115.109 78.3807C113.439 78.4079 111.768 78.4045 110.098 78.4181C108.428 78.4317 106.757 78.4181 105.087 78.3807C103.417 78.3432 101.729 78.316 100.076 78.248ZM100.076 73.9377C101.746 73.8662 103.417 73.8322 105.087 73.805C106.757 73.7778 108.428 73.7812 110.098 73.7676C111.768 73.754 113.439 73.7676 115.109 73.805L117.616 73.8526C118.45 73.8833 119.287 73.8969 120.12 73.9377C119.287 73.9751 118.45 73.9921 117.616 74.0193L115.109 74.067C113.439 74.0942 111.768 74.0942 110.098 74.1078C108.428 74.1214 106.757 74.1078 105.087 74.067C103.417 74.0261 101.729 74.0057 100.076 73.9377ZM104.461 82.463C105.427 82.3916 106.397 82.3576 107.363 82.3303C108.329 82.3031 109.302 82.2963 110.268 82.2929C111.234 82.2895 112.204 82.2929 113.174 82.3303L114.626 82.378C115.109 82.4052 115.592 82.4222 116.075 82.463C115.592 82.5004 115.109 82.5174 114.626 82.5447L113.174 82.5923C112.204 82.6229 111.238 82.6263 110.268 82.6297C109.299 82.6331 108.333 82.6297 107.363 82.5923C106.393 82.5549 105.427 82.5311 104.461 82.463ZM104.274 69.6274C105.24 69.556 106.21 69.5253 107.176 69.4981C108.142 69.4709 109.112 69.4607 110.081 69.4573C111.051 69.4539 112.017 69.4573 112.986 69.4981L114.436 69.5457C114.922 69.573 115.405 69.59 115.888 69.6274C115.405 69.6648 114.922 69.6818 114.436 69.7124L112.986 69.7601C112.017 69.7907 111.051 69.7941 110.081 69.7975C109.112 69.8009 108.145 69.7975 107.176 69.7567C106.206 69.7158 105.24 69.6988 104.274 69.6274Z" fill="#E2E6ED"/>
<path d="M14.5206 96.804H167.609V97.1442H14.5206V96.804Z" fill="#132954"/>
<path d="M43.3243 43.9766C43.6884 43.1261 44.0047 42.1124 44.4538 41.0543C44.5593 40.7924 44.6681 40.5304 44.794 40.2685C44.8552 40.1324 44.8995 40.0235 44.9777 39.8637C45.0729 39.6894 45.2189 39.5482 45.3962 39.4588C45.5751 39.3704 45.7765 39.3377 45.9742 39.365C46.1719 39.3922 46.3569 39.4783 46.5052 39.6119C46.5868 39.6902 46.6209 39.7344 46.6651 39.782L46.7978 39.9317L47.0665 40.2311L47.587 40.8366L47.6517 40.9115C47.6823 40.9489 47.7129 40.9897 47.7401 41.0305C47.8213 41.1562 47.873 41.2986 47.8913 41.4471C47.9095 41.5956 47.8939 41.7462 47.8456 41.8878C47.7804 42.0732 47.6621 42.2353 47.5054 42.3539C47.3678 42.4399 47.2219 42.5117 47.0699 42.5682C46.808 42.6805 46.5426 42.7893 46.2773 42.8914C45.2022 43.3098 44.1816 43.6262 43.3243 43.9766ZM43.3243 43.9766C44.4028 43.4289 45.3145 42.8472 46.182 42.3675C46.3997 42.2416 46.6175 42.126 46.842 42.0273C46.9379 41.9839 47.0301 41.9327 47.1175 41.8742C47.1698 41.8281 47.2077 41.7679 47.2264 41.7007C47.2451 41.634 47.2451 41.5633 47.2264 41.4966C47.2178 41.464 47.204 41.433 47.1856 41.4047L47.1516 41.3639L47.0835 41.2891L46.5528 40.6937L46.0493 40.1154C46.0002 40.0679 45.9378 40.0364 45.8705 40.0249C45.8031 40.0133 45.7339 40.0224 45.6717 40.0508C45.6059 40.0772 45.55 40.1236 45.5118 40.1834C45.4676 40.2617 45.3995 40.3944 45.3451 40.4964C45.2295 40.7175 45.107 40.9353 44.9811 41.153C44.481 42.0035 43.8891 42.9118 43.3243 43.9766ZM43.3209 43.9766C42.7562 42.9118 42.1643 42.0035 41.6676 41.1394C41.5417 40.9217 41.4193 40.7039 41.3036 40.4828C41.2492 40.3808 41.1811 40.2481 41.1369 40.1698C41.1082 40.1268 41.0706 40.0905 41.0266 40.0633C40.9826 40.0361 40.9333 40.0187 40.882 40.0123C40.8307 40.0058 40.7786 40.0105 40.7292 40.0259C40.6799 40.0414 40.6344 40.0672 40.596 40.1018L40.0959 40.6801L39.5652 41.2755L39.4971 41.3503L39.4631 41.3911C39.4447 41.4194 39.4309 41.4504 39.4223 41.483C39.4036 41.5497 39.4036 41.6204 39.4223 41.6871C39.4411 41.7542 39.4789 41.8145 39.5312 41.8606C39.6186 41.9191 39.7108 41.9703 39.8067 42.0137C40.0312 42.126 40.249 42.2416 40.4667 42.3539C41.3308 42.8472 42.2425 43.4289 43.3209 43.9766ZM43.3209 43.9766C42.4637 43.6364 41.4431 43.2962 40.3783 42.8914C40.1129 42.7893 39.8475 42.6805 39.5856 42.5682C39.4336 42.5117 39.2877 42.4399 39.1501 42.3539C38.9934 42.2353 38.8751 42.0732 38.8099 41.8878C38.7616 41.7462 38.746 41.5956 38.7642 41.4471C38.7825 41.2986 38.8342 41.1562 38.9154 41.0305C38.9426 40.9897 38.9732 40.9489 39.0039 40.9115L39.0685 40.8366L39.589 40.2311L39.8577 39.9317L39.9904 39.782C40.0347 39.7344 40.0687 39.6902 40.1503 39.6119C40.2986 39.4783 40.4836 39.3922 40.6813 39.365C40.879 39.3377 41.0804 39.3704 41.2594 39.4588C41.4366 39.5482 41.5826 39.6894 41.6778 39.8637C41.756 40.0235 41.8003 40.1324 41.8615 40.2685C41.9806 40.5304 42.0894 40.7924 42.2017 41.0543C42.6235 42.1124 42.9569 43.1261 43.3209 43.9766ZM89.6251 72.3797C89.9891 71.5258 90.3259 70.5154 90.758 69.4574C90.8634 69.1954 90.9723 68.9301 91.0982 68.6715C91.1628 68.532 91.2036 68.4232 91.2853 68.2667C91.3782 68.0919 91.5233 67.9504 91.7003 67.8618C91.8788 67.7715 92.0806 67.7378 92.2788 67.7651C92.4769 67.7925 92.662 67.8796 92.8094 68.0149C92.8667 68.0688 92.9212 68.1255 92.9726 68.185L93.1053 68.3347L93.3707 68.6307L93.8946 69.2396L93.9592 69.3145C93.9902 69.351 94.0187 69.3896 94.0443 69.4301C94.0994 69.5137 94.1408 69.6056 94.1667 69.7023C94.2207 69.8934 94.215 70.0964 94.1506 70.2842C94.0862 70.472 93.966 70.6357 93.8061 70.7535C93.6705 70.8407 93.5256 70.9126 93.3741 70.9678C93.1121 71.0835 92.8468 71.189 92.5814 71.308C91.5064 71.7129 90.4824 72.0292 89.6251 72.3797ZM89.6251 72.3797C90.7035 71.8319 91.6153 71.2468 92.4828 70.7671C92.7039 70.6446 92.9216 70.5256 93.1427 70.4269C93.2387 70.3836 93.3308 70.3324 93.4183 70.2738C93.4721 70.2277 93.5102 70.1658 93.5272 70.0969C93.5442 70.03 93.5442 69.9598 93.5272 69.8928C93.5159 69.8617 93.501 69.832 93.4829 69.8044C93.4829 69.7874 93.4625 69.7806 93.4489 69.7601L93.3843 69.6887L92.8502 69.09L92.3501 68.5116C92.3003 68.464 92.2371 68.4327 92.1691 68.4217C92.1011 68.4108 92.0313 68.4208 91.9691 68.4504C91.9035 68.4758 91.8484 68.5225 91.8126 68.5831C91.7649 68.6579 91.6969 68.794 91.6425 68.896C91.5268 69.1172 91.4043 69.3315 91.2785 69.5492C90.7852 70.4031 90.1898 71.3114 89.6251 72.3797ZM89.6217 72.3797C89.0604 71.3114 88.465 70.4031 87.9684 69.539C87.8425 69.3213 87.72 69.107 87.6078 68.8858C87.5499 68.7838 87.4853 68.6477 87.4377 68.5729C87.4019 68.5123 87.3468 68.4656 87.2812 68.4402C87.2189 68.4106 87.1492 68.4006 87.0811 68.4115C87.0131 68.4225 86.95 68.4538 86.9001 68.5014L86.4 69.0797L85.8659 69.6785L85.7979 69.7499C85.7885 69.7652 85.7783 69.78 85.7673 69.7942C85.7479 69.8211 85.733 69.8509 85.7231 69.8826C85.702 69.9498 85.7011 70.0217 85.7205 70.0894C85.7398 70.1571 85.7786 70.2177 85.8319 70.2636C85.9189 70.3229 86.0112 70.3742 86.1075 70.4167C86.3286 70.5256 86.5463 70.6446 86.7641 70.7569C87.635 71.2468 88.5467 71.8319 89.6217 72.3797ZM89.6217 72.3797C88.7644 72.0395 87.7438 71.6993 86.679 71.291C86.4137 71.189 86.1483 71.0835 85.8864 70.9508C85.7334 70.9054 85.5862 70.8426 85.4475 70.7637C85.2903 70.6456 85.1719 70.4833 85.1073 70.2977C85.0446 70.1084 85.0387 69.905 85.0903 69.7125C85.1191 69.6169 85.1603 69.5254 85.2128 69.4404C85.24 69.3995 85.274 69.3587 85.3012 69.3247L85.3659 69.2498L85.8898 68.6409L86.1551 68.3449L86.2878 68.1952C86.3383 68.1349 86.3929 68.0781 86.4511 68.0251C86.5984 67.8898 86.7835 67.8027 86.9817 67.7753C87.1799 67.748 87.3816 67.7817 87.5601 67.872C87.7372 67.9606 87.8822 68.1021 87.9752 68.2769C88.0568 68.4334 88.0976 68.5422 88.1623 68.6817C88.2779 68.9403 88.3868 69.2056 88.5025 69.4676C88.9243 70.5154 89.2577 71.5258 89.6217 72.3797ZM58.2318 79.8912C58.7557 78.7107 59.2524 77.3703 59.8375 75.9857C59.9838 75.6455 60.1335 75.3053 60.29 74.9651C60.3716 74.7848 60.4328 74.625 60.5349 74.4378C60.6502 74.2228 60.8298 74.0491 61.0486 73.9412C61.2679 73.8318 61.5151 73.7912 61.7579 73.8246C62.0007 73.858 62.2277 73.9638 62.4094 74.1283C62.508 74.2235 62.5557 74.2848 62.6169 74.3528L62.7938 74.5501L63.151 74.9515L63.8552 75.7646L63.9403 75.8667C63.9803 75.9113 64.0167 75.9591 64.0491 76.0096C64.1167 76.1143 64.1673 76.2291 64.1988 76.3498C64.2665 76.5852 64.2605 76.8356 64.1818 77.0676C64.101 77.2985 63.9529 77.4999 63.7566 77.6459C63.5814 77.7561 63.3957 77.8484 63.202 77.9215C62.8618 78.0745 62.5216 78.2208 62.1644 78.3603C60.7764 78.9284 59.4225 79.3877 58.2318 79.8912ZM58.2318 79.8912C59.6402 79.1904 60.8819 78.4522 62.0828 77.8194C62.3822 77.6595 62.6815 77.4996 62.9877 77.3533C63.1254 77.2924 63.2574 77.2196 63.3824 77.1356C63.4729 77.0629 63.5393 76.9644 63.5729 76.8532C63.6034 76.7419 63.6034 76.6244 63.5729 76.513C63.5546 76.4607 63.5306 76.4105 63.5014 76.3634C63.4844 76.3361 63.4674 76.3191 63.447 76.2919L63.3585 76.1933L62.6543 75.3904L62.3141 74.9856L62.1372 74.7814C62.0794 74.7134 62.0148 74.6386 61.9841 74.6079C61.8991 74.5315 61.7937 74.4814 61.6807 74.4639C61.5678 74.4464 61.4521 74.4622 61.348 74.5093C61.2411 74.555 61.1517 74.6337 61.0928 74.7338C61.0248 74.8495 60.9397 75.0264 60.8649 75.1693C60.7084 75.472 60.5485 75.768 60.3818 76.0674C59.7116 77.2615 58.9564 78.4964 58.2318 79.8912ZM58.2318 79.8912C57.5106 78.4964 56.7587 77.2615 56.1055 76.0674C55.9388 75.768 55.7653 75.472 55.6225 75.1693C55.5442 75.0264 55.4592 74.8495 55.3945 74.7338C55.3344 74.6334 55.2438 74.5548 55.136 74.5093C55.0324 74.462 54.9173 74.4462 54.8048 74.4637C54.6923 74.4812 54.5875 74.5314 54.5032 74.6079C54.4692 74.6386 54.4046 74.7134 54.3467 74.7814L54.1698 74.9856L53.8296 75.3904L53.1084 76.2069L53.0166 76.3055C53.0166 76.3327 52.9791 76.3497 52.9655 76.377C52.9336 76.4226 52.9095 76.4731 52.8941 76.5267C52.8618 76.6377 52.8618 76.7558 52.8941 76.8668C52.9263 76.9778 52.9916 77.0763 53.0812 77.1492C53.2066 77.2324 53.3386 77.3052 53.4758 77.3669C53.782 77.5132 54.0814 77.6731 54.3841 77.833C55.5816 78.4522 56.8234 79.1904 58.2318 79.8912ZM58.2318 79.8912C57.0445 79.3877 55.6939 78.9182 54.2957 78.3433C53.9555 78.2038 53.6153 78.0575 53.2581 77.9044C53.0645 77.8314 52.8787 77.7391 52.7036 77.6289C52.5091 77.4818 52.3623 77.2807 52.2817 77.0506C52.2019 76.819 52.1947 76.5685 52.2613 76.3327C52.2929 76.2121 52.3434 76.0973 52.411 75.9925C52.445 75.9415 52.4858 75.8939 52.5199 75.8497L52.6083 75.7476L53.3091 74.9345L53.6663 74.5331L53.8432 74.3358C53.9045 74.2677 53.9555 74.2065 54.0508 74.1113C54.2324 73.9468 54.4595 73.8409 54.7022 73.8076C54.945 73.7742 55.1922 73.8148 55.4115 73.9241C55.631 74.0311 55.8109 74.2051 55.9252 74.4208C56.0307 74.6181 56.0885 74.761 56.1736 74.9481C56.3301 75.2883 56.4764 75.6285 56.6226 75.9687C57.2112 77.3703 57.7079 78.7107 58.2318 79.8912Z" fill="#417FFB"/>
<path opacity="0.31" d="M37.5085 74.2463L32.4896 71.8167L26.8256 78.5714L25.8746 77.2213L27.0583 68.1412L22.3697 54.0288L11.6248 57.8329L14.4867 65.0376L23.6843 87.1793L25.7127 92.196L25.9477 90.7396L28.1889 82.1937L31.3213 78.7155L36.9144 78.2854L28.0071 72.1204L37.5085 74.2463Z" fill="#0047AB"/>
<path d="M28.856 47.6754C32.1788 47.6754 34.8724 45.076 34.8724 41.8695C34.8724 38.663 32.1788 36.0636 28.856 36.0636C25.5332 36.0636 22.8395 38.663 22.8395 41.8695C22.8395 45.076 25.5332 47.6754 28.856 47.6754Z" fill="#0047AB"/>
<path d="M44.735 82.6504L41.0751 84.4882C40.011 82.4642 37.7542 81.123 35.1982 81.327C32.2077 81.5664 29.8224 83.9716 29.6983 86.8646C29.6517 87.9442 29.9089 88.9639 30.401 89.8462L30.1527 89.9704L28.1975 90.9502L25.7146 92.1961C24.4333 89.3031 23.3493 86.3991 22.4337 83.5327C22.2852 83.0738 22.1411 82.6105 22.0036 82.1516V82.1472C21.9017 81.8102 21.7997 81.4644 21.7221 81.1962C21.6445 80.9301 21.5913 80.7461 21.5913 80.7461C19.9486 75.0156 18.9444 69.5201 18.3414 64.6985L18.3459 64.7916C17.5434 59.5 17.5035 53.7385 17.5035 53.7385C17.4769 52.7808 17.4702 51.914 17.4702 51.1492C17.4702 50.6859 17.4702 50.258 17.4791 49.8723C17.5035 48.3383 17.5589 47.4316 17.5655 47.303V47.2875L20.7711 47.722L22.3894 47.9924C22.3783 48.1343 22.3716 48.2784 22.3716 48.4225C22.3716 51.6303 25.0651 54.2284 28.3859 54.2284C31.1569 54.2284 33.4868 52.4239 34.1851 49.9654L35.9143 50.2536L38.5523 50.7169V50.728C38.5456 50.8189 38.4747 52.1135 38.4836 54.1951C38.4836 54.1951 38.6365 60.0653 38.8848 62.3309C39.1974 65.5431 39.725 69.1011 40.6184 72.5793C40.6228 72.5904 40.625 72.5993 40.6272 72.6104C40.9642 73.9781 41.0108 74.0203 41.013 74.0203C41.9086 77.1172 43.1145 80.0966 44.7373 82.6482L44.735 82.6504Z" fill="#6495ED"/>
</g>
<path d="M148.99 80.09C144.443 80.5367 134.975 81.3087 129.93 80.1623C129.099 79.973 128.183 79.7263 127.731 79.001C127.386 78.4481 127.262 77.6632 127.254 77.0103C127.232 75.2535 127.177 73.7094 127.254 71.9632L127.418 66.3631C127.499 64.4851 127.663 62.6049 127.844 60.7248C128.097 58.047 128.381 55.3693 128.498 52.6958C128.532 51.9386 128.585 51.124 129.063 50.537C129.934 49.4608 131.621 49.7416 132.932 50.1818C138.22 51.9641 143.218 52.9935 147.501 56.5773L147.52 56.5858C148.679 63.613 148.639 69.3449 148.835 76.0191C148.875 77.3336 148.922 78.6841 148.99 80.09Z" fill="white"/>
<path d="M169.018 77.1421C168.566 77.8652 167.65 78.1119 166.819 78.3012C161.774 79.4476 154.08 79.3859 148.99 80.0899L148.737 76.0212L147.52 56.5858C147.514 56.5454 147.507 56.5028 147.501 56.4624C151.781 52.8786 158.529 50.1031 163.817 48.3228C165.128 47.8805 166.815 47.5997 167.686 48.6759C168.01 49.0736 168.138 49.5755 168.198 50.0924C168.225 50.3391 168.238 50.59 168.249 50.8347C168.447 55.3755 168.92 66.1758 169.171 71.8929C169.18 72.0907 169.188 72.2864 169.197 72.4842C169.206 72.6565 169.212 72.8287 169.22 73.001C169.227 73.1669 169.235 73.3328 169.242 73.4987C169.267 74.0772 169.293 74.6578 169.318 75.2385C169.346 75.8893 169.363 76.587 169.018 77.1421Z" fill="white"/>
<path d="M142.484 64.1942C142.503 64.1827 142.495 64.1681 142.475 64.1796C142.456 64.191 142.465 64.2057 142.484 64.1942ZM146.441 62.4767C146.562 62.408 146.534 62.3008 146.412 62.3703C146.291 62.4391 146.319 62.5461 146.441 62.4767ZM141.435 64.6346C141.588 64.5427 141.505 64.434 141.353 64.5256C141.2 64.6176 141.283 64.7261 141.435 64.6346ZM141.005 65.0552L141.08 65.4166C141.092 65.4756 141.102 65.536 141.117 65.5938C141.125 65.6263 141.139 65.6563 141.151 65.687C141.162 65.7143 141.171 65.7381 141.203 65.7517C141.241 65.7677 141.328 65.7297 141.354 65.6802C141.38 65.6293 141.372 65.5951 141.37 65.554C141.367 65.5214 141.365 65.4894 141.357 65.4591L141.318 65.2928L141.237 64.9533C141.229 64.9186 141.184 64.905 141.117 64.9345C141.058 64.9602 140.997 65.0198 141.005 65.0552ZM143.38 66.1369C143.424 66.1103 143.405 66.0751 143.361 66.1017C143.317 66.1283 143.335 66.1636 143.38 66.1369ZM141.57 67.534C141.891 67.4017 142.215 67.2758 142.538 67.1489C142.848 67.0272 143.161 66.9059 143.47 66.7609C143.561 66.7183 143.575 66.625 143.48 66.6554C143.162 66.7572 142.836 66.8893 142.515 67.0178C142.2 67.1441 141.884 67.2675 141.572 67.3987C141.434 67.4557 141.433 67.59 141.57 67.534ZM146.023 65.835C146.234 65.7151 146.183 65.5252 145.969 65.6471C145.758 65.7687 145.81 65.9595 146.023 65.835ZM144.551 65.0128C144.752 64.8952 144.642 64.7521 144.441 64.8695C144.24 64.9872 144.351 65.1301 144.551 65.0128ZM144.546 64.6971L144.542 64.5033L144.541 64.4396L144.541 64.4077C144.54 64.3756 144.522 64.3572 144.502 64.3358L144.519 64.3563C144.499 64.3299 144.482 64.3016 144.444 64.288C144.395 64.2702 144.297 64.3013 144.243 64.3646C144.218 64.3946 144.212 64.4003 144.195 64.4308L144.167 64.4833C144.157 64.5039 144.145 64.5255 144.139 64.5453C144.132 64.5666 144.136 64.5905 144.135 64.6108L144.132 64.6503L144.121 64.8412C144.119 64.8776 144.131 64.9067 144.169 64.9194C144.201 64.9304 144.258 64.9279 144.31 64.9087C144.366 64.8882 144.426 64.8561 144.469 64.815C144.508 64.7784 144.547 64.7298 144.546 64.6971ZM146.171 63.3139C146.379 63.1959 146.26 63.0532 146.053 63.1709C145.845 63.289 145.964 63.4314 146.171 63.3139ZM147.48 63.5656L147.763 63.5134L147.785 63.5055C147.797 63.5007 147.807 63.4947 147.817 63.4874C147.834 63.4758 147.85 63.4612 147.858 63.4475C147.873 63.4203 147.866 63.3973 147.836 63.3934L147.753 63.3833L147.774 63.3864C147.72 63.3793 147.665 63.3721 147.61 63.3648C147.581 63.3615 147.538 63.3753 147.502 63.3924C147.478 63.4047 147.456 63.4193 147.437 63.4361C147.421 63.4492 147.41 63.4624 147.403 63.4757C147.393 63.4895 147.387 63.5026 147.386 63.5148C147.384 63.527 147.387 63.5368 147.394 63.5444C147.398 63.5536 147.407 63.56 147.419 63.5635C147.436 63.569 147.456 63.5697 147.48 63.5656Z" fill="#D8D8D8"/>
<path d="M147.46 63.5298L147.889 63.6029L148.095 63.6383L148.198 63.656C148.251 63.6648 148.307 63.6628 148.37 63.6582C148.481 63.6501 148.594 63.5264 148.53 63.489C148.497 63.4697 148.463 63.4511 148.418 63.4429L148.314 63.4251L148.101 63.3884L147.68 63.3165C147.619 63.3061 147.525 63.3386 147.463 63.3983C147.406 63.4536 147.399 63.5195 147.46 63.5298ZM147.11 64.6203L148.047 64.5415C148.207 64.5295 148.363 64.5219 148.518 64.5167C148.6 64.514 148.681 64.5155 148.766 64.5066C148.859 64.497 148.969 64.4863 149.073 64.4471C149.136 64.4235 149.178 64.3547 149.139 64.34C149.079 64.3176 148.989 64.3275 148.907 64.331C148.823 64.3345 148.727 64.353 148.638 64.3657C148.474 64.3889 148.311 64.4132 148.151 64.431C147.816 64.4667 147.484 64.5063 147.151 64.5476C147.092 64.5548 147.052 64.6255 147.11 64.6203ZM150.474 64.2229C150.648 64.1295 150.599 63.9797 150.423 64.0742C150.249 64.1677 150.298 64.3173 150.474 64.2229ZM147.93 66.0139C148.106 65.9136 148.046 65.7646 147.868 65.8658C147.691 65.9662 147.752 66.115 147.93 66.0139ZM148.9 66.8993L148.362 67.2277C148.324 67.2508 148.284 67.2986 148.274 67.3256C148.262 67.3545 148.263 67.3784 148.277 67.397C148.306 67.4366 148.394 67.4346 148.482 67.3881C148.45 67.4049 148.491 67.3834 148.494 67.3817L148.525 67.3655L148.592 67.3299L148.721 67.2613L149.032 67.0974C149.156 67.0309 149.235 66.9261 149.195 66.8644C149.177 66.837 149.143 66.8251 149.091 66.8282C149.025 66.8318 148.968 66.859 148.9 66.8993ZM147.56 68.3383L147.61 68.3691L147.591 68.358L147.652 68.3986C147.665 68.4066 147.681 68.41 147.704 68.4075C147.724 68.4052 147.749 68.3984 147.771 68.3858C147.789 68.3758 147.805 68.3642 147.819 68.3513C147.838 68.3333 147.853 68.3071 147.853 68.2914L147.846 68.1683C147.845 68.1367 147.81 68.116 147.762 68.1209C147.724 68.1248 147.682 68.1378 147.641 68.162C147.604 68.1842 147.57 68.2155 147.552 68.2441C147.539 68.265 147.533 68.284 147.535 68.3012C147.536 68.3175 147.545 68.3298 147.56 68.3383Z" fill="#D8D8D8"/>
<path d="M147.665 68.2292L147.348 68.5438C147.322 68.5701 147.36 68.5804 147.387 68.5543L147.716 68.2402C147.75 68.2082 147.698 68.1966 147.665 68.2292ZM145.283 69.3461C145.45 69.2454 145.395 69.0977 145.225 69.1997C145.058 69.3006 145.113 69.448 145.283 69.3461ZM143.214 70.8161L143.627 70.9005L143.821 70.9406L143.922 70.9613L143.965 70.9701C144.003 70.9777 144.034 70.9746 144.085 70.9641C144.178 70.9454 144.3 70.832 144.261 70.7841C144.24 70.7595 144.223 70.744 144.181 70.7376L144.131 70.7318L144.024 70.7194L143.782 70.6928L143.367 70.6476C143.256 70.6361 143.11 70.795 143.214 70.8161ZM145.377 70.7512C145.605 70.6144 145.497 70.4322 145.268 70.5699C145.041 70.7069 145.149 70.8886 145.377 70.7512ZM148.247 69.619C148.317 69.5795 148.271 69.5327 148.202 69.5717C148.133 69.6118 148.179 69.6581 148.247 69.619ZM150.153 68.0845C150.175 68.0665 150.199 68.0478 150.222 68.0296L150.267 67.9923L150.244 68.0112L150.318 67.9524C150.346 67.9292 150.364 67.8985 150.351 67.882C150.346 67.8754 150.338 67.871 150.328 67.8687C150.312 67.8651 150.29 67.8706 150.269 67.8781L150.264 67.8798L150.285 67.8726L150.154 67.9177L150.185 67.9075L150.086 67.941C150.037 67.9579 149.983 67.9954 149.959 68.0309C149.94 68.0592 149.932 68.0861 149.942 68.1064C149.951 68.125 149.975 68.1367 150.006 68.1369C150.029 68.1369 150.054 68.1321 150.081 68.1225C150.106 68.1131 150.13 68.1004 150.153 68.0845Z" fill="#D8D8D8"/>
<path d="M150.333 67.9834L150.748 67.1299L150.95 66.7159C150.994 66.627 151.026 66.5413 151.061 66.4537C151.086 66.3928 151.089 66.3389 151.104 66.2802C151.124 66.2005 150.97 66.208 150.902 66.3038C150.866 66.3513 150.826 66.4019 150.79 66.449C150.761 66.4894 150.741 66.5312 150.718 66.5713C150.677 66.641 150.638 66.7097 150.604 66.7786L150.389 67.2109L149.97 68.06C149.934 68.1321 150.011 68.1714 150.103 68.1521C150.209 68.1298 150.298 68.0558 150.333 67.9834ZM151.134 65.5893L151.406 65.5766L151.516 65.5715C151.564 65.5692 151.614 65.562 151.665 65.5558C151.698 65.5517 151.737 65.5226 151.75 65.4997C151.765 65.4728 151.751 65.458 151.722 65.4553C151.681 65.4514 151.641 65.4474 151.597 65.4474L151.489 65.4473L151.25 65.4465C151.206 65.4464 151.141 65.4726 151.11 65.513C151.096 65.5315 151.087 65.5511 151.093 65.5649C151.098 65.5776 151.111 65.5905 151.134 65.5893Z" fill="#D8D8D8"/>
<path d="M151.383 65.5046L151.724 65.0075C151.779 64.9273 151.839 64.8461 151.89 64.766C151.913 64.7266 151.935 64.6884 151.958 64.6497C151.993 64.5899 152.026 64.5373 152.043 64.4808C152.067 64.4012 151.926 64.4086 151.841 64.4896C151.744 64.582 151.676 64.6797 151.603 64.7748C151.538 64.8601 151.483 64.9467 151.425 65.032L151.084 65.5289C151.042 65.5904 151.084 65.6426 151.163 65.6337C151.25 65.6237 151.338 65.5704 151.383 65.5046ZM152.009 63.6612L152.126 63.5658L152.102 63.5859L152.167 63.5343C152.197 63.5105 152.211 63.4836 152.203 63.4648C152.196 63.4472 152.167 63.4386 152.13 63.4491L152.045 63.4749L152.075 63.4662C152.02 63.4819 151.965 63.4992 151.909 63.518C151.881 63.5299 151.855 63.5451 151.831 63.5635C151.807 63.582 151.788 63.6014 151.775 63.6217C151.757 63.6526 151.751 63.6812 151.766 63.7015C151.779 63.72 151.809 63.7301 151.846 63.7277C151.872 63.7259 151.901 63.7188 151.93 63.7066C151.959 63.6947 151.985 63.6796 152.009 63.6612ZM152.312 63.2333C152.513 63.0495 152.605 62.8465 152.582 62.6937C152.56 62.5433 152.383 62.4109 152.109 62.4651C152.009 62.485 151.917 62.5918 151.994 62.6125C152.072 62.6336 152.139 62.6493 152.183 62.6859L152.199 62.7003C152.199 62.7003 152.217 62.72 152.208 62.7089C152.216 62.7199 152.224 62.7316 152.23 62.7438C152.243 62.7682 152.25 62.7954 152.255 62.8233C152.266 62.8771 152.258 62.9322 152.23 62.9979L152.217 63.0264C152.225 63.0105 152.22 63.0201 152.214 63.0306C152.203 63.0483 152.192 63.066 152.179 63.0839C152.155 63.1175 152.125 63.1489 152.09 63.1814C152.029 63.2384 152.031 63.2998 152.09 63.3136C152.152 63.3281 152.249 63.2903 152.312 63.2333ZM151.436 61.751C151.482 61.7272 151.465 61.6909 151.419 61.7148C151.374 61.7386 151.391 61.7748 151.436 61.751ZM148.474 61.534L148.449 61.5157L148.469 61.5307L148.383 61.4607C148.378 61.4529 148.369 61.448 148.356 61.446C148.345 61.4419 148.331 61.4411 148.314 61.4436L148.28 61.4507C148.263 61.4555 148.246 61.4628 148.229 61.4724C148.203 61.4867 148.175 61.5059 148.158 61.5261C148.136 61.5519 148.126 61.5757 148.128 61.5965L148.134 61.6348L148.132 61.6133L148.142 61.7133C148.145 61.7389 148.172 61.7525 148.205 61.7571C148.229 61.7594 148.256 61.756 148.287 61.7469C148.31 61.7406 148.333 61.7308 148.355 61.7177C148.377 61.7069 148.397 61.6937 148.415 61.6782C148.434 61.6631 148.449 61.6475 148.459 61.6316C148.473 61.615 148.481 61.5991 148.484 61.5839C148.488 61.5636 148.485 61.547 148.474 61.534ZM146.243 62.0913C146.393 62.0061 146.323 61.8947 146.173 61.9799C146.023 62.0653 146.093 62.1765 146.243 62.0913ZM148.73 61.0886L148.821 61.0594L148.789 61.0696L149.191 60.9429C149.232 60.9298 149.267 60.8917 149.27 60.8686C149.275 60.8414 149.247 60.832 149.208 60.8395C149.229 60.8355 149.199 60.841 149.195 60.8418L149.171 60.8465L149.116 60.8566L148.99 60.8799L148.777 60.9202C148.748 60.9258 148.705 60.9495 148.681 60.9681C148.655 60.9888 148.631 61.0178 148.626 61.0387C148.617 61.0803 148.658 61.1117 148.73 61.0886ZM151.175 60.5526C151.215 60.5479 151.254 60.5433 151.294 60.5387C151.328 60.5346 151.361 60.53 151.396 60.5237L151.362 60.5298L151.473 60.5116C151.496 60.5078 151.521 60.4977 151.543 60.4849C151.566 60.4722 151.588 60.4555 151.6 60.4387C151.61 60.425 151.616 60.4118 151.618 60.3996C151.621 60.3842 151.609 60.3665 151.591 60.3631L151.537 60.3534C151.51 60.3488 151.483 60.3455 151.455 60.3426L151.337 60.3318C151.318 60.3317 151.298 60.3354 151.276 60.3428C151.255 60.3477 151.235 60.3559 151.214 60.3673C151.194 60.3777 151.176 60.3898 151.16 60.4036C151.143 60.4166 151.129 60.4305 151.119 60.4453C151.099 60.4742 151.089 60.5041 151.103 60.5234L151.118 60.5397C151.132 60.5487 151.151 60.553 151.175 60.5526ZM144.825 61.0581C145.249 61.0291 145.669 60.9956 146.094 60.9726C146.144 60.9696 146.185 60.9076 146.135 60.9097C145.716 60.9261 145.301 60.9512 144.883 60.9738C144.809 60.9779 144.75 61.0635 144.825 61.0581ZM142.656 62.6947C142.715 62.6601 142.684 62.6183 142.625 62.6527C142.566 62.6873 142.597 62.7291 142.656 62.6947ZM139.818 64.1156L139.892 64.1855L139.876 64.1702L139.94 64.2347C139.954 64.2494 139.975 64.2596 139.996 64.2691C140.024 64.2815 140.073 64.2786 140.124 64.2475C140.172 64.2176 140.207 64.177 140.207 64.145C140.208 64.1249 140.21 64.1032 140.205 64.0852L140.195 64.0541L140.175 63.9937L140.182 64.0153L140.151 63.9127C140.134 63.8567 140.027 63.8622 139.927 63.9228C139.826 63.9835 139.777 64.0743 139.818 64.1156ZM143.726 62.2672C143.921 62.1532 143.832 62.0068 143.636 62.1212C143.441 62.2354 143.531 62.3816 143.726 62.2672Z" fill="#D8D8D8"/>
<path d="M143.882 62.0868C143.902 62.0757 143.893 62.0609 143.874 62.0721C143.854 62.0832 143.863 62.0979 143.882 62.0868ZM145.437 60.3802C145.748 60.2846 146.06 60.1925 146.372 60.0851C146.487 60.0456 146.516 59.9454 146.406 59.9682C146.114 60.0287 145.818 60.1003 145.522 60.1692C145.443 60.1877 145.348 60.2517 145.329 60.3091C145.312 60.3597 145.351 60.4073 145.437 60.3802ZM149.447 58.9508C149.6 58.8686 149.532 58.7556 149.379 58.8377C149.226 58.9199 149.294 59.0328 149.447 58.9508ZM151.997 58.9032C152.206 58.7957 152.103 58.6464 151.894 58.7544C151.685 58.8631 151.788 59.0115 151.997 58.9032ZM152.796 59.8342L152.916 59.8495L152.885 59.8456C152.971 59.8578 153.056 59.8718 153.148 59.8782C153.182 59.8806 153.235 59.8644 153.269 59.8356C153.302 59.8087 153.323 59.7712 153.303 59.755C153.26 59.7217 153.211 59.693 153.161 59.6651L153.18 59.6766L153.05 59.5999C153.025 59.5858 152.978 59.5901 152.933 59.601C152.879 59.6144 152.823 59.6473 152.784 59.6829C152.706 59.7548 152.715 59.8227 152.796 59.8342ZM155.081 60.0722C155.254 59.9862 155.219 59.8361 155.043 59.9224C154.87 60.0098 154.906 60.1606 155.081 60.0722ZM154.92 60.4334L155.016 60.8953L155.064 61.1263C155.079 61.1988 155.086 61.2959 155.161 61.3358C155.189 61.3508 155.259 61.3158 155.274 61.2844C155.317 61.194 155.282 61.109 155.265 61.038L155.211 60.8121L155.104 60.3599C155.088 60.2964 154.907 60.3685 154.92 60.4334ZM156.493 61.7223L156.784 61.7496C156.884 61.7592 156.981 61.7732 157.09 61.7704C157.128 61.7694 157.189 61.7355 157.211 61.7076C157.238 61.6749 157.236 61.6476 157.209 61.6341C157.235 61.6471 157.188 61.6237 157.18 61.6203C157.172 61.6166 157.164 61.6135 157.154 61.6107L157.097 61.5931L156.968 61.5519L156.743 61.4813C156.67 61.458 156.546 61.4957 156.469 61.5701C156.394 61.6425 156.405 61.714 156.493 61.7223ZM156.049 64.9222C156.174 64.8594 156.144 64.7501 156.018 64.8134C155.894 64.8762 155.924 64.9855 156.049 64.9222ZM155.213 66.4353L155.603 66.7242C155.675 66.7771 155.872 66.6378 155.801 66.585L155.411 66.2959C155.339 66.243 155.142 66.3826 155.213 66.4353ZM153.423 67.8937L153.397 67.9097L153.385 67.9173C153.378 67.9221 153.374 67.9249 153.366 67.9315C153.354 67.9393 153.344 67.9479 153.337 67.9572L153.315 67.9795L153.338 67.9599L153.258 68.0229C153.23 68.0458 153.212 68.0759 153.225 68.0927C153.229 68.0993 153.237 68.1039 153.247 68.1064C153.263 68.1103 153.285 68.1051 153.306 68.098L153.378 68.075L153.35 68.0825L153.413 68.0677L153.379 68.0748C153.388 68.073 153.396 68.0715 153.407 68.0695C153.427 68.065 153.427 68.0651 153.447 68.057L153.485 68.0411L153.525 68.0223C153.562 68.0053 153.594 67.9764 153.614 67.9507C153.628 67.9316 153.636 67.9137 153.637 67.897C153.638 67.8847 153.634 67.8747 153.626 67.8671C153.621 67.8578 153.611 67.8515 153.598 67.848C153.585 67.8434 153.57 67.8425 153.551 67.8452C153.534 67.8455 153.516 67.8494 153.495 67.8568C153.47 67.8658 153.446 67.8781 153.423 67.8937ZM154.864 69.1083C155.111 68.9763 154.967 68.7966 154.721 68.9284C154.474 69.0608 154.619 69.24 154.864 69.1083ZM154.637 64.0495C154.83 63.9499 154.748 63.799 154.554 63.8991C154.361 63.9996 154.443 64.1501 154.637 64.0495ZM157.437 63.5242L157.555 63.4986L157.506 63.5092C157.709 63.467 157.912 63.4249 158.118 63.3823C158.171 63.3703 158.222 63.345 158.248 63.305C158.27 63.2713 158.26 63.2344 158.212 63.2355C158.025 63.2396 157.833 63.2483 157.641 63.2587L157.683 63.2573L157.587 63.2605C157.483 63.2642 157.356 63.328 157.309 63.4105C157.267 63.4856 157.32 63.5488 157.437 63.5242ZM154.691 63.1749C154.94 63.0492 154.822 62.8632 154.572 62.9892C154.323 63.1151 154.441 63.3007 154.691 63.1749ZM158.459 62.9888C158.677 62.9141 158.896 62.8452 159.115 62.7635C159.219 62.7241 159.226 62.6345 159.126 62.6538C158.914 62.6938 158.696 62.7528 158.482 62.8093C158.406 62.8288 158.328 62.8964 158.326 62.9418C158.324 62.9862 158.378 63.0166 158.459 62.9888ZM157.703 60.8094C157.955 60.6865 157.841 60.4982 157.588 60.6214C157.336 60.7448 157.451 60.9327 157.703 60.8094ZM157.659 60.2896C157.764 60.0747 157.771 59.8675 157.654 59.7275C157.593 59.6534 157.498 59.5974 157.387 59.5572C157.258 59.5101 157.077 59.5185 156.891 59.5449C156.761 59.5635 156.699 59.6872 156.795 59.6984C156.919 59.7131 157.015 59.7649 157.098 59.8148C157.166 59.8563 157.212 59.9093 157.244 59.9723C157.258 59.9996 157.271 60.0272 157.279 60.0573C157.283 60.0732 157.286 60.0896 157.289 60.1063L157.291 60.1318C157.29 60.1188 157.29 60.1203 157.29 60.1363C157.287 60.1726 157.285 60.2083 157.275 60.2465C157.274 60.2515 157.257 60.3048 157.266 60.2811C157.258 60.3008 157.249 60.3208 157.239 60.3409C157.201 60.4216 157.253 60.4799 157.369 60.4657C157.48 60.4523 157.62 60.3701 157.659 60.2896ZM154.855 58.5135C155.173 58.3583 155.003 58.1408 154.687 58.2953C154.369 58.4508 154.54 58.6676 154.855 58.5135ZM152.354 58.1321C152.373 58.1221 152.366 58.1069 152.346 58.117C152.326 58.1271 152.334 58.1422 152.354 58.1321ZM145.908 59.6316L145.71 59.7452C145.694 59.7548 145.68 59.7698 145.685 59.7788C145.689 59.7873 145.706 59.7879 145.725 59.7783L145.929 59.67C145.95 59.6589 145.965 59.6385 145.958 59.629C145.951 59.6194 145.93 59.619 145.908 59.6316ZM143.103 61.1945L142.929 61.3023L142.946 61.2919L142.896 61.323C142.881 61.3319 142.866 61.3501 142.862 61.3604C142.857 61.3706 142.857 61.3789 142.862 61.3855C142.872 61.3996 142.904 61.3992 142.937 61.3813L143.143 61.2682C143.182 61.2464 143.21 61.2067 143.197 61.1883C143.191 61.1792 143.179 61.1729 143.16 61.175C143.143 61.1767 143.122 61.1827 143.103 61.1945ZM139.579 63.8158C139.753 63.7086 139.697 63.5609 139.521 63.6694C139.347 63.7769 139.404 63.9244 139.579 63.8158ZM136.856 66.6774L137.477 66.7378C137.576 66.7477 137.683 66.7456 137.787 66.7495C137.898 66.7555 138.007 66.7615 138.117 66.7675C138.195 66.7719 138.313 66.6509 138.244 66.6332C138.152 66.6104 138.059 66.5873 137.967 66.5646C137.872 66.5395 137.785 66.5079 137.683 66.4892C137.494 66.4532 137.305 66.4174 137.116 66.3814C137.041 66.3676 136.908 66.4357 136.84 66.5125C136.771 66.5915 136.776 66.6698 136.856 66.6774ZM140.788 67.2245L141.641 67.0891L142.062 67.0261C142.208 67.0048 142.351 66.9946 142.509 66.9393C142.576 66.9161 142.642 66.8391 142.579 66.8312C142.517 66.8234 142.465 66.8225 142.39 66.8325L142.185 66.8598L141.749 66.9183L140.891 67.0424C140.748 67.0634 140.644 67.2475 140.788 67.2245Z" fill="#D8D8D8"/>
<path d="M140.733 67.0775L139.871 67.8081L139.451 68.1698C139.298 68.3027 139.068 68.4762 139.004 68.6174C138.971 68.6904 139.065 68.7093 139.153 68.669C139.044 68.7189 139.244 68.6201 139.257 68.6125C139.299 68.5861 139.333 68.5558 139.37 68.5251L139.605 68.3259L140.044 67.9499L140.946 67.1895C141.152 67.0152 140.941 66.902 140.733 67.0775ZM142.049 68.4171C142.277 68.3644 142.505 68.3118 142.734 68.259C142.968 68.2055 143.213 68.1296 143.451 68.0645C143.535 68.0415 143.587 67.9376 143.502 67.9516L143.159 68.0093C143.038 68.0301 142.919 68.046 142.794 68.0738L142.143 68.2226C142.075 68.2386 142 68.2869 141.973 68.3423C141.949 68.3919 141.981 68.4332 142.049 68.4171ZM144.089 67.7493L143.895 67.8684C143.872 67.8823 143.884 67.9021 143.908 67.8884L144.099 67.7759C144.112 67.7683 144.121 67.757 144.118 67.7495C144.116 67.743 144.102 67.7414 144.089 67.7493ZM140.555 69.3648L141.133 69.1408L141.402 69.0366C141.467 69.0113 141.533 68.9813 141.598 68.9527C141.662 68.9247 141.726 68.8948 141.752 68.8397C141.78 68.7782 141.726 68.7666 141.656 68.785C141.609 68.7987 141.56 68.8133 141.512 68.8275C141.418 68.8562 141.322 68.8929 141.227 68.9268L140.613 69.1463C140.531 69.1747 140.443 69.2414 140.431 69.3029C140.421 69.3548 140.468 69.3995 140.555 69.3648ZM146.668 66.8724C146.872 66.7567 146.752 66.6143 146.549 66.7298C146.347 66.848 146.466 66.9892 146.668 66.8724ZM147.242 66.6395L147.743 66.4742C147.938 66.41 148.139 66.3509 148.334 66.2557C148.442 66.2025 148.435 66.1142 148.345 66.1279C148.166 66.1548 147.965 66.2271 147.776 66.2876L147.246 66.457C147.167 66.4823 147.098 66.5586 147.097 66.6044C147.096 66.6571 147.163 66.6656 147.242 66.6395ZM142.895 69.6343C143.027 69.6396 143.16 69.645 143.292 69.6503L143.253 69.6488C143.325 69.6517 143.391 69.6627 143.477 69.6451C143.513 69.6379 143.544 69.6294 143.581 69.6084C143.614 69.5903 143.647 69.5662 143.667 69.5406C143.711 69.4859 143.715 69.4371 143.674 69.415C143.697 69.4275 143.661 69.4076 143.657 69.4056C143.641 69.3977 143.627 69.3899 143.606 69.3866L143.547 69.3769L143.432 69.3585L143.193 69.3221L143.233 69.3287L143.168 69.3179C143.125 69.3106 143.083 69.313 143.025 69.3333C142.959 69.3565 142.894 69.4043 142.852 69.4531C142.768 69.5513 142.793 69.6296 142.895 69.6343ZM138.242 72.1988C138.448 72.0639 138.376 71.8784 138.167 72.0153C137.96 72.1505 138.032 72.3355 138.242 72.1988ZM136.328 72.9093C136.487 72.8024 136.433 72.6576 136.271 72.766C136.112 72.873 136.167 73.0175 136.328 72.9093ZM133.354 73.2584C133.401 73.2262 133.376 73.1903 133.329 73.2224C133.282 73.2546 133.308 73.2905 133.354 73.2584ZM133.304 73.0842C133.449 72.9397 133.476 72.8001 133.425 72.7114C133.405 72.6755 133.363 72.6435 133.306 72.6401C133.213 72.6347 133.107 72.6632 132.99 72.7313C132.946 72.7574 132.911 72.811 132.915 72.8374C132.92 72.8665 132.952 72.8795 133.001 72.8635L133.017 72.8584C133.023 72.8564 133.028 72.8577 133.021 72.8572C133.011 72.8566 133.022 72.8573 133.027 72.8565L133.038 72.8546C133.042 72.8541 133.062 72.8517 133.041 72.8541C133.02 72.8563 133.038 72.8547 133.042 72.8547L133.057 72.8549C133.062 72.8551 133.077 72.8562 133.059 72.8548C133.04 72.8532 133.063 72.8564 133.068 72.8577C133.073 72.8589 133.094 72.8661 133.078 72.8603C133.061 72.8545 133.08 72.8632 133.084 72.8655L133.101 72.876L133.115 72.8839L133.121 72.8879C133.129 72.8936 133.103 72.8721 133.112 72.8815C133.119 72.8889 133.126 72.8963 133.131 72.9049L133.135 72.9123C133.14 72.9191 133.126 72.8884 133.13 72.9022L133.135 72.9172C133.138 72.928 133.139 72.9397 133.139 72.9518L133.139 72.9242C133.138 72.9409 133.135 72.9584 133.129 72.977L133.14 72.945C133.137 72.9549 133.133 72.965 133.128 72.9753L133.118 72.993C133.14 72.9514 133.134 72.9675 133.126 72.98L133.114 72.9958C133.11 73.0017 133.091 73.024 133.113 72.9976C133.136 72.9712 133.116 72.9935 133.111 72.9993L133.092 73.0175C133.022 73.0829 133.016 73.1639 133.072 73.1781C133.134 73.1934 133.232 73.1549 133.304 73.0842ZM131.541 71.0656C131.717 70.9443 131.634 70.8026 131.457 70.9249C131.281 71.0464 131.364 71.1878 131.541 71.0656ZM131.949 70.4359L132.814 69.6976C132.837 69.6776 132.819 69.6621 132.795 69.6821L131.916 70.4163C131.88 70.446 131.913 70.4661 131.949 70.4359ZM133.397 68.6392L134.024 68.7508C134.053 68.756 134.096 68.7069 134.068 68.7007L133.463 68.5678C133.418 68.5578 133.349 68.6307 133.397 68.6392ZM135.775 70.1021L135.694 70.1681L135.738 70.1318L135.498 70.3238L135.533 70.295C135.511 70.3135 135.487 70.3324 135.465 70.3506C135.452 70.3624 135.434 70.3802 135.426 70.3879L135.403 70.417L135.389 70.4464C135.38 70.4698 135.384 70.4888 135.396 70.5019C135.417 70.5255 135.469 70.5258 135.526 70.499C135.495 70.5136 135.489 70.5166 135.507 70.5079L135.526 70.499L135.556 70.4854L135.614 70.454L135.772 70.3653L135.724 70.3915L135.897 70.2963C135.951 70.2659 135.996 70.2244 136.029 70.182C136.068 70.1316 136.074 70.0852 136.055 70.0553C136.039 70.0284 136.006 70.0179 135.956 70.0231C135.901 70.0287 135.831 70.0566 135.775 70.1021Z" fill="#D8D8D8"/>
<path d="M135.724 70.2812L136.145 70.6811C136.28 70.8101 136.4 70.9551 136.568 71.0586C136.6 71.0784 136.702 71.0181 136.679 70.9836C136.578 70.8266 136.422 70.7041 136.285 70.5714L135.876 70.1753C135.833 70.1337 135.681 70.2398 135.724 70.2812ZM142.751 69.3546C142.993 69.2048 142.849 69.0318 142.607 69.1816C142.364 69.3317 142.509 69.5041 142.751 69.3546ZM142.95 71.132L143.812 71.0656C144.088 71.0435 144.361 71.0317 144.654 70.9883C144.794 70.9675 144.881 70.8159 144.757 70.8153C144.68 70.815 144.608 70.8087 144.527 70.8143L144.322 70.8299L143.913 70.8627L143.041 70.9392C142.979 70.9447 142.897 71.0094 142.874 71.0572C142.847 71.1147 142.888 71.1369 142.95 71.132ZM145.765 72.0025L145.904 72.026C145.964 72.0357 146.026 72.0417 146.089 72.0485C146.124 72.0523 146.176 72.026 146.206 71.9943C146.237 71.9608 146.239 71.9284 146.212 71.9161C146.168 71.896 146.124 71.8759 146.077 71.8582L145.94 71.8077C145.89 71.7891 145.795 71.828 145.743 71.8857C145.718 71.9132 145.707 71.938 145.709 71.9607C145.709 71.9718 145.713 71.9807 145.721 71.9873C145.731 71.9966 145.746 72.0016 145.765 72.0025ZM147.768 71.9144L148.692 71.5715L149.145 71.4036C149.306 71.343 149.492 71.2842 149.645 71.1914C149.757 71.1238 149.796 70.9949 149.672 71.0078C149.508 71.0248 149.313 71.1026 149.135 71.1654C148.981 71.2233 148.825 71.2818 148.671 71.3399L147.759 71.684C147.521 71.7736 147.532 72.0019 147.768 71.9144ZM151.158 70.8389C151.333 70.7396 151.264 70.5911 151.088 70.691C150.912 70.7907 150.982 70.9391 151.158 70.8389ZM154.016 70.251C154.128 70.1908 154.059 70.1108 153.948 70.1705C153.835 70.2308 153.905 70.3106 154.016 70.251ZM157.441 68.5703C157.538 68.5216 157.496 68.4444 157.399 68.493C157.303 68.5417 157.345 68.6188 157.441 68.5703ZM158.851 65.2392C159.165 65.0854 159.091 64.8074 158.774 64.9627C158.459 65.1168 158.534 65.3941 158.851 65.2392ZM162.037 63.3592C162.118 63.322 162.099 63.2518 162.018 63.2892C161.937 63.3264 161.956 63.3966 162.037 63.3592ZM162.616 58.8221C162.966 58.6669 162.844 58.3938 162.494 58.5491C162.143 58.7047 162.267 58.9771 162.616 58.8221ZM159.506 59.458C159.756 59.3414 159.656 59.1499 159.405 59.2673C159.155 59.3857 159.256 59.5765 159.506 59.458ZM159.949 61.605L160.378 61.4704L160.321 61.4886C160.377 61.4705 160.428 61.4538 160.483 61.4359L160.513 61.4252C160.564 61.407 160.597 61.3903 160.647 61.3647C160.712 61.3309 160.756 61.2777 160.758 61.238C160.762 61.1955 160.723 61.1739 160.661 61.1737C160.635 61.1737 160.609 61.1729 160.581 61.1768C160.556 61.1803 160.521 61.1884 160.498 61.1928C160.471 61.1985 160.445 61.2042 160.417 61.21L160.269 61.2474L159.965 61.3251C159.908 61.3398 159.835 61.3841 159.795 61.4198C159.755 61.4562 159.723 61.5049 159.723 61.5383C159.725 61.6125 159.819 61.6456 159.949 61.605ZM160.436 61.5031C160.731 61.4489 161.026 61.4046 161.325 61.341C161.375 61.3305 161.398 61.2808 161.347 61.2887C161.055 61.3344 160.755 61.3959 160.458 61.4548C160.413 61.4641 160.39 61.5117 160.436 61.5031ZM152.058 57.7776L152.121 57.8653C152.128 57.8747 152.138 57.8811 152.157 57.8809C152.173 57.8807 152.197 57.8748 152.216 57.865C152.259 57.8425 152.282 57.8114 152.275 57.7891L152.249 57.7139L152.253 57.7255L152.241 57.6903C152.24 57.6812 152.235 57.6744 152.226 57.6697L152.209 57.6648C152.188 57.6609 152.157 57.6688 152.129 57.682C152.074 57.7083 152.041 57.753 152.058 57.7776ZM152.55 57.1925L152.679 56.9327C152.701 56.889 152.726 56.844 152.742 56.8014C152.752 56.7756 152.764 56.748 152.769 56.7235C152.779 56.669 152.757 56.6146 152.652 56.647C152.613 56.6591 152.575 56.68 152.547 56.7068C152.531 56.7225 152.52 56.7379 152.515 56.7531C152.533 56.724 152.534 56.7191 152.517 56.7383C152.497 56.7602 152.482 56.777 152.468 56.7995L152.446 56.8359C152.411 56.8907 152.387 56.9442 152.36 56.9979L152.229 57.2618C152.2 57.3194 152.266 57.3544 152.349 57.3344C152.443 57.3115 152.519 57.2543 152.55 57.1925ZM146.317 58.5221C146.537 58.4006 146.492 58.2083 146.269 58.3318C146.048 58.4535 146.094 58.6455 146.317 58.5221ZM143.08 59.8257C143.299 59.7011 143.251 59.51 143.028 59.6366C142.808 59.7614 142.858 59.9521 143.08 59.8257ZM140.056 61.0198C140.157 60.9591 140.11 60.8849 140.009 60.9456C139.908 61.0063 139.955 61.0804 140.056 61.0198ZM150.64 57.2829C150.711 57.2463 150.672 57.1993 150.602 57.2357C150.532 57.2723 150.571 57.3192 150.64 57.2829ZM156.629 55.461C156.748 55.4045 156.689 55.3226 156.571 55.3786C156.452 55.4351 156.511 55.5169 156.629 55.461ZM158.636 56.1699L158.824 56.119L158.778 56.1314L158.969 56.0813C159.016 56.0691 159.062 56.054 159.108 56.0375C159.16 56.019 159.214 55.9847 159.228 55.9493C159.241 55.9166 159.224 55.8881 159.177 55.8884L159.107 55.8894C159.076 55.8901 159.043 55.8948 159.01 55.8985L158.876 55.9142L158.918 55.9099L158.723 55.9306C158.615 55.9427 158.494 56.0204 158.468 56.092C158.442 56.1648 158.52 56.2005 158.636 56.1699ZM153.936 57.5082L154.553 57.5112C154.778 57.5124 155.001 57.5297 155.255 57.4861C155.368 57.4667 155.458 57.3503 155.376 57.3301C155.197 57.2855 154.955 57.3022 154.734 57.3032L154.111 57.3064C154.042 57.3068 153.951 57.3426 153.901 57.4001C153.856 57.4519 153.867 57.5079 153.936 57.5082ZM160.241 57.3546C160.386 57.2878 160.341 57.1726 160.195 57.2396C160.049 57.3064 160.095 57.4214 160.241 57.3546ZM135.313 65.3407L135.382 65.3053L135.324 65.3353L135.633 65.1827L135.735 65.1322L135.879 65.0614C135.92 65.0379 135.963 65.0136 136.003 64.9902C136.065 64.9555 136.117 64.8885 136.114 64.8514C136.111 64.8126 136.069 64.7923 136.003 64.8115C135.94 64.83 135.877 64.8486 135.812 64.8735L135.657 64.9331L135.708 64.9139L135.33 65.0561C135.215 65.1011 135.1 65.2222 135.101 65.2937C135.101 65.3299 135.118 65.3604 135.161 65.3668C135.2 65.3725 135.257 65.3692 135.313 65.3407ZM137.131 64.2116C137.413 64.0329 137.292 63.8125 137.008 63.9922C136.726 64.1716 136.849 64.3913 137.131 64.2116ZM135.639 63.5695C135.657 63.5581 135.646 63.5465 135.628 63.5579C135.61 63.5693 135.621 63.5809 135.639 63.5695ZM133.248 65.3957C133.544 65.2028 133.376 64.9983 133.081 65.1911C132.785 65.3845 132.954 65.5882 133.248 65.3957ZM136.062 68.4079C136.224 68.3024 136.111 68.2009 135.951 68.3055C135.789 68.4111 135.902 68.5123 136.062 68.4079ZM138.192 69.2582C138.313 69.1812 138.273 69.0753 138.15 69.153C138.029 69.2301 138.07 69.3359 138.192 69.2582ZM140.056 71.9295C140.306 71.8845 140.559 71.8393 140.812 71.7939C140.852 71.7862 140.898 71.7565 140.919 71.7229C140.939 71.6911 140.932 71.6608 140.896 71.6605C140.666 71.6621 140.432 71.6636 140.2 71.6652C140.112 71.6662 139.992 71.7432 139.95 71.8211C139.904 71.9051 139.959 71.9462 140.056 71.9295ZM142.037 73.7189L142.889 73.3942C143.001 73.3517 143.028 73.2248 142.918 73.2541C142.643 73.328 142.366 73.4022 142.091 73.476C141.991 73.5026 141.89 73.5815 141.873 73.658C141.856 73.7331 141.933 73.7583 142.037 73.7189ZM146.629 73.6779C147.163 73.3564 146.925 72.9084 146.387 73.2324C145.85 73.5552 146.092 74.0006 146.629 73.6779ZM156.607 69.3106C156.818 69.2012 156.764 69.0099 156.55 69.121C156.34 69.2306 156.394 69.4215 156.607 69.3106ZM159.352 67.4753L159.475 67.3835L159.418 67.4261L159.71 67.2138L159.846 67.1129C159.874 67.0924 159.904 67.071 159.932 67.0506C159.966 67.0243 159.996 66.9948 160.027 66.9669C160.054 66.9427 160.082 66.918 160.096 66.892C160.119 66.8504 160.109 66.8115 160.071 66.7951C160.028 66.776 159.954 66.7874 159.888 66.8213C159.866 66.8337 159.86 66.8368 159.869 66.8304C159.874 66.8266 159.872 66.8276 159.862 66.8332C159.849 66.8393 159.835 66.846 159.823 66.8522C159.706 66.9097 159.599 66.977 159.489 67.0437L159.545 67.0105L159.087 67.2839C159.029 67.3195 158.98 67.3813 158.964 67.4229C158.947 67.4666 158.955 67.5143 158.99 67.5364C159.063 67.5814 159.23 67.5667 159.352 67.4753ZM164.189 63.4075C164.374 63.3254 164.319 63.1711 164.132 63.2538C163.947 63.336 164.003 63.4901 164.189 63.4075ZM162.662 62.1215C162.803 62.0568 162.757 61.9417 162.616 62.0065C162.475 62.0713 162.52 62.1864 162.662 62.1215ZM161.515 64.7627C161.708 64.6716 161.631 64.5181 161.438 64.6095C161.246 64.7008 161.323 64.8541 161.515 64.7627ZM164.589 61.1534C165.018 60.9629 164.903 60.6042 164.471 60.7961C164.04 60.9872 164.158 61.3448 164.589 61.1534ZM163.737 59.2172C163.912 59.1399 163.883 58.9877 163.707 59.066C163.532 59.1434 163.561 59.2955 163.737 59.2172ZM159.192 58.236C159.407 58.1372 159.3 57.9852 159.085 58.0837C158.87 58.1834 158.977 58.3344 159.192 58.236ZM162.228 56.3017C162.29 56.2744 162.264 56.2293 162.203 56.2565C162.141 56.2838 162.167 56.3289 162.228 56.3017Z" fill="#D8D8D8"/>
<path d="M162.429 56.2355L162.499 55.839C162.525 55.6936 162.568 55.5385 162.509 55.4217C162.471 55.3483 162.274 55.4017 162.211 55.5026C162.18 55.5528 162.144 55.6063 162.131 55.6543C162.119 55.6976 162.105 55.7418 162.097 55.7844L162.065 55.9639L162.002 56.3228C161.99 56.3907 162.049 56.4427 162.172 56.4142C162.28 56.3893 162.416 56.3084 162.429 56.2355ZM156.765 57.8733C156.911 57.8043 156.863 57.6901 156.717 57.7592C156.572 57.8282 156.62 57.9424 156.765 57.8733ZM154.78 55.847C154.884 55.7959 154.844 55.718 154.74 55.769C154.635 55.8201 154.676 55.898 154.78 55.847ZM151.472 56.457C151.753 56.3151 151.691 56.0794 151.407 56.223C151.125 56.3652 151.188 56.6004 151.472 56.457ZM146.187 58.2475C146.48 58.0857 146.372 57.8585 146.077 58.0212C145.783 58.1833 145.893 58.41 146.187 58.2475Z" fill="#D8D8D8"/>
<path d="M169.242 73.4988C169.235 73.3329 169.227 73.167 169.221 73.0011C169.212 72.8288 169.206 72.6565 169.197 72.4843C169.193 72.4001 169.19 72.3164 169.186 72.2327C168.725 72.2367 168.237 71.8847 167.877 71.627C167.773 71.553 167.67 71.4756 167.559 71.4132C167.416 71.333 167.266 71.2703 167.13 71.1773C166.793 70.9473 166.546 70.6466 166.296 70.3287C166.11 70.0915 166.135 69.8186 166.386 69.6387C166.4 69.6279 166.409 69.6217 166.415 69.6175C166.434 69.6016 166.454 69.5856 166.473 69.5694C166.52 69.5306 166.566 69.491 166.614 69.4528C166.649 69.4244 166.685 69.3961 166.721 69.3679C166.65 69.3191 166.581 69.2661 166.52 69.2046C166.318 69.002 166.212 68.7202 166.211 68.4377C166.206 68.4137 166.199 68.3898 166.195 68.3655C166.166 68.1707 166.168 67.9709 166.267 67.7946C166.139 67.738 166.012 67.677 165.889 67.6115C165.489 67.3998 164.758 67.0422 164.83 66.4914C164.875 66.147 165.19 66.0105 165.5 65.986C165.876 65.9564 166.274 66.0044 166.65 66.0244C167.413 66.065 168.176 66.1381 168.925 66.2866C168.682 60.7307 168.393 54.1325 168.249 50.8347C168.238 50.5901 168.226 50.3391 168.198 50.0924C168.211 51.0623 168.192 52.0342 168.138 53.0062C167.97 56.0158 167.45 59.0147 166.447 61.8625C164.075 68.592 158.527 74.5408 151.49 75.7787C150.61 75.9339 149.721 76.0127 148.835 76.019C148.803 76.0211 148.769 76.0211 148.737 76.0211C144.267 76.0339 139.81 74.2686 136.268 71.4887C132.651 68.6515 129.913 64.8443 127.844 60.7246C127.663 62.6048 127.499 64.485 127.418 66.363L127.254 71.9631C127.177 73.7092 127.233 75.2533 127.254 77.0102C127.262 77.6631 127.386 78.4479 127.731 79.0009C128.183 79.7262 129.099 79.9729 129.93 80.1622C134.975 81.3086 144.444 80.5365 148.99 80.0899C154.08 79.3859 161.774 79.4475 166.819 78.3012C167.65 78.1118 168.567 77.8652 169.018 77.142C169.363 76.5869 169.346 75.8893 169.319 75.2385C169.293 74.6579 169.267 74.0773 169.242 73.4988Z" fill="#D8D8D8"/>
<path d="M154.609 42.2657C153.46 46.5811 151.296 52.2684 147.324 54.6909C146.12 54.559 138.456 45.8112 139.053 38.5011C139.175 36.9846 139.654 35.5298 140.621 34.226C142.846 31.2271 147.13 29.934 150.526 31.3505C150.801 31.4632 151.072 31.5951 151.334 31.7461C154.83 33.756 155.646 38.3628 154.609 42.2657Z" fill="white"/>
<path d="M154.609 42.2655C153.46 46.581 151.296 52.2682 147.324 54.6908C146.12 54.5589 138.456 45.811 139.053 38.5009C139.334 39.2645 139.575 40.0429 139.831 40.815C140.325 42.3123 140.888 43.8181 141.855 45.0645C142.82 46.3108 144.258 47.2785 145.837 47.3338C147.284 47.3849 148.688 46.6553 149.666 45.5898C150.644 44.5221 151.234 43.1502 151.59 41.7508C151.999 40.1407 152.103 38.4584 151.924 36.8079C151.769 35.3808 151.33 34.1004 150.88 32.7498C150.767 32.4159 150.58 31.8693 150.526 31.3503C150.801 31.4631 151.072 31.595 151.334 31.7459C154.83 33.7559 155.646 38.3627 154.609 42.2655Z" fill="#D8D8D8"/>
<path d="M147.066 35.847C146.018 35.7951 145.009 36.4879 144.557 37.4364C143.897 38.8213 144.473 40.6695 145.801 41.4331C147.129 42.1966 149.011 41.761 149.871 40.4911C150.73 39.2213 150.439 37.3073 149.24 36.3525C148.041 35.3977 146.115 35.545 145.075 36.671" fill="#3A79F8"/>
<path d="M171.66 24.3233C170.516 25.325 169.374 26.3268 168.23 27.3307C169.133 27.3903 170.094 27.4711 170.735 28.1942C171.027 28.5239 171.166 28.979 171.049 29.4002C170.846 30.1276 170.128 30.2978 169.487 30.3998C162.648 31.4888 156.266 30.1765 148.136 26.9755C148.129 26.9713 148.123 26.9691 148.117 26.967C143.118 25.2932 137.969 23.5279 133.283 22.0327C132.252 21.703 131.185 21.3543 130.398 20.6141C129.612 19.8739 129.195 18.6212 129.734 17.6875C130.181 16.9112 131.121 16.5773 132.003 16.4156C132.864 16.2582 133.722 16.2115 134.581 16.2476C137.726 16.3816 140.838 17.6578 143.783 18.9105C144.539 19.2338 145.296 19.5549 146.052 19.8782L145.089 20.5354C147.803 18.9764 150.967 17.058 153.682 15.499C155.06 14.7077 156.467 13.9059 158.016 13.5465C159.43 13.2189 161.005 13.3083 162.23 14.0591C162.419 14.1761 162.462 14.4334 162.322 14.6014C160.121 17.2388 156.614 20.5205 153.609 22.9621C153.929 23.1174 156.469 24.3127 157.726 24.8487C158.893 25.3463 160.11 25.8525 161.378 25.8036C162.662 25.7569 163.851 25.1443 164.966 24.5041C165.737 24.0638 166.51 23.5959 167.335 23.2726C167.701 23.128 168.076 23.011 168.466 22.9387C169.608 22.726 170.916 22.977 171.692 23.8107C171.828 23.9575 171.811 24.1893 171.66 24.3233Z" fill="white"/>
<path d="M171.66 24.3232C170.516 25.3249 169.374 26.3267 168.23 27.3306C169.133 27.3902 170.094 27.471 170.735 28.1941C171.027 28.5238 171.166 28.9789 171.049 29.4001C170.846 30.1275 170.128 30.2976 169.487 30.3997C162.648 31.4887 156.266 30.1764 148.136 26.9754C148.129 26.9712 148.123 26.969 148.117 26.9669C143.118 25.2931 137.969 23.5278 133.283 22.0326C132.252 21.7029 131.185 21.3541 130.398 20.614C129.612 19.8738 129.195 18.6211 129.734 17.6874C130.181 16.9111 131.121 16.5772 132.003 16.4155C132.864 16.2581 133.722 16.2114 134.581 16.2475C133.703 16.6857 133.03 17.6746 133.29 18.6147C133.558 19.5782 134.611 20.0568 135.544 20.414C141.399 22.6451 147.252 24.8762 153.104 27.1073C155.163 27.8922 157.242 28.6812 159.424 28.9875C161.606 29.2938 163.93 29.0768 165.824 27.9559C166.926 27.303 167.921 26.1651 167.763 24.8954C167.693 24.3402 167.405 23.8213 167.335 23.2726C167.701 23.1279 168.076 23.011 168.466 22.9386C169.608 22.726 170.916 22.9769 171.692 23.8107C171.828 23.9574 171.811 24.1892 171.66 24.3232Z" fill="#D8D8D8"/>
<path d="M128.58 68.1059C128.568 67.9921 129.038 67.8618 129.757 67.614C129.937 67.5518 130.132 67.4812 130.339 67.4007C130.544 67.3211 130.75 67.2329 130.92 67.1176C131.005 67.06 131.08 66.9967 131.138 66.9263C131.17 66.89 131.193 66.8551 131.21 66.8241C131.229 66.7909 131.242 66.7519 131.255 66.7128C131.276 66.6334 131.283 66.5454 131.268 66.4765C131.255 66.4053 131.228 66.3621 131.196 66.3369C131.141 66.2721 130.918 66.2443 130.644 66.264C130.372 66.2752 130.11 66.2925 129.86 66.3139C129.361 66.3578 128.911 66.4164 128.532 66.471C127.774 66.5812 127.293 66.6617 127.254 66.5542C127.218 66.4547 127.639 66.1823 128.399 65.9225C128.779 65.7935 129.243 65.6723 129.767 65.5845C130.03 65.5411 130.307 65.5066 130.596 65.4837C130.738 65.4721 130.903 65.4596 131.094 65.4794C131.28 65.4987 131.514 65.5596 131.71 65.7258C131.909 65.8895 132.02 66.1289 132.052 66.3415C132.088 66.5584 132.061 66.7621 132.001 66.9499C131.968 67.0432 131.929 67.1336 131.876 67.218C131.822 67.3051 131.762 67.3793 131.701 67.4414C131.577 67.571 131.439 67.6687 131.304 67.7454C131.032 67.8973 130.77 67.9724 130.539 68.0315C130.308 68.0894 130.091 68.1323 129.891 68.1622C129.091 68.2803 128.59 68.2108 128.58 68.1059Z" fill="#212837"/>
<path d="M128.877 69.3956C128.872 69.2838 129.04 69.1859 129.269 69.0927C129.382 69.0448 129.506 68.9951 129.618 68.9335C129.727 68.8748 129.818 68.8009 129.893 68.714C129.964 68.6315 129.995 68.5475 130.009 68.5015C130.025 68.4528 130.009 68.3613 129.979 68.2962C129.949 68.2289 129.913 68.1718 129.869 68.125C129.827 68.0774 129.774 68.0408 129.757 67.9866C129.742 67.9374 129.765 67.8654 129.868 67.8144C129.968 67.7633 130.148 67.7586 130.325 67.8506C130.499 67.9411 130.679 68.1195 130.74 68.4133C130.796 68.7098 130.689 69.009 130.505 69.2271C130.323 69.4437 130.081 69.5727 129.866 69.6257C129.654 69.6795 129.47 69.6749 129.325 69.6542C129.037 69.6071 128.883 69.5035 128.877 69.3956Z" fill="#212837"/>
<path d="M167.548 69.4062C167.543 69.5141 167.389 69.6178 167.1 69.6648C166.956 69.6855 166.772 69.6902 166.559 69.6363C166.345 69.5833 166.102 69.4543 165.921 69.2377C165.736 69.0196 165.63 68.7205 165.685 68.4239C165.747 68.1302 165.927 67.9517 166.101 67.8612C166.277 67.7692 166.458 67.7739 166.558 67.825C166.661 67.876 166.684 67.948 166.668 67.9972C166.652 68.0514 166.599 68.088 166.556 68.1356C166.512 68.1824 166.477 68.2395 166.447 68.3068C166.417 68.372 166.4 68.4634 166.417 68.5121C166.43 68.5581 166.462 68.6421 166.533 68.7246C166.607 68.8115 166.699 68.8854 166.808 68.9441C166.919 69.0057 167.044 69.0554 167.157 69.1033C167.386 69.1965 167.554 69.2945 167.548 69.4062Z" fill="#212837"/>
<path d="M189.576 41.4841C189.565 41.5078 189.49 41.4839 189.372 41.5074C189.259 41.5292 189.088 41.6168 188.996 41.7941C188.906 41.9705 188.911 42.2398 189.026 42.5067C189.132 42.7656 189.363 43.0408 189.64 43.0756C189.912 43.1135 190.178 42.8768 190.245 42.6273C190.323 42.3681 190.264 42.0924 190.173 41.8947C190.083 41.6936 189.946 41.5829 189.833 41.536C189.721 41.4871 189.643 41.4897 189.638 41.4645C189.632 41.4452 189.708 41.3909 189.866 41.4069C190.02 41.418 190.244 41.5417 190.386 41.7781C190.525 42.005 190.637 42.3342 190.55 42.7097C190.506 42.8944 190.396 43.0835 190.233 43.2186C190.072 43.3548 189.838 43.4476 189.598 43.4151C189.359 43.3853 189.164 43.2533 189.027 43.1072C188.887 42.9592 188.793 42.7898 188.732 42.6199C188.608 42.2865 188.62 41.9165 188.789 41.6688C188.963 41.4231 189.214 41.3587 189.368 41.3745C189.528 41.3932 189.587 41.4682 189.576 41.4841ZM176.815 50.9794C176.76 50.6314 176.945 50.3475 177.159 50.3535C177.383 50.3588 177.555 50.5839 177.598 50.8539C177.643 51.1241 177.547 51.3945 177.339 51.4661C177.133 51.5372 176.874 51.326 176.815 50.9794ZM178.221 53.5479C177.964 53.3105 177.926 52.9802 178.097 52.846C178.27 52.709 178.551 52.7741 178.754 52.9622C178.96 53.1463 179.052 53.4176 178.933 53.6041C178.817 53.7864 178.482 53.7807 178.221 53.5479ZM180.938 54.6485C180.593 54.6294 180.35 54.4019 180.394 54.1889C180.439 53.9735 180.695 53.8422 180.976 53.8577C181.258 53.8691 181.504 54.0267 181.523 54.2464C181.542 54.4622 181.282 54.6622 180.938 54.6485ZM183.754 54.1065C183.449 54.2307 183.139 54.1407 183.074 53.9339C183.009 53.7231 183.184 53.4842 183.458 53.372C183.733 53.2617 184.029 53.3158 184.125 53.5118C184.221 53.7089 184.06 53.9838 183.754 54.1065ZM186.205 52.7815C185.939 52.9497 185.626 52.9329 185.513 52.7457C185.399 52.559 185.519 52.2777 185.782 52.1119C186.045 51.9462 186.355 51.9588 186.472 52.1438C186.589 52.3282 186.471 52.6136 186.205 52.7815ZM188.507 51.4082C188.238 51.5442 187.936 51.5118 187.828 51.3218C187.72 51.1317 187.859 50.8488 188.148 50.7019C188.438 50.5544 188.754 50.6127 188.839 50.812C188.926 51.0148 188.774 51.272 188.507 51.4082ZM147.324 54.6918C147.325 54.7028 147.263 54.715 147.155 54.6819C147.049 54.6486 146.902 54.5759 146.726 54.4597C146.374 54.2278 145.903 53.8272 145.348 53.2632C144.247 52.1323 142.778 50.3606 141.359 47.9082C140.655 46.6815 139.969 45.2796 139.436 43.6886C139.174 42.8923 138.952 42.0488 138.811 41.1592C138.671 40.2706 138.612 39.3344 138.694 38.3756C138.773 37.4178 139.009 36.4393 139.423 35.5104C139.838 34.5814 140.449 33.7196 141.203 32.98C142.712 31.5041 144.81 30.5338 147.052 30.3937C148.171 30.3284 149.295 30.4793 150.329 30.8549C151.362 31.2277 152.303 31.8264 153.046 32.5926C153.793 33.3564 154.34 34.2684 154.707 35.2106C155.075 36.1548 155.271 37.1298 155.347 38.0822C155.423 39.0359 155.379 39.9696 155.25 40.8621C155.211 41.0841 155.172 41.3044 155.133 41.5231C155.089 41.7409 155.032 41.9539 154.982 42.1668C154.876 42.5897 154.757 42.9892 154.638 43.3884C154.157 44.9771 153.625 46.4342 153.036 47.7216C152.451 49.0104 151.821 50.1321 151.185 51.0634C150.557 52.0013 149.896 52.7244 149.327 53.2766C149.034 53.5458 148.777 53.7861 148.525 53.962C148.281 54.1464 148.078 54.3047 147.892 54.4036C147.532 54.6165 147.339 54.7153 147.324 54.6918C147.28 54.6258 148.041 54.1852 149.106 53.0582C149.626 52.4865 150.234 51.7568 150.811 50.8186C151.396 49.8873 151.978 48.7733 152.518 47.4955C153.063 46.2194 153.555 44.7763 154.001 43.2036C154.111 42.8117 154.224 42.4055 154.319 42.0015C154.362 41.7991 154.414 41.5969 154.452 41.3903C154.486 41.1828 154.52 40.9739 154.554 40.7633C154.664 39.9177 154.694 39.0364 154.613 38.1445C154.532 37.2538 154.34 36.3507 153.996 35.49C153.654 34.6306 153.155 33.8153 152.487 33.1394C151.822 32.4621 150.987 31.9345 150.059 31.6017C149.133 31.2678 148.118 31.1312 147.1 31.1903C145.06 31.3163 143.127 32.204 141.75 33.5396C141.061 34.2079 140.502 34.9856 140.118 35.8257C139.736 36.6659 139.51 37.5557 139.428 38.4424C139.257 40.222 139.592 41.9463 140.067 43.4862C140.554 45.0306 141.194 46.4142 141.853 47.6338C143.181 50.0736 144.563 51.8764 145.577 53.0525C146.087 53.6396 146.515 54.0675 146.823 54.3312C146.977 54.4634 147.101 54.5532 147.188 54.6073C147.275 54.6608 147.325 54.6751 147.324 54.6918Z" fill="#212837"/>
<path d="M145.075 36.6711C145.041 36.6438 145.187 36.3537 145.653 36.0149C145.889 35.8552 146.205 35.6887 146.603 35.5815C147 35.4743 147.478 35.4253 148.001 35.4989C148.518 35.5835 149.095 35.787 149.58 36.2114C150.071 36.623 150.438 37.2283 150.623 37.9122C150.798 38.5971 150.798 39.3783 150.508 40.1184C150.222 40.8616 149.605 41.5001 148.854 41.8485C148.104 42.2033 147.261 42.2923 146.491 42.1149C146.106 42.0274 145.742 41.8629 145.428 41.6458C145.113 41.4287 144.85 41.1615 144.638 40.8729C144.223 40.2894 144.006 39.6301 143.969 39.0051C143.92 38.3794 144.063 37.788 144.304 37.312C144.554 36.8383 144.894 36.488 145.232 36.2493C145.569 36.0063 145.909 35.8777 146.189 35.812C146.759 35.6888 147.073 35.8041 147.066 35.8471C147.065 35.9117 146.757 35.9116 146.283 36.1079C146.05 36.2091 145.774 36.3595 145.51 36.5991C145.244 36.834 144.988 37.1565 144.814 37.5549C144.651 37.9551 144.562 38.4366 144.629 38.946C144.684 39.4536 144.888 39.9843 145.229 40.4339C145.577 40.8797 146.069 41.2272 146.665 41.3525C147.256 41.48 147.925 41.4058 148.511 41.1276C149.1 40.8506 149.555 40.3826 149.782 39.8265C150.012 39.2675 150.031 38.6432 149.908 38.0889C149.776 37.5355 149.504 37.0428 149.137 36.7036C148.778 36.3529 148.325 36.1583 147.898 36.0536C147.466 35.9597 147.052 35.9626 146.698 36.0176C146.342 36.0722 146.045 36.1791 145.81 36.2835C145.345 36.508 145.122 36.7158 145.075 36.6711Z" fill="#212837"/>
<path d="M145.625 39.5274C145.59 39.5459 145.426 39.3318 145.385 38.9124C145.34 38.5055 145.466 37.8767 145.949 37.4139C146.191 37.1887 146.477 37.0466 146.748 36.9776C147.02 36.9079 147.275 36.9044 147.481 36.9376C147.898 37.0046 148.101 37.1825 148.08 37.216C148.058 37.2649 147.83 37.1773 147.462 37.1787C147.101 37.1754 146.579 37.2919 146.185 37.6623C145.793 38.0355 145.646 38.5484 145.627 38.9085C145.603 39.2753 145.675 39.5085 145.625 39.5274Z" fill="white"/>
<path d="M148.627 72.4596C148.556 72.5358 147.275 71.4805 145.347 69.6227C144.38 68.697 143.261 67.5627 142.037 66.285C140.818 65.0024 139.503 63.5691 138.152 62.0386C136.806 60.504 135.552 59.0173 134.435 57.6459C133.323 56.2695 132.34 55.0154 131.546 53.9386C129.948 51.7904 129.065 50.3868 129.15 50.3258C129.244 50.2579 130.286 51.5398 131.99 53.5902C132.839 54.6184 133.863 55.831 135.001 57.1762C136.145 58.5168 137.412 59.9831 138.753 61.5119C140.099 63.0368 141.392 64.4793 142.576 65.7846C143.766 67.0846 144.838 68.2549 145.75 69.2274C147.568 71.1786 148.707 72.3753 148.627 72.4596Z" fill="#212837"/>
<path d="M127.329 79.2561C127.177 79.097 130.272 75.8881 134.243 72.0891C138.215 68.2898 141.558 65.3389 141.711 65.498C141.863 65.6571 138.768 68.866 134.796 72.6652C130.825 76.4643 127.482 79.4152 127.329 79.2561ZM161.41 66.3095C161.28 66.4871 158.104 64.3825 154.318 61.6087C150.532 58.8347 147.568 56.442 147.699 56.2644C147.83 56.0867 151.005 58.1914 154.791 60.9654C158.577 63.7391 161.541 66.1319 161.41 66.3095Z" fill="#212837"/>
<path d="M148.493 79.9721C148.411 79.8984 149.516 78.5244 151.368 76.3626C153.221 74.2008 155.821 71.2512 158.73 68.0261C161.628 64.787 164.368 61.9676 166.052 59.7064C167.766 57.4619 168.495 55.8539 168.614 55.9091C168.639 55.9204 168.616 56.0308 168.55 56.232C168.517 56.3326 168.473 56.4558 168.418 56.6007C168.356 56.7427 168.286 56.9062 168.206 57.0901C167.873 57.8196 167.325 58.8518 166.511 60.0354C165.707 61.2265 164.637 62.5619 163.399 63.9867C162.158 65.4093 160.777 66.9452 159.324 68.5601C156.415 71.7851 153.748 74.675 151.788 76.7402C149.828 78.8054 148.575 80.0459 148.493 79.9721Z" fill="#212837"/>
<path d="M148.116 26.968C148.138 26.9132 148.84 27.1397 150.103 27.5561C150.418 27.6597 150.769 27.7749 151.154 27.9009C151.539 28.0215 151.958 28.1524 152.408 28.2931C152.858 28.4331 153.343 28.5682 153.855 28.721C154.369 28.8647 154.914 29.0102 155.487 29.16C156.635 29.4446 157.9 29.7277 159.269 29.9539C160.639 30.1709 162.113 30.334 163.667 30.381C165.221 30.4291 166.855 30.3581 168.532 30.136C168.741 30.1066 168.951 30.077 169.162 30.0472C169.375 30.0184 169.585 29.988 169.775 29.9441C170.162 29.8585 170.47 29.7075 170.596 29.4642C170.74 29.2059 170.718 28.8779 170.541 28.5976C170.459 28.4654 170.321 28.3321 170.177 28.2235C170.03 28.1153 169.863 28.0295 169.68 27.9634C169.573 27.9231 169.459 27.8933 169.343 27.8652L169.166 27.8292L169.075 27.8143L168.993 27.8017L168.893 27.79C168.363 27.7282 167.786 27.7027 167.248 27.6615C168.666 26.4201 170.047 25.211 171.378 24.0454L171.376 24.041L171.308 23.9733C171.246 23.9146 171.18 23.8595 171.112 23.8078C170.976 23.703 170.823 23.619 170.668 23.5414C170.35 23.3974 170.006 23.302 169.655 23.2651C168.951 23.1785 168.252 23.3175 167.589 23.5611C166.261 24.0499 165.11 24.8917 163.876 25.4479C163.261 25.7293 162.627 25.9483 161.987 26.0424C161.346 26.1411 160.712 26.094 160.146 25.9719C159.577 25.8477 159.063 25.6632 158.593 25.471C158.121 25.2772 157.693 25.0816 157.289 24.8948C156.486 24.5187 155.807 24.1795 155.253 23.8983C154.147 23.3342 153.552 22.9945 153.575 22.9461C153.598 22.8987 154.236 23.1467 155.38 23.6261C155.951 23.8656 156.65 24.1586 157.463 24.4993C158.279 24.8213 159.203 25.2349 160.253 25.4343C160.777 25.5289 161.329 25.5523 161.891 25.4508C162.455 25.3525 163.027 25.1419 163.6 24.864C164.175 24.5868 164.747 24.2415 165.355 23.8845C165.963 23.5297 166.609 23.1633 167.336 22.8854C167.7 22.7465 168.082 22.632 168.486 22.5627C168.893 22.4921 169.313 22.4751 169.735 22.5193C170.157 22.5597 170.582 22.6691 170.988 22.8496C171.189 22.9462 171.388 23.0543 171.571 23.1921C171.663 23.2601 171.752 23.3336 171.837 23.4126L171.983 23.5578C172.048 23.6317 172.1 23.7164 172.131 23.8088C172.196 23.9929 172.182 24.2017 172.095 24.3782C172.052 24.4669 171.99 24.5463 171.916 24.6137L171.787 24.7282C171.634 24.8633 171.48 24.9989 171.326 25.1352C171.017 25.4075 170.706 25.6822 170.392 25.959C170.078 26.2356 169.761 26.5143 169.442 26.7951L169.203 27.0059L169.184 27.0226L169.184 27.0229L169.183 27.0234L169.184 27.0243L169.185 27.0239L169.307 27.0439L169.521 27.0872C169.664 27.1216 169.808 27.1594 169.952 27.2129C170.195 27.3005 170.436 27.4218 170.652 27.5819C170.866 27.7449 171.06 27.9266 171.217 28.1741C171.369 28.4153 171.466 28.695 171.485 28.9897C171.505 29.2869 171.435 29.5858 171.293 29.8462C171.147 30.1113 170.913 30.3258 170.671 30.4546C170.428 30.5903 170.183 30.6591 169.949 30.7136C169.714 30.766 169.495 30.7958 169.279 30.824C169.062 30.8532 168.847 30.8823 168.632 30.9113C166.91 31.1286 165.231 31.1854 163.64 31.1157C162.048 31.0471 160.546 30.8553 159.156 30.6058C157.767 30.3471 156.492 30.0277 155.339 29.7047C154.765 29.5357 154.22 29.3705 153.707 29.2065C153.197 29.0335 152.714 28.8776 152.267 28.7164C151.822 28.5525 151.408 28.3999 151.027 28.2594C150.65 28.1088 150.305 27.9712 149.995 27.8474C148.761 27.3399 148.097 27.0158 148.116 26.968Z" fill="#212837"/>
<path d="M146.052 19.8775C146.031 19.9282 145.402 19.7175 144.283 19.293C143.162 18.8768 141.567 18.2011 139.549 17.5541C138.54 17.2362 137.421 16.929 136.202 16.7515C136.05 16.7299 135.896 16.7083 135.742 16.6864C135.586 16.6718 135.43 16.6571 135.272 16.6423C134.956 16.6051 134.635 16.6066 134.309 16.5909C133.66 16.5966 132.989 16.6162 132.317 16.741C131.976 16.7852 131.65 16.8639 131.333 16.9686C131.019 17.0751 130.721 17.2178 130.479 17.4109C130.233 17.6001 130.054 17.8486 129.959 18.1272C129.866 18.4074 129.857 18.7281 129.93 19.0449C129.998 19.3625 130.147 19.6746 130.344 19.9507C130.442 20.0901 130.557 20.2147 130.679 20.3331C130.809 20.4522 130.949 20.5623 131.097 20.6657C131.695 21.0759 132.428 21.3385 133.195 21.5853C139.412 23.5786 144.98 25.5545 149.012 26.9704C151.027 27.6821 152.656 28.2646 153.778 28.678C154.9 29.0924 155.514 29.3424 155.497 29.3956C155.48 29.4474 154.834 29.2972 153.682 28.9733C152.529 28.6504 150.872 28.1491 148.833 27.5054C144.751 26.2252 139.157 24.3347 132.949 22.3446C132.169 22.0916 131.362 21.812 130.646 21.3193C130.468 21.1948 130.298 21.0598 130.138 20.9113C129.977 20.756 129.827 20.5897 129.701 20.409C129.447 20.0484 129.257 19.6457 129.165 19.2116C129.069 18.7816 129.077 18.312 129.226 17.8784C129.376 17.4436 129.665 17.0693 130.007 16.8114C130.348 16.5476 130.725 16.3789 131.096 16.2575C131.467 16.139 131.842 16.0567 132.202 16.0148C132.924 15.8924 133.638 15.8821 134.325 15.8895C134.668 15.9117 135.008 15.9177 135.337 15.9631C135.502 15.9822 135.666 16.0011 135.828 16.0198C135.989 16.0462 136.149 16.0724 136.308 16.0983C137.573 16.3127 138.712 16.661 139.729 17.0193C141.761 17.7477 143.321 18.5037 144.405 19.0075C145.486 19.5196 146.074 19.8268 146.052 19.8775Z" fill="#212837"/>
<path d="M137.59 19.3942C137.412 19.2648 137.419 18.9506 137.606 18.6924C137.794 18.4341 138.091 18.3297 138.27 18.4591C138.448 18.5884 138.441 18.9027 138.254 19.1609C138.066 19.4191 137.769 19.5236 137.59 19.3942Z" fill="#212837"/>
<path d="M139.96 20.3292C139.781 20.1999 139.789 19.8856 139.976 19.6274C140.164 19.3692 140.461 19.2648 140.64 19.3941C140.818 19.5235 140.811 19.8377 140.623 20.0959C140.436 20.3542 140.139 20.4586 139.96 20.3292Z" fill="#212837"/>
<path d="M142.33 21.2642C142.151 21.1349 142.158 20.8206 142.346 20.5625C142.534 20.3043 142.831 20.1998 143.009 20.3292C143.188 20.4585 143.181 20.7728 142.993 21.031C142.806 21.2892 142.509 21.3936 142.33 21.2642Z" fill="#212837"/>
<path d="M153.747 25.6986C153.568 25.5692 153.575 25.255 153.763 24.9968C153.95 24.7386 154.247 24.6342 154.426 24.7635C154.605 24.8929 154.597 25.2071 154.41 25.4653C154.222 25.7235 153.925 25.828 153.747 25.6986Z" fill="#212837"/>
<path d="M156.116 26.6335C155.938 26.5042 155.945 26.1899 156.132 25.9317C156.32 25.6735 156.617 25.5691 156.796 25.6985C156.974 25.8278 156.967 26.142 156.78 26.4003C156.592 26.6585 156.295 26.7629 156.116 26.6335Z" fill="#212837"/>
<path d="M158.486 27.5686C158.307 27.4392 158.315 27.125 158.502 26.8668C158.69 26.6086 158.987 26.5042 159.166 26.6335C159.344 26.7629 159.337 27.0771 159.149 27.3353C158.962 27.5936 158.665 27.698 158.486 27.5686Z" fill="#212837"/>
<path d="M165.532 54.3049C165.508 54.3016 165.507 54.1654 165.518 53.9234C165.527 53.6821 165.555 53.3326 165.515 52.9155C165.494 52.7078 165.454 52.4826 165.368 52.2611C165.284 52.0386 165.152 51.8156 164.971 51.6287C164.79 51.4421 164.554 51.3002 164.283 51.2591C164.011 51.2136 163.709 51.2644 163.404 51.353C163.098 51.4413 162.791 51.56 162.497 51.6622C162.203 51.7653 161.919 51.8647 161.648 51.9596C161.106 52.1469 160.616 52.3113 160.202 52.4446C159.376 52.7114 158.855 52.8545 158.839 52.8104C158.822 52.7663 159.312 52.5431 160.118 52.2178C160.522 52.0551 161.004 51.8669 161.542 51.6628C161.811 51.5618 162.094 51.4558 162.387 51.346C162.682 51.2386 162.978 51.1202 163.309 51.0243C163.637 50.93 163.991 50.8664 164.339 50.9288C164.689 50.9867 164.991 51.1814 165.2 51.4122C165.627 51.8805 165.748 52.4578 165.757 52.9C165.767 53.3501 165.7 53.7015 165.65 53.9404C165.598 54.1793 165.555 54.3081 165.532 54.3049Z" fill="#212837"/>
<path d="M142.428 40.6737C142.411 40.6862 142.299 40.5807 142.137 40.3559C141.973 40.132 141.776 39.776 141.62 39.301C141.462 38.8273 141.365 38.2283 141.408 37.5638C141.449 36.9015 141.648 36.1741 142.05 35.5107C142.462 34.8532 143.022 34.348 143.596 34.0124C144.17 33.6741 144.75 33.4905 145.244 33.4171C145.74 33.342 146.147 33.3571 146.421 33.4016C146.695 33.445 146.84 33.4973 146.836 33.5175C146.83 33.5817 146.223 33.4512 145.289 33.6547C144.826 33.7538 144.289 33.9507 143.76 34.2814C143.232 34.61 142.721 35.0855 142.342 35.6898C141.972 36.3001 141.778 36.9701 141.723 37.5888C141.666 38.2091 141.732 38.7761 141.852 39.2339C142.092 40.1574 142.482 40.6389 142.428 40.6737Z" fill="#212837"/>
<path d="M159.297 15.4628C159.292 15.4737 159.255 15.4731 159.191 15.4625C159.128 15.4494 159.036 15.4308 158.916 15.4171C158.679 15.3886 158.331 15.3752 157.916 15.4804C157.501 15.5749 157.026 15.7782 156.521 16.0502C156.019 16.3249 155.471 16.6667 154.888 17.0016C153.724 17.6796 152.661 18.2768 151.883 18.6944C151.105 19.112 150.612 19.3498 150.588 19.3091C150.564 19.2683 151.014 18.9566 151.761 18.4856C152.508 18.0145 153.552 17.3842 154.715 16.7063C155.299 16.3708 155.845 16.0405 156.375 15.7709C156.904 15.5058 157.415 15.3136 157.869 15.2432C158.32 15.1617 158.701 15.2149 158.944 15.2869C159.067 15.3222 159.157 15.363 159.215 15.3976C159.273 15.4299 159.301 15.4519 159.297 15.4628Z" fill="#212837"/>
<path opacity="0.31" d="M123.991 72.7228L118.879 70.2516L113.111 77.1219L112.143 75.7488L113.348 66.5132L108.573 52.1592L97.6303 56.0284L100.545 63.3565L109.912 85.8773L111.978 90.9799L112.217 89.4985L114.5 80.8063L117.69 77.2685L123.386 76.8311L114.314 70.5605L123.991 72.7228Z" fill="#0047AB"/>
<path d="M115.179 45.6969C118.563 45.6969 121.306 43.053 121.306 39.7916C121.306 36.5302 118.563 33.8864 115.179 33.8864C111.795 33.8864 109.052 36.5302 109.052 39.7916C109.052 43.053 111.795 45.6969 115.179 45.6969Z" fill="#0047AB"/>
<path d="M131.35 81.2709L127.623 83.1401C126.539 81.0815 124.241 79.7173 121.638 79.9248C118.592 80.1683 116.163 82.6147 116.037 85.5572C115.989 86.6553 116.251 87.6925 116.752 88.5899L116.499 88.7162L114.508 89.7128L111.98 90.98C110.675 88.0375 109.571 85.0837 108.638 82.1683C108.487 81.7015 108.34 81.2303 108.2 80.7635V80.759C108.096 80.4163 107.993 80.0646 107.914 79.7917C107.835 79.5212 107.78 79.334 107.78 79.334C106.107 73.5054 105.085 67.9158 104.471 63.0116L104.475 63.1063C103.658 57.7241 103.617 51.8639 103.617 51.8639C103.59 50.8899 103.583 50.0082 103.583 49.2303C103.583 48.7591 103.583 48.3239 103.592 47.9316C103.617 46.3713 103.674 45.4491 103.681 45.3183V45.3025L106.945 45.7444L108.593 46.0195C108.582 46.1638 108.575 46.3104 108.575 46.4569C108.575 49.7196 111.318 52.3622 114.7 52.3622C117.522 52.3622 119.895 50.5268 120.606 48.0263L122.367 48.3194L125.054 48.7906V48.8019C125.047 48.8944 124.975 50.2112 124.984 52.3284C124.984 52.3284 125.14 58.2991 125.392 60.6035C125.711 63.8707 126.248 67.4896 127.158 71.0274C127.162 71.0386 127.165 71.0477 127.167 71.0589C127.51 72.4501 127.557 72.493 127.56 72.493C128.472 75.6429 129.7 78.6734 131.353 81.2686L131.35 81.2709Z" fill="#6495ED"/>
<path opacity="0.31" d="M168 64.6585L174.02 61.7479L180.814 69.8397L181.955 68.2224L180.535 57.3449L186.159 40.4391L199.047 44.9962L195.614 53.627L184.582 80.1515L182.149 86.1612L181.867 84.4165L179.179 74.179L175.422 70.0123L168.713 69.4971L179.397 62.1118L168 64.6585Z" fill="#0047AB"/>
<path d="M178.379 32.828C174.393 32.828 171.162 29.7141 171.162 25.8728C171.162 22.0316 174.393 18.9177 178.379 18.9177C182.364 18.9177 185.595 22.0316 185.595 25.8728C185.595 29.7141 182.364 32.828 178.379 32.828Z" fill="#0047AB"/>
<path d="M159.332 74.7262L163.722 76.9277C164.999 74.5031 167.705 72.8964 170.771 73.1408C174.358 73.4276 177.219 76.3089 177.368 79.7745C177.424 81.0678 177.116 82.2894 176.525 83.3464L176.823 83.4951L179.168 84.6689L182.147 86.1614C183.683 82.6957 184.984 79.2169 186.082 75.7831C186.26 75.2334 186.433 74.6784 186.598 74.1287V74.1233C186.72 73.7197 186.842 73.3054 186.935 72.9841C187.029 72.6654 187.092 72.445 187.092 72.445C189.063 65.5801 190.267 58.9968 190.99 53.2208L190.985 53.3323C191.948 46.9933 191.996 40.0913 191.996 40.0913C192.027 38.9441 192.035 37.9057 192.035 36.9895C192.035 36.4345 192.035 35.922 192.025 35.4599C191.996 33.6222 191.929 32.536 191.921 32.382V32.3634L188.076 32.8839L186.135 33.2079C186.148 33.3779 186.156 33.5505 186.156 33.7231C186.156 37.5658 182.926 40.6782 178.942 40.6782C175.619 40.6782 172.824 38.5165 171.986 35.5714L169.912 35.9167L166.748 36.4717V36.485C166.756 36.5938 166.841 38.1447 166.831 40.6384C166.831 40.6384 166.647 47.6705 166.349 50.3846C165.974 54.2326 165.342 58.4949 164.27 62.6616C164.265 62.6749 164.262 62.6855 164.259 62.6988C163.855 64.3373 163.799 64.3878 163.797 64.3878C162.722 68.0977 161.276 71.6669 159.33 74.7235L159.332 74.7262Z" fill="#6495ED"/>
<defs>
<clipPath id="clip0_273_219">
<rect width="168.439" height="97.772" fill="white"/>
</clipPath>
</defs>
</svg>
