<svg width="112" height="120" viewBox="0 0 112 120" fill="none" xmlns="http://www.w3.org/2000/svg">
<path d="M13.8146 10.7383C14.1365 10.7383 14.3975 10.4773 14.3975 10.1554C14.3975 9.83348 14.1365 9.57251 13.8146 9.57251C13.4927 9.57251 13.2317 9.83348 13.2317 10.1554C13.2317 10.4773 13.4927 10.7383 13.8146 10.7383Z" stroke="#5672B6" stroke-width="0.54" stroke-miterlimit="10" stroke-linecap="round" stroke-linejoin="round"/>
<path d="M54.9884 63.4549C55.3104 63.4549 55.5713 63.1939 55.5713 62.872C55.5713 62.55 55.3104 62.2891 54.9884 62.2891C54.6665 62.2891 54.4055 62.55 54.4055 62.872C54.4055 63.1939 54.6665 63.4549 54.9884 63.4549Z" stroke="#5672B6" stroke-width="3.536" stroke-miterlimit="10" stroke-linecap="round" stroke-linejoin="round"/>
<path d="M36.5986 10.1555C37.2425 10.1555 37.7645 9.63349 37.7645 8.9896C37.7645 8.34571 37.2425 7.82373 36.5986 7.82373C35.9547 7.82373 35.4327 8.34571 35.4327 8.9896C35.4327 9.63349 35.9547 10.1555 36.5986 10.1555Z" stroke="#5672B6" stroke-width="0.54" stroke-miterlimit="10" stroke-linecap="round" stroke-linejoin="round"/>
<path d="M1.74767 29.4826C2.4501 29.4826 3.01954 28.9131 3.01954 28.2107C3.01954 27.5083 2.4501 26.9388 1.74767 26.9388C1.04523 26.9388 0.4758 27.5083 0.4758 28.2107C0.4758 28.9131 1.04523 29.4826 1.74767 29.4826Z" stroke="#5672B6" stroke-width="0.54" stroke-miterlimit="10" stroke-linecap="round" stroke-linejoin="round"/>
<path d="M91.3942 68.2031C91.5067 67.5098 91.0359 66.8564 90.3425 66.7439C89.6492 66.6314 88.9959 67.1022 88.8833 67.7956C88.7708 68.4889 89.2416 69.1423 89.935 69.2548C90.6284 69.3673 91.2817 68.8965 91.3942 68.2031Z" stroke="#5672B6" stroke-width="0.54" stroke-miterlimit="10" stroke-linecap="round" stroke-linejoin="round"/>
<path d="M99.3599 22.7968L98.5247 21.9617" stroke="#5672B6" stroke-miterlimit="10" stroke-linecap="round" stroke-linejoin="round"/>
<path d="M97.2783 20.7153L96.493 19.9299" stroke="#5672B6" stroke-miterlimit="10" stroke-linecap="round" stroke-linejoin="round"/>
<path d="M97.3281 21.9617L96.493 22.7968" stroke="#5672B6" stroke-miterlimit="10" stroke-linecap="round" stroke-linejoin="round"/>
<path d="M99.3599 19.9299L98.5247 20.7652" stroke="#5672B6" stroke-miterlimit="10" stroke-linecap="round" stroke-linejoin="round"/>
<path d="M58.7135 4.30597L57.8783 3.47083" stroke="#5672B6" stroke-miterlimit="10" stroke-linecap="round" stroke-linejoin="round"/>
<path d="M56.6319 2.22435L55.8465 1.43896" stroke="#5672B6" stroke-miterlimit="10" stroke-linecap="round" stroke-linejoin="round"/>
<path d="M56.6818 3.47083L55.8465 4.30597" stroke="#5672B6" stroke-miterlimit="10" stroke-linecap="round" stroke-linejoin="round"/>
<path d="M58.7135 1.43896L57.8783 2.27419" stroke="#5672B6" stroke-miterlimit="10" stroke-linecap="round" stroke-linejoin="round"/>
<path d="M13.0101 70.0807L12.175 69.2456" stroke="#5672B6" stroke-width="0.54" stroke-miterlimit="10" stroke-linecap="round" stroke-linejoin="round"/>
<path d="M10.9285 67.9991L10.1431 67.2137" stroke="#5672B6" stroke-width="0.54" stroke-miterlimit="10" stroke-linecap="round" stroke-linejoin="round"/>
<path d="M10.9784 69.2456L10.1431 70.0807" stroke="#5672B6" stroke-width="0.54" stroke-miterlimit="10" stroke-linecap="round" stroke-linejoin="round"/>
<path d="M13.0101 67.2137L12.175 68.049" stroke="#5672B6" stroke-width="0.54" stroke-miterlimit="10" stroke-linecap="round" stroke-linejoin="round"/>
<path d="M110.656 36.2562C110.978 36.2562 111.239 35.9953 111.239 35.6733C111.239 35.3514 110.978 35.0905 110.656 35.0905C110.334 35.0905 110.073 35.3514 110.073 35.6733C110.073 35.9953 110.334 36.2562 110.656 36.2562Z" stroke="#5672B6" stroke-width="0.54" stroke-miterlimit="10" stroke-linecap="round" stroke-linejoin="round"/>
<path d="M78.4786 5.91872C78.8005 5.91872 79.0615 5.65775 79.0615 5.33582C79.0615 5.0139 78.8005 4.75293 78.4786 4.75293C78.1567 4.75293 77.8957 5.0139 77.8957 5.33582C77.8957 5.65775 78.1567 5.91872 78.4786 5.91872Z" stroke="#5672B6" stroke-width="3.536" stroke-miterlimit="10" stroke-linecap="round" stroke-linejoin="round"/>
<path d="M87.9507 58.7971H10.3042C9.49059 58.7971 8.83102 58.1376 8.83102 57.324V16.2476C8.83102 15.434 9.49059 14.7744 10.3042 14.7744H87.9507C88.7643 14.7744 89.4239 15.434 89.4239 16.2476V57.324C89.4239 58.1376 88.7643 58.7971 87.9507 58.7971Z" fill="#E3E8FF"/>
<path d="M49.1274 36.7856H8.83093V16.6722C8.83093 15.4362 9.83292 14.4343 11.0688 14.4343H49.1274L49.1274 36.7856ZM87.1859 58.6585H49.1274V36.8257H89.4238V56.4205C89.4239 57.6565 88.4219 58.6585 87.1859 58.6585Z" fill="#F0F3FF"/>
<path d="M87.9513 59.0571H10.3048C9.15799 59.0571 8.22504 58.124 8.22504 56.9773V15.9008C8.22504 14.7541 9.15807 13.821 10.3048 13.821H87.9513C89.0982 13.821 90.0311 14.7541 90.0311 15.9008V56.9772C90.0311 58.124 89.0981 59.0571 87.9513 59.0571ZM10.3048 15.0343C9.827 15.0343 9.43825 15.423 9.43825 15.9008V56.9772C9.43825 57.455 9.827 57.8438 10.3048 57.8438H87.9513C88.4292 57.8438 88.8179 57.455 88.8179 56.9772V15.9008C88.8179 15.423 88.4292 15.0343 87.9513 15.0343H10.3048Z" fill="#0047AB"/>
<path d="M87.9507 59.0571V57.8439C88.4285 57.8439 88.8173 57.4551 88.8173 56.9773H90.0305C90.0305 58.124 89.0975 59.0571 87.9507 59.0571ZM90.0305 15.9008H88.8173C88.8173 15.423 88.4285 15.0343 87.9507 15.0343V13.821C89.0975 13.821 90.0305 14.7541 90.0305 15.9008ZM9.43755 15.9008H8.22433C8.22433 14.7541 9.15737 13.821 10.3041 13.821V15.0343C9.82638 15.0343 9.43755 15.423 9.43755 15.9008ZM10.3042 59.0571C9.15737 59.0571 8.22441 58.124 8.22441 56.9773H9.43762C9.43762 57.4551 9.82638 57.8439 10.3042 57.8439V59.0571Z" fill="#0047AB"/>
<path d="M13.0101 32.1627H13.0539" stroke="#4C4D51" stroke-width="0.1" stroke-linecap="round" stroke-linejoin="round"/>
<path d="M13.4024 32.1627H42.0181" stroke="#4C4D51" stroke-width="0.1" stroke-linecap="round" stroke-linejoin="round" stroke-dasharray="1.12 4.47"/>
<path d="M42.1926 32.1627H42.2363" stroke="#4C4D51" stroke-width="0.1" stroke-linecap="round" stroke-linejoin="round"/>
<path d="M13.0101 27.7723H13.0539" stroke="#4C4D51" stroke-width="0.1" stroke-linecap="round" stroke-linejoin="round"/>
<path d="M13.4024 27.7723H42.0181" stroke="#4C4D51" stroke-width="0.1" stroke-linecap="round" stroke-linejoin="round" stroke-dasharray="1.12 4.47"/>
<path d="M42.1926 27.7723H42.2363" stroke="#4C4D51" stroke-width="0.1" stroke-linecap="round" stroke-linejoin="round"/>
<path d="M13.0101 23.382H13.0539" stroke="#4C4D51" stroke-width="0.1" stroke-linecap="round" stroke-linejoin="round"/>
<path d="M13.4024 23.382H42.0181" stroke="#4C4D51" stroke-width="0.1" stroke-linecap="round" stroke-linejoin="round" stroke-dasharray="1.12 4.47"/>
<path d="M42.1926 23.382H42.2363" stroke="#4C4D51" stroke-width="0.1" stroke-linecap="round" stroke-linejoin="round"/>
<path d="M13.0101 18.9916H13.0539" stroke="#4C4D51" stroke-width="0.1" stroke-linecap="round" stroke-linejoin="round"/>
<path d="M13.4024 18.9916H42.0181" stroke="#4C4D51" stroke-width="0.1" stroke-linecap="round" stroke-linejoin="round" stroke-dasharray="1.12 4.47"/>
<path d="M42.1926 18.9916H42.2363" stroke="#4C4D51" stroke-width="0.1" stroke-linecap="round" stroke-linejoin="round"/>
<path d="M41.625 17.4855V19.7149L40.8844 18.9743L32.8391 27.0515L31.0103 25.2226L25.0536 31.1792L22.0649 28.1904L15.0149 35.2101H13.3869L22.0649 26.5664L25.0536 29.5551L31.0103 23.5986L32.8391 25.4274L40.0722 18.1624L39.3956 17.4855H41.625Z" fill="#6495ED"/>
<path d="M43.1621 35.2101H13.0101V16.8829" stroke="#4C4D51" stroke-width="0.1" stroke-miterlimit="10"/>
<path d="M43.1621 35.7612V34.6592L43.7131 35.2102L43.1621 35.7612Z" fill="#4C4D51"/>
<path d="M13.5611 16.8829H12.4591L13.0101 16.332L13.5611 16.8829Z" fill="#4C4D51"/>
<path d="M53.1002 53.3583H53.1439" stroke="#4C4D51" stroke-width="0.1" stroke-linecap="round" stroke-linejoin="round"/>
<path d="M53.4925 53.3583H82.1081" stroke="#4C4D51" stroke-width="0.1" stroke-linecap="round" stroke-linejoin="round" stroke-dasharray="1.12 4.47"/>
<path d="M82.2826 53.3583H82.3264" stroke="#4C4D51" stroke-width="0.1" stroke-linecap="round" stroke-linejoin="round"/>
<path d="M53.1002 48.9679H53.1439" stroke="#4C4D51" stroke-width="0.1" stroke-linecap="round" stroke-linejoin="round"/>
<path d="M53.4925 48.9679H82.1081" stroke="#4C4D51" stroke-width="0.1" stroke-linecap="round" stroke-linejoin="round" stroke-dasharray="1.12 4.47"/>
<path d="M82.2826 48.9679H82.3264" stroke="#4C4D51" stroke-width="0.1" stroke-linecap="round" stroke-linejoin="round"/>
<path d="M53.1002 44.5774H53.1439" stroke="#4C4D51" stroke-width="0.1" stroke-linecap="round" stroke-linejoin="round"/>
<path d="M53.4925 44.5774H82.1081" stroke="#4C4D51" stroke-width="0.1" stroke-linecap="round" stroke-linejoin="round" stroke-dasharray="1.12 4.47"/>
<path d="M82.2826 44.5774H82.3264" stroke="#4C4D51" stroke-width="0.1" stroke-linecap="round" stroke-linejoin="round"/>
<path d="M53.1002 40.187H53.1439" stroke="#4C4D51" stroke-width="0.1" stroke-linecap="round" stroke-linejoin="round"/>
<path d="M53.4925 40.187H82.1081" stroke="#4C4D51" stroke-width="0.1" stroke-linecap="round" stroke-linejoin="round" stroke-dasharray="1.12 4.47"/>
<path d="M82.2826 40.187H82.3264" stroke="#4C4D51" stroke-width="0.1" stroke-linecap="round" stroke-linejoin="round"/>
<path d="M83.2522 56.5356H52.9702V38.0785H53.2302V56.2757H83.2522V56.5356Z" fill="#4C4D51"/>
<path d="M83.2522 56.9565V55.8546L83.8032 56.4056L83.2522 56.9565Z" fill="#4C4D51"/>
<path d="M53.6511 38.0785H52.5492L53.1002 37.5275L53.6511 38.0785Z" fill="#4C4D51"/>
<path d="M80.519 40.7231L80.3112 39.9722L79.5602 40.18L79.9194 40.3835L74.2043 50.7018L66.0832 45.861L61.7208 50.9756L58.0566 48.6229L52.9916 56.3343L53.2089 56.477L58.1326 48.9808L61.7712 51.317L66.1385 46.1966L74.3016 51.0625L80.1457 40.5116L80.519 40.7231Z" fill="#4C4D51"/>
<path d="M83.023 39.7956L83.0218 39.0164L82.2426 39.0175L82.5405 39.3145L73.2901 48.5328L63.227 45.8801L58.4209 52.7001H53.1002V52.96H58.5558L63.3355 46.1775L73.2958 48.8032L73.368 48.8222L82.7245 39.4981L82.7133 39.4869L83.023 39.7956Z" fill="#6495ED"/>
<path d="M51.4001 32.4371H86.7516" stroke="#4C4D51" stroke-width="0.1" stroke-miterlimit="10" stroke-linecap="round" stroke-linejoin="round" stroke-dasharray="1.11 4.44"/>
<path d="M56.3607 28.7458H53.1492C52.9099 28.7458 52.7159 28.9398 52.7159 29.1791V35.2101H56.794V29.1791C56.794 28.9398 56.6 28.7458 56.3607 28.7458Z" fill="#6495ED"/>
<path d="M51.4001 28.7458H86.7516" stroke="#4C4D51" stroke-width="0.1" stroke-miterlimit="10" stroke-linecap="round" stroke-linejoin="round" stroke-dasharray="1.11 4.44"/>
<path d="M51.4001 25.0547H86.7516" stroke="#4C4D51" stroke-width="0.1" stroke-miterlimit="10" stroke-linecap="round" stroke-linejoin="round" stroke-dasharray="1.11 4.44"/>
<path d="M51.4001 21.3634H86.7516" stroke="#4C4D51" stroke-width="0.1" stroke-miterlimit="10" stroke-linecap="round" stroke-linejoin="round" stroke-dasharray="1.11 4.44"/>
<path d="M51.4001 17.6722H86.7516" stroke="#4C4D51" stroke-width="0.1" stroke-miterlimit="10" stroke-linecap="round" stroke-linejoin="round" stroke-dasharray="1.11 4.44"/>
<path d="M63.3517 26.1461H60.1402C59.9009 26.1461 59.7069 26.3401 59.7069 26.5794V35.2102H63.785V26.5794C63.785 26.3401 63.591 26.1461 63.3517 26.1461ZM70.3427 24.4129H67.1312C66.8919 24.4129 66.6979 24.6069 66.6979 24.8462V35.2102H70.7759V24.8462C70.7759 24.6069 70.582 24.4129 70.3427 24.4129ZM77.3336 21.8132H74.1221C73.8828 21.8132 73.6889 22.0072 73.6889 22.2465V35.2102H77.7669V22.2465C77.7669 22.0072 77.5729 21.8132 77.3336 21.8132ZM84.3246 20.08H81.1131C80.8738 20.08 80.6798 20.2739 80.6798 20.5132V35.2102H84.7579V20.5132C84.7579 20.2739 84.5639 20.08 84.3246 20.08Z" fill="#6495ED"/>
<path d="M86.7516 35.0369H51.4001" stroke="#4C4D51" stroke-width="0.1" stroke-miterlimit="10"/>
<path d="M33.1743 53.1436C36.2406 50.0772 36.2405 45.1057 33.1741 42.0395C30.1078 38.9732 25.1363 38.9733 22.07 42.0396C19.0038 45.106 19.0038 50.0775 22.0702 53.1438C25.1366 56.21 30.1081 56.2099 33.1743 53.1436Z" fill="#D0D0D0"/>
<path d="M32.7413 52.7106C35.5684 49.8834 35.5683 45.2996 32.7411 42.4725C29.9139 39.6454 25.3302 39.6455 22.503 42.4727C19.6759 45.2999 19.676 49.8836 22.5032 52.7107C25.3304 55.5379 29.9142 55.5378 32.7413 52.7106Z" fill="white"/>
<path d="M27.623 47.5918L32.7386 52.344C31.4181 53.7654 29.5632 54.5741 27.623 54.5741C24.9866 54.5741 22.5661 53.081 21.3831 50.7248L27.623 47.5918Z" fill="#F0F0F0"/>
<path d="M27.623 47.5918L30.9688 41.4634C33.2076 42.6856 34.6053 45.0412 34.6053 47.5918C34.6053 49.3493 33.9418 51.0435 32.7483 52.3335L27.623 47.5918Z" fill="#0047AB"/>
<path d="M27.623 47.5919L21.4149 50.7874C20.9062 49.7991 20.6408 48.7034 20.6408 47.5919C20.6408 43.7615 23.7927 40.6096 27.623 40.6096C28.8233 40.6096 30.0035 40.9191 31.0493 41.5081L27.623 47.5919Z" fill="#6495ED"/>
<path opacity="0.31" d="M65.2899 88.3347L56.702 84.1773L47.0103 95.7353L45.383 93.4252L47.4085 77.8881L39.3858 53.7404L21 60.2496L25.8971 72.5776L41.6352 110.464L45.106 119.049L45.5081 116.556L49.3431 101.933L54.703 95.9819L64.2733 95.246L49.0321 84.697L65.2899 88.3347Z" fill="white"/>
<path d="M50.4849 42.869C56.1706 42.869 60.7797 38.4212 60.7797 32.9345C60.7797 27.4478 56.1706 23 50.4849 23C44.7992 23 40.19 27.4478 40.19 32.9345C40.19 38.4212 44.7992 42.869 50.4849 42.869Z" fill="#0047AB"/>
<path d="M77.6554 102.715L71.3927 105.86C69.572 102.396 65.7104 100.102 61.3368 100.451C56.2198 100.86 52.1382 104.976 51.9258 109.926C51.8462 111.773 52.2862 113.518 53.1283 115.028L52.7034 115.24L49.3578 116.917L45.1094 119.049C42.9169 114.099 41.062 109.129 39.4954 104.225C39.2412 103.44 38.9947 102.647 38.7595 101.862V101.854C38.585 101.277 38.4105 100.686 38.2777 100.227C38.145 99.7715 38.0539 99.4567 38.0539 99.4567C35.2431 89.6512 33.5248 80.2477 32.493 71.9974L32.5006 72.1568C31.1275 63.1023 31.0592 53.2437 31.0592 53.2437C31.0137 51.605 31.0023 50.1218 31.0023 48.8131C31.0023 48.0204 31.0023 47.2883 31.0175 46.6282C31.0592 44.0033 31.154 42.4519 31.1654 42.2319V42.2053L36.6504 42.9488L39.4195 43.4116C39.4005 43.6543 39.3892 43.9009 39.3892 44.1475C39.3892 49.6363 43.9979 54.082 49.6802 54.082C54.4218 54.082 58.4085 50.9943 59.6033 46.7876L62.5621 47.2807L67.076 48.0735V48.0924C67.0646 48.248 66.9433 50.4632 66.9584 54.0251C66.9584 54.0251 67.2202 64.0696 67.645 67.9463C68.1799 73.4427 69.0826 79.5308 70.6113 85.4824C70.6189 85.5014 70.6227 85.5165 70.6265 85.5355C71.2031 87.8759 71.2827 87.948 71.2865 87.948C72.819 93.2472 74.8825 98.3453 77.6592 102.711L77.6554 102.715Z" fill="#6495ED"/>
</svg>
