<svg width="156" height="156" viewBox="0 0 156 156" fill="none" xmlns="http://www.w3.org/2000/svg">
<path d="M4.53702 77.859C3.4192 64.1631 6.53475 49.4356 16.6009 39.5038C20.8293 35.3319 26.1117 32.1434 31.9186 30.7704C39.3254 29.0191 46.9358 30.865 54.4138 29.9144C66.9148 28.3252 81.3906 18.3225 93.6979 18.3102C123.075 18.2808 131.72 35.2776 132.803 38.6873C133.864 42.026 136.163 44.7456 138.559 47.2182C143.779 52.6067 147.764 57.2428 148.134 65.0959C148.452 71.8437 147.208 78.8247 144.849 85.1382C140.14 97.7412 129.734 108.214 116.168 110.613C108.755 111.924 101.921 109.844 94.8247 107.933C87.6532 106.003 80.2897 104.898 72.8627 104.71C64.2675 104.492 55.6389 105.465 47.3152 107.623C39.5784 109.629 31.6822 113.63 23.4939 112.338C9.00392 110.052 5.45671 89.8362 4.53702 77.859Z" fill="white" fill-opacity="0.2"/>
<path d="M107.263 92.7369H103.512C101.957 92.7369 100.697 93.9972 100.697 95.5519V99.3033C100.697 100.858 101.957 102.118 103.512 102.118H104.912L107.263 104.469V102.118C108.818 102.118 110.078 100.858 110.078 99.3033V95.5519C110.078 93.9973 108.818 92.7369 107.263 92.7369Z" fill="#6495ED"/>
<path d="M108.019 95.3402H102.71V96.1881H108.019V95.3402Z" fill="white"/>
<path d="M108.019 96.9988H102.71V97.8466H108.019V96.9988Z" fill="white"/>
<path d="M105.776 98.6573H102.71V99.5051H105.776V98.6573Z" fill="white"/>
<path d="M15.3776 89.1005H10.0457C9.11923 89.1005 8.36816 88.3495 8.36816 87.423V83.4812C8.36816 82.8654 8.86736 82.3661 9.48325 82.3661H15.9402C16.556 82.3661 17.0553 82.8653 17.0553 83.4812V87.423C17.0552 88.3495 16.3041 89.1005 15.3776 89.1005Z" fill="#6495ED"/>
<path d="M15.9885 87.5091C15.7316 87.2262 15.4689 86.9491 15.2083 86.6698C14.9444 86.3939 14.6837 86.1148 14.417 85.8416C14.1882 85.6073 13.9615 85.371 13.7315 85.1379L13.8004 85.085C14.1298 84.8247 14.4626 84.5688 14.7886 84.3041C15.117 84.0424 15.4417 83.7759 15.7657 83.5086C16.0877 83.2385 16.4103 82.9693 16.7246 82.6891C16.3701 82.9164 16.0239 83.1544 15.6771 83.3918C15.3323 83.6318 14.9882 83.8727 14.6477 84.1184C14.3049 84.3611 13.9688 84.6126 13.6294 84.8597L13.5301 84.934L13.529 84.9329L13.4281 85.0087L12.7086 85.5489L11.9337 85.0059L11.8283 84.9321L11.8271 84.9335L11.7626 84.8885C11.4143 84.6519 11.0691 84.4111 10.7176 84.1791C10.3683 83.944 10.0155 83.7139 9.66205 83.4847C9.30676 83.2581 8.95186 83.031 8.58923 82.8147C8.91371 83.0849 9.24592 83.3441 9.57765 83.6039C9.91126 83.8612 10.2455 84.1175 10.5833 84.3689C10.9189 84.6234 11.2607 84.869 11.5995 85.1189L11.638 85.1466C11.42 85.3928 11.205 85.6416 10.988 85.8887C10.7363 86.1759 10.4904 86.4683 10.2414 86.7578C9.99581 87.0505 9.748 87.3412 9.5062 87.6373C9.26245 87.9317 9.02237 88.2293 8.78595 88.5302C9.06028 88.2634 9.33094 87.9932 9.59793 87.7198C9.86687 87.4481 10.1298 87.171 10.3951 86.896C10.6568 86.6178 10.9216 86.3424 11.1806 86.0619C11.4103 85.8128 11.6421 85.5655 11.8704 85.3152L12.6254 85.8553L12.6356 85.8626L12.7148 85.9195L12.7906 85.8612L12.8021 85.8525L13.504 85.3144C13.7454 85.5531 13.9907 85.788 14.2335 86.0252C14.5067 86.2919 14.7859 86.5526 15.0618 86.8165C15.341 87.0771 15.6181 87.3398 15.901 87.5968C16.1821 87.8555 16.4665 88.1109 16.7546 88.3627C16.5027 88.0746 16.2473 87.7901 15.9885 87.5091Z" fill="#0047AB"/>
<path d="M95.4671 92.2984C95.0729 91.9041 94.5966 91.707 94.0383 91.707C93.48 91.707 93.0038 91.9041 92.6095 92.2984C92.2152 92.6926 92.0182 93.1688 92.0182 93.7272C92.0182 94.2855 92.2153 94.7616 92.6095 95.1559C93.0037 95.5502 93.48 95.7473 94.0383 95.7473C94.5966 95.7473 95.0728 95.5502 95.4671 95.1559C95.8614 94.7617 96.0584 94.2855 96.0584 93.7272C96.0584 93.1688 95.8613 92.6926 95.4671 92.2984Z" fill="#FDC564"/>
<path d="M95.2008 95.3762C95.1998 95.375 95.1986 95.3744 95.1972 95.3744H94.9657C94.9643 95.3744 94.9631 95.375 94.9621 95.3762C94.9609 95.3772 94.9604 95.3784 94.9603 95.3798C94.9604 95.3812 94.9609 95.3825 94.9621 95.3835C94.9631 95.3846 94.9643 95.3852 94.9657 95.3853H95.1972C95.1986 95.3852 95.1998 95.3846 95.2008 95.3835C95.202 95.3825 95.2025 95.3812 95.2026 95.3798C95.2025 95.3784 95.202 95.3772 95.2008 95.3762ZM95.3936 95.2183C95.3926 95.2171 95.3914 95.2165 95.39 95.2164H95.1586C95.1571 95.2165 95.1559 95.2171 95.1549 95.2183C95.1538 95.2192 95.1532 95.2205 95.1531 95.222C95.1532 95.2234 95.1538 95.2246 95.1549 95.2256C95.1559 95.2268 95.1571 95.2273 95.1586 95.2274H95.39C95.3914 95.2273 95.3926 95.2268 95.3936 95.2256C95.3948 95.2246 95.3953 95.2234 95.3954 95.222C95.3953 95.2205 95.3948 95.2192 95.3936 95.2183ZM95.5479 95.0622C95.5469 95.061 95.5457 95.0604 95.5442 95.0603H95.3128C95.3114 95.0604 95.3102 95.061 95.3092 95.0622C95.308 95.0632 95.3075 95.0644 95.3074 95.0658C95.3075 95.0672 95.308 95.0684 95.3092 95.0694C95.3102 95.0706 95.3114 95.0712 95.3128 95.0713H95.5442C95.5457 95.0712 95.5469 95.0706 95.5479 95.0694C95.549 95.0684 95.5496 95.0672 95.5497 95.0658C95.5496 95.0644 95.549 95.0632 95.5479 95.0622ZM95.6746 94.9061C95.6736 94.9049 95.6724 94.9043 95.671 94.9042H95.4396C95.4381 94.9043 95.4369 94.9049 95.4359 94.9061C95.4348 94.907 95.4342 94.9083 95.4341 94.9097C95.4342 94.9111 95.4348 94.9123 95.4359 94.9133C95.4369 94.9145 95.4382 94.9151 95.4396 94.9151H95.671C95.6724 94.9151 95.6736 94.9145 95.6746 94.9133C95.6758 94.9123 95.6764 94.9111 95.6765 94.9097C95.6764 94.9083 95.6757 94.907 95.6746 94.9061ZM94.7068 95.5396C94.7078 95.5408 94.709 95.5414 94.7104 95.5415H94.9418C94.9432 95.5414 94.9445 95.5408 94.9455 95.5396C94.9466 95.5386 94.9472 95.5374 94.9473 95.536C94.9472 95.5345 94.9466 95.5333 94.9455 95.5324C94.9445 95.5312 94.9432 95.5306 94.9418 95.5305H94.7104C94.709 95.5306 94.7078 95.5312 94.7068 95.5324C94.7056 95.5333 94.705 95.5346 94.705 95.536C94.705 95.5374 94.7056 95.5386 94.7068 95.5396ZM94.2752 95.6975C94.2762 95.6987 94.2774 95.6993 94.2788 95.6994H94.5103C94.5117 95.6993 94.5129 95.6987 94.5139 95.6975C94.5151 95.6966 94.5156 95.6953 94.5157 95.6939C94.5156 95.6924 94.5151 95.6913 94.5139 95.6903C94.5129 95.6891 94.5117 95.6885 94.5103 95.6885H94.2788C94.2774 95.6885 94.2762 95.6891 94.2752 95.6903C94.274 95.6913 94.2735 95.6925 94.2734 95.6939C94.2735 95.6953 94.274 95.6966 94.2752 95.6975ZM95.8637 94.592C95.8627 94.5909 95.8615 94.5903 95.8601 94.5902H95.6287C95.6272 94.5903 95.626 94.5909 95.625 94.592C95.6239 94.593 95.6233 94.5943 95.6232 94.5957C95.6233 94.5971 95.6239 94.5983 95.625 94.5993C95.626 94.6005 95.6273 94.601 95.6287 94.6011H95.8601C95.8615 94.601 95.8627 94.6005 95.8637 94.5993C95.8649 94.5983 95.8655 94.5971 95.8655 94.5957C95.8655 94.5943 95.8649 94.593 95.8637 94.592ZM95.9317 94.4341C95.9307 94.433 95.9295 94.4324 95.9281 94.4323H95.6948C95.6933 94.4324 95.6922 94.433 95.6912 94.4341C95.69 94.4351 95.6894 94.4364 95.6894 94.4378C95.6894 94.4392 95.69 94.4404 95.6912 94.4414C95.6922 94.4426 95.6934 94.4431 95.6948 94.4432H95.9281C95.9295 94.4431 95.9307 94.4426 95.9317 94.4414C95.9328 94.4404 95.9334 94.4392 95.9335 94.4378C95.9334 94.4363 95.9328 94.4351 95.9317 94.4341ZM95.7462 94.2761C95.7448 94.2762 95.7436 94.2768 95.7426 94.2779C95.7414 94.2789 95.7409 94.2802 95.7408 94.2816C95.7409 94.283 95.7414 94.2842 95.7426 94.2852C95.7436 94.2864 95.7448 94.287 95.7462 94.287H95.9777C95.9791 94.287 95.9803 94.2864 95.9813 94.2852C95.9825 94.2842 95.983 94.283 95.9831 94.2816C95.983 94.2801 95.9825 94.2789 95.9813 94.2779C95.9803 94.2768 95.9791 94.2762 95.9777 94.2761H95.7462ZM96.018 94.1201C96.017 94.1189 96.0158 94.1184 96.0144 94.1183H95.783C95.7815 94.1184 95.7803 94.1189 95.7793 94.1201C95.7782 94.1211 95.7776 94.1223 95.7775 94.1237C95.7776 94.1251 95.7782 94.1264 95.7793 94.1274C95.7803 94.1285 95.7815 94.1291 95.783 94.1292H96.0144C96.0158 94.1291 96.017 94.1285 96.018 94.1274C96.0192 94.1264 96.0197 94.1251 96.0198 94.1237C96.0197 94.1222 96.0192 94.1211 96.018 94.1201ZM95.5405 94.7555C95.5415 94.7566 95.5428 94.7572 95.5442 94.7573H95.7774C95.7788 94.7572 95.7801 94.7566 95.781 94.7555C95.7822 94.7545 95.7828 94.7533 95.7829 94.7519C95.7828 94.7504 95.7822 94.7492 95.781 94.7482C95.7801 94.7471 95.7788 94.7465 95.7774 94.7464H95.5442C95.5428 94.7465 95.5415 94.7471 95.5405 94.7482C95.5394 94.7492 95.5388 94.7505 95.5387 94.7519C95.5388 94.7533 95.5394 94.7544 95.5405 94.7555ZM95.8123 93.8152C95.8133 93.8163 95.8145 93.8169 95.8159 93.817H96.0474C96.0488 93.8169 96.05 93.8163 96.051 93.8152C96.0522 93.8142 96.0527 93.8129 96.0528 93.8115C96.0527 93.81 96.0522 93.8089 96.051 93.8079C96.05 93.8067 96.0488 93.8062 96.0474 93.8061H95.8159C95.8144 93.8062 95.8133 93.8067 95.8123 93.8079C95.8111 93.8089 95.8106 93.8101 95.8105 93.8115C95.8106 93.8129 95.8111 93.8142 95.8123 93.8152ZM95.805 93.9621C95.8036 93.9622 95.8024 93.9628 95.8014 93.9639C95.8002 93.9649 95.7996 93.9662 95.7996 93.9676C95.7996 93.969 95.8002 93.9702 95.8014 93.9712C95.8024 93.9723 95.8036 93.9729 95.805 93.973H96.0364C96.0378 93.9729 96.0391 93.9723 96.0401 93.9712C96.0412 93.9702 96.0418 93.969 96.0419 93.9676C96.0418 93.9662 96.0412 93.9649 96.0401 93.9639C96.0391 93.9628 96.0378 93.9622 96.0364 93.9621H95.805ZM95.8178 93.6481C95.8164 93.6482 95.8152 93.6487 95.8142 93.6499C95.813 93.6509 95.8125 93.6521 95.8124 93.6535C95.8125 93.6549 95.813 93.6562 95.8142 93.6572C95.8152 93.6583 95.8164 93.6589 95.8178 93.659H96.0493C96.0507 93.6589 96.0519 93.6583 96.0529 93.6572C96.0541 93.6562 96.0546 93.6549 96.0547 93.6535C96.0546 93.652 96.0541 93.6509 96.0529 93.6499C96.0519 93.6487 96.0507 93.6482 96.0493 93.6481H95.8178ZM95.9849 93.1798C95.9839 93.1786 95.9827 93.178 95.9813 93.178H95.7499C95.7484 93.178 95.7472 93.1786 95.7462 93.1798C95.7451 93.1808 95.7445 93.182 95.7444 93.1834C95.7445 93.1848 95.7451 93.1861 95.7462 93.1871C95.7472 93.1882 95.7485 93.1888 95.7499 93.1889H95.9813C95.9827 93.1888 95.9839 93.1882 95.9849 93.1871C95.9861 93.1861 95.9867 93.1848 95.9868 93.1834C95.9868 93.182 95.9861 93.1808 95.9849 93.1798ZM96.0198 93.3359C96.0188 93.3347 96.0176 93.3341 96.0162 93.3341H95.7848C95.7834 93.3341 95.7821 93.3347 95.7811 93.3359C95.78 93.3369 95.7794 93.3381 95.7793 93.3395C95.7794 93.3409 95.78 93.3422 95.7811 93.3432C95.7821 93.3443 95.7834 93.3449 95.7848 93.345H96.0162C96.0176 93.3449 96.0188 93.3443 96.0198 93.3432C96.021 93.3422 96.0216 93.3409 96.0216 93.3395C96.0216 93.3381 96.021 93.3369 96.0198 93.3359ZM96.0419 93.4938C96.0409 93.4926 96.0397 93.4921 96.0383 93.492H95.8068C95.8054 93.4921 95.8042 93.4926 95.8032 93.4938C95.8021 93.4948 95.8015 93.496 95.8014 93.4974C95.8015 93.4989 95.8021 93.5001 95.8032 93.5011C95.8042 93.5022 95.8054 93.5028 95.8068 93.5029H96.0383C96.0397 93.5028 96.0409 93.5022 96.0419 93.5011C96.0431 93.5001 96.0436 93.4988 96.0437 93.4974C96.0436 93.496 96.0431 93.4949 96.0419 93.4938ZM95.7003 93.02C95.6989 93.0201 95.6976 93.0207 95.6966 93.0219C95.6955 93.0229 95.6949 93.0241 95.6948 93.0255C95.6949 93.0269 95.6955 93.0281 95.6966 93.0291C95.6976 93.0303 95.6989 93.0309 95.7003 93.031H95.9317C95.9331 93.0309 95.9343 93.0303 95.9353 93.0291C95.9365 93.0281 95.9371 93.0269 95.9372 93.0255C95.9371 93.024 95.9365 93.0229 95.9353 93.0219C95.9343 93.0207 95.9331 93.0201 95.9317 93.02H95.7003ZM95.6305 92.8731C95.6315 92.8743 95.6327 92.8749 95.6341 92.8749H95.8655C95.8669 92.8749 95.8682 92.8743 95.8692 92.8731C95.8703 92.8721 95.8709 92.8709 95.871 92.8695C95.8709 92.868 95.8703 92.8668 95.8692 92.8658C95.8682 92.8647 95.8669 92.8641 95.8655 92.864H95.6341C95.6326 92.8641 95.6315 92.8647 95.6305 92.8658C95.6293 92.8668 95.6287 92.8681 95.6287 92.8695C95.6287 92.8709 95.6294 92.8721 95.6305 92.8731ZM95.5479 92.7152C95.5489 92.7164 95.5501 92.7169 95.5515 92.717H95.783C95.7844 92.7169 95.7856 92.7164 95.7866 92.7152C95.7877 92.7142 95.7883 92.713 95.7884 92.7116C95.7883 92.7102 95.7877 92.7089 95.7866 92.7079C95.7856 92.7068 95.7844 92.7062 95.783 92.7061H95.5515C95.5501 92.7062 95.5489 92.7068 95.5479 92.7079C95.5467 92.7089 95.5462 92.7102 95.5461 92.7116C95.5462 92.713 95.5467 92.7142 95.5479 92.7152ZM95.445 92.5591C95.446 92.5603 95.4473 92.5608 95.4487 92.5609H95.6801C95.6815 92.5608 95.6827 92.5603 95.6837 92.5591C95.6849 92.5581 95.6855 92.5569 95.6855 92.5555C95.6855 92.554 95.6849 92.5528 95.6837 92.5518C95.6827 92.5507 95.6815 92.5501 95.6801 92.55H95.4487C95.4472 92.5501 95.446 92.5507 95.445 92.5518C95.4439 92.5528 95.4433 92.5541 95.4432 92.5555C95.4433 92.5569 95.4439 92.5581 95.445 92.5591ZM95.322 92.3938C95.3206 92.3939 95.3194 92.3945 95.3184 92.3956C95.3172 92.3966 95.3166 92.3979 95.3166 92.3993C95.3166 92.4007 95.3172 92.4019 95.3184 92.4029C95.3194 92.4041 95.3206 92.4046 95.322 92.4047H95.5534C95.5548 92.4046 95.5561 92.4041 95.5571 92.4029C95.5582 92.4019 95.5588 92.4007 95.5589 92.3993C95.5588 92.3978 95.5582 92.3966 95.5571 92.3956C95.5561 92.3945 95.5548 92.3939 95.5534 92.3938H95.322ZM95.4046 92.2414C95.4045 92.24 95.4039 92.2387 95.4028 92.2377C95.4018 92.2366 95.4006 92.236 95.3991 92.2359H95.1677C95.1663 92.236 95.1651 92.2366 95.1641 92.2377C95.1629 92.2387 95.1623 92.24 95.1623 92.2414C95.1623 92.2428 95.1629 92.244 95.1641 92.245C95.1651 92.2462 95.1663 92.2467 95.1677 92.2468H95.3991C95.4006 92.2467 95.4018 92.2462 95.4028 92.245C95.4039 92.244 95.4046 92.2428 95.4046 92.2414ZM94.9805 92.0798C94.979 92.0799 94.9778 92.0805 94.9767 92.0816C94.9756 92.0826 94.975 92.0839 94.9749 92.0853C94.975 92.0868 94.9756 92.0879 94.9767 92.0889C94.9777 92.0901 94.979 92.0906 94.9805 92.0907H95.2119C95.2133 92.0906 95.2145 92.0901 95.2155 92.0889C95.2167 92.0879 95.2173 92.0867 95.2173 92.0853C95.2173 92.0839 95.2167 92.0826 95.2155 92.0816C95.2145 92.0805 95.2133 92.0799 95.2119 92.0798H94.9805ZM94.7251 91.931C94.7261 91.9321 94.7274 91.9327 94.7288 91.9328H94.9602C94.9616 91.9327 94.9628 91.9321 94.9638 91.931C94.965 91.93 94.9656 91.9288 94.9657 91.9273C94.9656 91.9259 94.965 91.9246 94.9638 91.9236C94.9628 91.9225 94.9616 91.9219 94.9602 91.9218H94.7288C94.7273 91.9219 94.7261 91.9225 94.7251 91.9236C94.724 91.9246 94.7234 91.9259 94.7233 91.9273C94.7234 91.9288 94.724 91.93 94.7251 91.931ZM94.3193 91.775C94.3203 91.7761 94.3216 91.7767 94.323 91.7768H94.5544C94.5558 91.7767 94.5571 91.7761 94.558 91.775C94.5592 91.774 94.5598 91.7727 94.5599 91.7713C94.5598 91.7698 94.5592 91.7687 94.558 91.7677C94.5571 91.7665 94.5558 91.766 94.5544 91.7659H94.323C94.3215 91.766 94.3203 91.7665 94.3193 91.7677C94.3182 91.7687 94.3176 91.7699 94.3175 91.7713C94.3175 91.7727 94.3181 91.7739 94.3193 91.775Z" fill="#CA872A"/>
<path d="M95.2357 92.2984C94.8415 91.9041 94.3652 91.707 93.8069 91.707C93.2486 91.707 92.7724 91.9041 92.3781 92.2984C91.9838 92.6926 91.7868 93.1688 91.7868 93.7272C91.7868 94.2855 91.9839 94.7616 92.3781 95.1559C92.7723 95.5502 93.2486 95.7473 93.8069 95.7473C94.3651 95.7473 94.8414 95.5502 95.2357 95.1559C95.6299 94.7617 95.827 94.2855 95.827 93.7272C95.827 93.1688 95.6299 92.6926 95.2357 92.2984Z" fill="#FBB43C"/>
<path d="M94.9426 92.5911C94.6293 92.2778 94.2508 92.1211 93.807 92.1211C93.3633 92.1211 92.9848 92.2778 92.6714 92.5911C92.3581 92.9044 92.2014 93.2829 92.2014 93.7267C92.2014 94.1704 92.3581 94.5489 92.6714 94.8623C92.9847 95.1756 93.3632 95.3323 93.807 95.3323C94.2507 95.3323 94.6292 95.1756 94.9426 94.8623C95.2559 94.549 95.4126 94.1705 95.4126 93.7267C95.4126 93.283 95.2559 92.9045 94.9426 92.5911Z" fill="#F4A621"/>
<path d="M93.4215 93.083C93.3473 93.1571 93.3103 93.2524 93.3103 93.3689C93.3103 93.4368 93.3212 93.495 93.3431 93.5437C93.3643 93.5925 93.3946 93.6352 93.4342 93.6719C93.4723 93.7079 93.5189 93.7401 93.574 93.7683C93.6284 93.7958 93.693 93.8237 93.7678 93.852C93.8434 93.8802 93.8971 93.9113 93.9288 93.9452C93.9592 93.9784 93.9744 94.0232 93.9744 94.0797C93.9744 94.1341 93.9571 94.1775 93.9225 94.21C93.8872 94.2418 93.8392 94.2577 93.7784 94.2577C93.705 94.2577 93.6492 94.2358 93.6111 94.192C93.5716 94.1483 93.5518 94.0854 93.5518 94.0035H93.2531C93.2531 94.1447 93.2919 94.258 93.3696 94.3435C93.4472 94.4282 93.5567 94.4783 93.6979 94.4939V94.6983H93.8621V94.4928C93.9906 94.4794 94.0912 94.4363 94.1639 94.3636C94.2374 94.2902 94.2741 94.1948 94.2741 94.0776C94.2741 94.0148 94.2642 93.96 94.2444 93.9134C94.2254 93.8654 94.1975 93.8234 94.1607 93.7874C94.1247 93.75 94.0799 93.7168 94.0262 93.6878C93.9732 93.6582 93.9058 93.6267 93.8239 93.5936C93.7413 93.5604 93.6848 93.5279 93.6544 93.4961C93.6241 93.4643 93.6089 93.4223 93.6089 93.37C93.6089 93.3135 93.6244 93.2694 93.6555 93.2376C93.6865 93.2051 93.7304 93.1889 93.7868 93.1889C93.844 93.1889 93.8899 93.2097 93.9245 93.2514C93.9577 93.2916 93.9743 93.3535 93.9743 93.4368H94.274C94.274 93.3019 94.2394 93.1924 94.1702 93.1084C94.101 93.0237 94.0057 92.9725 93.8842 92.9548V92.7313H93.718V92.9527C93.5945 92.9647 93.4956 93.0081 93.4215 93.083Z" fill="#624118"/>
<path d="M93.3847 93.083C93.3106 93.1571 93.2735 93.2524 93.2735 93.3689C93.2735 93.4368 93.2844 93.495 93.3063 93.5437C93.3275 93.5925 93.3579 93.6352 93.3974 93.6719C93.4356 93.7079 93.4822 93.7401 93.5372 93.7683C93.5916 93.7958 93.6562 93.8237 93.7311 93.852C93.8066 93.8802 93.8603 93.9113 93.8921 93.9452C93.9224 93.9784 93.9376 94.0232 93.9376 94.0797C93.9376 94.1341 93.9203 94.1775 93.8857 94.21C93.8504 94.2418 93.8024 94.2577 93.7417 94.2577C93.6682 94.2577 93.6124 94.2358 93.5743 94.192C93.5348 94.1483 93.515 94.0854 93.515 94.0035H93.2162C93.2162 94.1447 93.2551 94.258 93.3327 94.3435C93.4104 94.4282 93.5199 94.4783 93.6611 94.4939V94.6983H93.8253V94.4928C93.9538 94.4794 94.0545 94.4363 94.1272 94.3636C94.2006 94.2902 94.2373 94.1948 94.2373 94.0776C94.2373 94.0148 94.2275 93.96 94.2077 93.9134C94.1886 93.8654 94.1607 93.8234 94.124 93.7874C94.088 93.75 94.0431 93.7168 93.9894 93.6878C93.9365 93.6582 93.869 93.6267 93.7872 93.5936C93.7045 93.5604 93.6481 93.5279 93.6177 93.4961C93.5873 93.4643 93.5721 93.4223 93.5721 93.37C93.5721 93.3135 93.5877 93.2694 93.6187 93.2376C93.6498 93.2051 93.6936 93.1889 93.7501 93.1889C93.8072 93.1889 93.8532 93.2097 93.8878 93.2514C93.921 93.2916 93.9376 93.3535 93.9376 93.4368H94.2373C94.2373 93.3019 94.2028 93.1924 94.1335 93.1084C94.0643 93.0237 93.969 92.9725 93.8475 92.9548V92.7313H93.6812V92.9527C93.5577 92.9647 93.4589 93.0081 93.3847 93.083Z" fill="#724B1E"/>
<path d="M95.827 91.707V85.3979" stroke="#0047AB" stroke-miterlimit="10"/>
<path d="M93.5559 90.5589V88.3445" stroke="#0047AB" stroke-miterlimit="10"/>
<path d="M93.5559 86.8019V84.6649" stroke="#0047AB" stroke-miterlimit="10"/>
<path d="M91.3375 93.7325V88.7371" stroke="#0047AB" stroke-miterlimit="10"/>
<path d="M16.8013 56.8382C16.4071 56.4439 15.9308 56.2468 15.3725 56.2468C14.8142 56.2468 14.338 56.4439 13.9437 56.8382C13.5495 57.2324 13.3524 57.7086 13.3524 58.2669C13.3524 58.8252 13.5495 59.3015 13.9437 59.6957C14.3379 60.09 14.8141 60.2871 15.3725 60.2871C15.9307 60.2871 16.407 60.09 16.8013 59.6957C17.1955 59.3015 17.3926 58.8253 17.3926 58.2669C17.3926 57.7086 17.1955 57.2324 16.8013 56.8382Z" fill="#FDC564"/>
<path d="M16.535 59.9161C16.534 59.9149 16.5328 59.9143 16.5314 59.9142H16.3C16.2985 59.9143 16.2973 59.9149 16.2963 59.9161C16.2952 59.917 16.2946 59.9183 16.2945 59.9197C16.2946 59.9211 16.2952 59.9223 16.2963 59.9233C16.2973 59.9245 16.2986 59.9251 16.3 59.9251H16.5314C16.5329 59.9251 16.534 59.9245 16.535 59.9233C16.5362 59.9223 16.5368 59.9211 16.5368 59.9197C16.5368 59.9183 16.5361 59.917 16.535 59.9161ZM16.7278 59.7581C16.7268 59.757 16.7256 59.7564 16.7242 59.7563H16.4928C16.4914 59.7564 16.4901 59.757 16.4891 59.7581C16.488 59.7591 16.4874 59.7604 16.4873 59.7618C16.4874 59.7632 16.488 59.7644 16.4891 59.7654C16.4901 59.7666 16.4914 59.7671 16.4928 59.7672H16.7242C16.7256 59.7671 16.7268 59.7666 16.7278 59.7654C16.729 59.7644 16.7296 59.7632 16.7297 59.7618C16.7296 59.7604 16.729 59.7591 16.7278 59.7581ZM16.8821 59.602C16.8811 59.6009 16.8799 59.6003 16.8785 59.6002H16.6471C16.6456 59.6003 16.6444 59.6009 16.6434 59.602C16.6423 59.603 16.6417 59.6043 16.6416 59.6057C16.6417 59.6071 16.6423 59.6083 16.6434 59.6093C16.6444 59.6105 16.6457 59.611 16.6471 59.6111H16.8785C16.8799 59.611 16.8811 59.6105 16.8821 59.6093C16.8833 59.6083 16.8839 59.6071 16.8839 59.6057C16.8839 59.6043 16.8832 59.603 16.8821 59.602ZM17.0088 59.4459C17.0078 59.4448 17.0066 59.4442 17.0051 59.4441H16.7737C16.7722 59.4442 16.7711 59.4448 16.7701 59.4459C16.7689 59.4469 16.7683 59.4482 16.7683 59.4496C16.7683 59.451 16.7689 59.4522 16.7701 59.4532C16.7711 59.4544 16.7723 59.4549 16.7737 59.455H17.0051C17.0066 59.4549 17.0078 59.4544 17.0088 59.4532C17.0099 59.4522 17.0105 59.451 17.0106 59.4496C17.0105 59.4482 17.0099 59.4469 17.0088 59.4459ZM16.041 60.0795C16.042 60.0807 16.0432 60.0812 16.0447 60.0813H16.2761C16.2775 60.0812 16.2787 60.0807 16.2797 60.0795C16.2809 60.0785 16.2814 60.0773 16.2815 60.0759C16.2814 60.0744 16.2809 60.0732 16.2797 60.0722C16.2787 60.0711 16.2775 60.0705 16.2761 60.0704H16.0447C16.0432 60.0705 16.042 60.0711 16.041 60.0722C16.0399 60.0732 16.0393 60.0745 16.0392 60.0759C16.0392 60.0773 16.0399 60.0785 16.041 60.0795ZM15.6094 60.2374C15.6104 60.2386 15.6117 60.2392 15.6131 60.2392H15.8445C15.8459 60.2392 15.8471 60.2386 15.8481 60.2374C15.8493 60.2364 15.8499 60.2352 15.8499 60.2338C15.8499 60.2324 15.8493 60.2311 15.8481 60.2301C15.8471 60.229 15.8459 60.2284 15.8445 60.2283H15.6131C15.6116 60.2284 15.6104 60.229 15.6094 60.2301C15.6083 60.2311 15.6077 60.2324 15.6076 60.2338C15.6077 60.2352 15.6083 60.2364 15.6094 60.2374ZM17.198 59.1319C17.197 59.1308 17.1957 59.1302 17.1943 59.1301H16.9629C16.9614 59.1302 16.9602 59.1308 16.9593 59.1319C16.9581 59.1329 16.9575 59.1341 16.9574 59.1356C16.9575 59.137 16.9581 59.1382 16.9593 59.1392C16.9602 59.1403 16.9615 59.1409 16.9629 59.141H17.1943C17.1957 59.1409 17.197 59.1403 17.198 59.1392C17.1991 59.1382 17.1997 59.137 17.1998 59.1356C17.1997 59.1341 17.1991 59.1329 17.198 59.1319ZM17.2659 58.974C17.2649 58.9728 17.2637 58.9723 17.2623 58.9722H17.029C17.0276 58.9723 17.0264 58.9728 17.0254 58.974C17.0242 58.975 17.0237 58.9762 17.0236 58.9776C17.0237 58.979 17.0242 58.9803 17.0254 58.9813C17.0264 58.9824 17.0276 58.983 17.029 58.9831H17.2623C17.2637 58.983 17.2649 58.9824 17.2659 58.9813C17.2671 58.9803 17.2677 58.979 17.2677 58.9776C17.2677 58.9761 17.2671 58.975 17.2659 58.974ZM17.0804 58.816C17.079 58.8161 17.0777 58.8167 17.0767 58.8178C17.0756 58.8188 17.075 58.82 17.0749 58.8214C17.075 58.8229 17.0756 58.8241 17.0767 58.8251C17.0777 58.8262 17.079 58.8268 17.0804 58.8269H17.3118C17.3132 58.8268 17.3145 58.8262 17.3154 58.8251C17.3166 58.8241 17.3172 58.8229 17.3173 58.8214C17.3172 58.82 17.3166 58.8188 17.3154 58.8178C17.3145 58.8167 17.3132 58.8161 17.3118 58.816H17.0804ZM17.3522 58.6599C17.3512 58.6587 17.35 58.6582 17.3486 58.6581H17.1172C17.1157 58.6582 17.1145 58.6587 17.1135 58.6599C17.1124 58.6609 17.1118 58.6621 17.1117 58.6635C17.1118 58.665 17.1124 58.6662 17.1135 58.6672C17.1145 58.6683 17.1158 58.6689 17.1172 58.669H17.3486C17.35 58.6689 17.3512 58.6683 17.3522 58.6672C17.3534 58.6662 17.354 58.6649 17.3541 58.6635C17.354 58.6621 17.3534 58.6609 17.3522 58.6599ZM16.8748 59.2954C16.8758 59.2965 16.877 59.2971 16.8784 59.2972H17.1116C17.113 59.2971 17.1143 59.2965 17.1153 59.2954C17.1164 59.2944 17.117 59.2931 17.1171 59.2917C17.117 59.2902 17.1164 59.2891 17.1153 59.2881C17.1143 59.2869 17.113 59.2864 17.1116 59.2863H16.8784C16.8769 59.2864 16.8758 59.2869 16.8748 59.2881C16.8736 59.2891 16.873 59.2903 16.8729 59.2917C16.8729 59.2931 16.8736 59.2943 16.8748 59.2954ZM17.1465 58.3551C17.1475 58.3562 17.1488 58.3568 17.1502 58.3569H17.3816C17.383 58.3568 17.3842 58.3562 17.3852 58.3551C17.3864 58.3541 17.387 58.3528 17.387 58.3514C17.387 58.35 17.3864 58.3488 17.3852 58.3478C17.3842 58.3466 17.383 58.346 17.3816 58.346H17.1502C17.1487 58.346 17.1475 58.3466 17.1465 58.3478C17.1454 58.3488 17.1448 58.35 17.1447 58.3514C17.1448 58.3528 17.1454 58.3541 17.1465 58.3551ZM17.1392 58.502C17.1377 58.5021 17.1365 58.5026 17.1355 58.5038C17.1344 58.5048 17.1338 58.506 17.1337 58.5074C17.1338 58.5088 17.1344 58.5101 17.1355 58.5111C17.1365 58.5122 17.1378 58.5128 17.1392 58.5129H17.3706C17.372 58.5128 17.3732 58.5122 17.3742 58.5111C17.3754 58.5101 17.376 58.5088 17.376 58.5074C17.376 58.5059 17.3754 58.5048 17.3742 58.5038C17.3732 58.5026 17.372 58.5021 17.3706 58.502H17.1392ZM17.1521 58.188C17.1506 58.188 17.1494 58.1886 17.1484 58.1898C17.1473 58.1908 17.1467 58.192 17.1466 58.1934C17.1467 58.1949 17.1473 58.1961 17.1484 58.197C17.1494 58.1982 17.1507 58.1988 17.1521 58.1989H17.3835C17.3849 58.1988 17.3861 58.1982 17.3871 58.197C17.3883 58.1961 17.3889 58.1948 17.3889 58.1934C17.3889 58.192 17.3883 58.1908 17.3871 58.1898C17.3861 58.1886 17.3849 58.188 17.3835 58.188H17.1521ZM17.3192 57.7197C17.3182 57.7185 17.3169 57.7179 17.3155 57.7178H17.0841C17.0826 57.7179 17.0815 57.7185 17.0805 57.7197C17.0793 57.7206 17.0787 57.7219 17.0786 57.7233C17.0787 57.7247 17.0793 57.7259 17.0805 57.7269C17.0815 57.7281 17.0827 57.7287 17.0841 57.7288H17.3155C17.3169 57.7287 17.3182 57.7281 17.3192 57.7269C17.3203 57.7259 17.3209 57.7247 17.321 57.7233C17.3209 57.7219 17.3203 57.7206 17.3192 57.7197ZM17.3541 57.8758C17.3531 57.8746 17.3518 57.874 17.3504 57.8739H17.119C17.1176 57.874 17.1163 57.8746 17.1154 57.8758C17.1142 57.8767 17.1136 57.878 17.1135 57.8794C17.1136 57.8808 17.1142 57.882 17.1154 57.883C17.1163 57.8842 17.1176 57.8848 17.119 57.8849H17.3504C17.3518 57.8848 17.3531 57.8842 17.3541 57.883C17.3552 57.882 17.3558 57.8808 17.3559 57.8794C17.3558 57.878 17.3552 57.8767 17.3541 57.8758ZM17.376 58.0337C17.3751 58.0325 17.3738 58.0319 17.3724 58.0319H17.141C17.1395 58.0319 17.1383 58.0325 17.1374 58.0337C17.1362 58.0347 17.1356 58.0359 17.1355 58.0373C17.1356 58.0387 17.1362 58.04 17.1374 58.041C17.1383 58.0421 17.1396 58.0427 17.141 58.0428H17.3724C17.3739 58.0427 17.3751 58.0421 17.376 58.041C17.3772 58.04 17.3778 58.0387 17.3779 58.0373C17.3779 58.0359 17.3772 58.0347 17.376 58.0337ZM17.0345 57.5599C17.0331 57.56 17.0318 57.5606 17.0309 57.5617C17.0297 57.5627 17.0291 57.564 17.029 57.5654C17.0291 57.5668 17.0297 57.568 17.0309 57.569C17.0318 57.5702 17.0331 57.5708 17.0345 57.5708H17.2659C17.2673 57.5708 17.2686 57.5702 17.2696 57.569C17.2707 57.568 17.2713 57.5668 17.2714 57.5654C17.2713 57.5639 17.2707 57.5627 17.2696 57.5617C17.2686 57.5606 17.2673 57.56 17.2659 57.5599H17.0345ZM16.9647 57.413C16.9657 57.4142 16.9669 57.4147 16.9684 57.4148H17.1998C17.2012 57.4147 17.2024 57.4142 17.2034 57.413C17.2046 57.412 17.2051 57.4108 17.2052 57.4094C17.2051 57.4079 17.2046 57.4067 17.2034 57.4057C17.2024 57.4046 17.2012 57.404 17.1998 57.4039H16.9684C16.9669 57.404 16.9657 57.4046 16.9647 57.4057C16.9636 57.4067 16.963 57.408 16.9629 57.4094C16.963 57.4108 16.9636 57.412 16.9647 57.413ZM16.8821 57.2551C16.8831 57.2562 16.8844 57.2568 16.8858 57.2569H17.1172C17.1186 57.2568 17.1198 57.2562 17.1208 57.2551C17.122 57.2541 17.1226 57.2528 17.1226 57.2514C17.1226 57.2499 17.122 57.2488 17.1208 57.2478C17.1198 57.2466 17.1186 57.2461 17.1172 57.246H16.8858C16.8843 57.2461 16.8831 57.2466 16.8821 57.2478C16.881 57.2488 16.8804 57.25 16.8803 57.2514C16.8803 57.2528 16.881 57.254 16.8821 57.2551ZM16.7793 57.099C16.7803 57.1001 16.7815 57.1007 16.7829 57.1008H17.0143C17.0158 57.1007 17.017 57.1001 17.018 57.099C17.0191 57.098 17.0197 57.0967 17.0198 57.0953C17.0197 57.0938 17.0191 57.0927 17.018 57.0917C17.017 57.0905 17.0157 57.09 17.0143 57.0899H16.7829C16.7814 57.09 16.7803 57.0905 16.7793 57.0917C16.7781 57.0927 16.7775 57.0939 16.7774 57.0953C16.7774 57.0967 16.7781 57.0979 16.7793 57.099ZM16.6562 56.9337C16.6547 56.9338 16.6535 56.9344 16.6525 56.9355C16.6514 56.9365 16.6508 56.9378 16.6507 56.9392C16.6508 56.9406 16.6514 56.9418 16.6525 56.9428C16.6535 56.944 16.6547 56.9445 16.6562 56.9446H16.8876C16.889 56.9445 16.8902 56.944 16.8912 56.9428C16.8924 56.9418 16.8929 56.9406 16.893 56.9392C16.8929 56.9378 16.8924 56.9365 16.8912 56.9355C16.8902 56.9344 16.889 56.9338 16.8876 56.9337H16.6562ZM16.7388 56.7812C16.7388 56.7798 16.7382 56.7786 16.737 56.7776C16.736 56.7764 16.7348 56.7759 16.7334 56.7758H16.502C16.5006 56.7759 16.4993 56.7764 16.4983 56.7776C16.4972 56.7786 16.4966 56.7798 16.4965 56.7812C16.4966 56.7827 16.4972 56.7839 16.4983 56.7849C16.4993 56.786 16.5006 56.7866 16.502 56.7867H16.7334C16.7348 56.7866 16.736 56.786 16.737 56.7849C16.7382 56.7839 16.7388 56.7827 16.7388 56.7812ZM16.3146 56.6197C16.3131 56.6198 16.312 56.6203 16.3109 56.6215C16.3097 56.6225 16.3091 56.6237 16.3091 56.6251C16.3091 56.6265 16.3097 56.6278 16.3109 56.6288C16.3119 56.6299 16.3131 56.6305 16.3146 56.6306H16.546C16.5474 56.6305 16.5487 56.6299 16.5497 56.6288C16.5508 56.6278 16.5514 56.6265 16.5515 56.6251C16.5514 56.6236 16.5508 56.6225 16.5497 56.6215C16.5487 56.6203 16.5474 56.6198 16.546 56.6197H16.3146ZM16.0594 56.4709C16.0604 56.472 16.0616 56.4726 16.063 56.4727H16.2944C16.2958 56.4726 16.2971 56.472 16.2981 56.4709C16.2992 56.4699 16.2998 56.4686 16.2999 56.4672C16.2998 56.4657 16.2992 56.4646 16.2981 56.4636C16.2971 56.4624 16.2958 56.4618 16.2944 56.4618H16.063C16.0615 56.4618 16.0604 56.4624 16.0594 56.4636C16.0582 56.4646 16.0576 56.4658 16.0575 56.4672C16.0575 56.4686 16.0582 56.4699 16.0594 56.4709ZM15.6535 56.3148C15.6545 56.3159 15.6557 56.3165 15.6571 56.3166H15.8886C15.89 56.3165 15.8912 56.3159 15.8922 56.3148C15.8933 56.3138 15.8939 56.3125 15.894 56.3111C15.8939 56.3096 15.8933 56.3085 15.8922 56.3075C15.8912 56.3063 15.89 56.3057 15.8886 56.3057H15.6571C15.6556 56.3057 15.6545 56.3063 15.6535 56.3075C15.6523 56.3085 15.6518 56.3097 15.6517 56.3111C15.6518 56.3125 15.6523 56.3138 15.6535 56.3148Z" fill="#CA872A"/>
<path d="M16.5699 56.8382C16.1757 56.4439 15.6995 56.2468 15.1412 56.2468C14.5828 56.2468 14.1067 56.4439 13.7124 56.8382C13.3181 57.2324 13.121 57.7086 13.121 58.2669C13.121 58.8252 13.3181 59.3015 13.7124 59.6957C14.1066 60.09 14.5828 60.2871 15.1412 60.2871C15.6995 60.2871 16.1756 60.09 16.5699 59.6957C16.9642 59.3015 17.1613 58.8253 17.1613 58.2669C17.1613 57.7086 16.9642 57.2324 16.5699 56.8382Z" fill="#FBB43C"/>
<path d="M16.2768 57.1309C15.9635 56.8176 15.5849 56.6609 15.1412 56.6609C14.6975 56.6609 14.319 56.8176 14.0056 57.1309C13.6922 57.4442 13.5356 57.8227 13.5356 58.2665C13.5356 58.7103 13.6922 59.0887 14.0056 59.4021C14.3189 59.7154 14.6974 59.8721 15.1412 59.8721C15.5849 59.8721 15.9634 59.7154 16.2768 59.4021C16.5901 59.0888 16.7468 58.7103 16.7468 58.2665C16.7468 57.8227 16.5901 57.4442 16.2768 57.1309Z" fill="#F4A621"/>
<path d="M14.7553 57.6226C14.6811 57.6968 14.6441 57.7921 14.6441 57.9086C14.6441 57.9763 14.655 58.0346 14.6769 58.0834C14.6981 58.1321 14.7284 58.1748 14.768 58.2115C14.8061 58.2475 14.8527 58.2797 14.9078 58.3079C14.9622 58.3355 15.0268 58.3633 15.1016 58.3916C15.1772 58.4198 15.2309 58.4509 15.2626 58.4848C15.293 58.518 15.3082 58.5628 15.3082 58.6194C15.3082 58.6737 15.2909 58.7172 15.2563 58.7496C15.221 58.7814 15.173 58.7973 15.1122 58.7973C15.0388 58.7973 14.983 58.7754 14.9449 58.7317C14.9054 58.6879 14.8856 58.625 14.8856 58.5431H14.5869C14.5869 58.6843 14.6257 58.7977 14.7034 58.8831C14.781 58.9679 14.8905 59.018 15.0317 59.0335V59.238H15.1959V59.0325C15.3244 59.0191 15.425 58.976 15.4977 58.9032C15.5712 58.8298 15.6079 58.7345 15.6079 58.6173C15.6079 58.5544 15.598 58.4997 15.5782 58.4531C15.5592 58.4051 15.5313 58.363 15.4945 58.327C15.4585 58.2896 15.4137 58.2564 15.36 58.2275C15.307 58.1978 15.2396 58.1664 15.1577 58.1332C15.0751 58.1 15.0186 58.0675 14.9882 58.0358C14.9579 58.004 14.9427 57.962 14.9427 57.9097C14.9427 57.8532 14.9582 57.8091 14.9893 57.7773C15.0203 57.7449 15.0642 57.7286 15.1206 57.7286C15.1778 57.7286 15.2237 57.7494 15.2583 57.7911C15.2915 57.8313 15.3081 57.8931 15.3081 57.9764H15.6078C15.6078 57.8416 15.5732 57.7321 15.504 57.6481C15.4348 57.5634 15.3395 57.5122 15.218 57.4945V57.271H15.0518V57.4924C14.9283 57.5043 14.8294 57.5477 14.7553 57.6226Z" fill="#624118"/>
<path d="M14.7185 57.6226C14.6444 57.6968 14.6073 57.7921 14.6073 57.9086C14.6073 57.9763 14.6183 58.0346 14.6401 58.0834C14.6613 58.1321 14.6917 58.1748 14.7312 58.2115C14.7694 58.2475 14.816 58.2797 14.871 58.3079C14.9254 58.3355 14.99 58.3633 15.0649 58.3916C15.1404 58.4198 15.1941 58.4509 15.2259 58.4848C15.2563 58.518 15.2714 58.5628 15.2714 58.6194C15.2714 58.6737 15.2541 58.7172 15.2195 58.7496C15.1843 58.7814 15.1362 58.7973 15.0755 58.7973C15.002 58.7973 14.9462 58.7754 14.9081 58.7317C14.8686 58.6879 14.8488 58.625 14.8488 58.5431H14.5501C14.5501 58.6843 14.5889 58.7977 14.6666 58.8831C14.7443 58.9679 14.8537 59.018 14.995 59.0335V59.238H15.1592V59.0325C15.2877 59.0191 15.3883 58.976 15.461 58.9032C15.5345 58.8298 15.5712 58.7345 15.5712 58.6173C15.5712 58.5544 15.5613 58.4997 15.5415 58.4531C15.5225 58.4051 15.4946 58.363 15.4578 58.327C15.4218 58.2896 15.377 58.2564 15.3233 58.2275C15.2703 58.1978 15.2029 58.1664 15.121 58.1332C15.0384 58.1 14.9819 58.0675 14.9515 58.0358C14.9212 58.004 14.906 57.962 14.906 57.9097C14.906 57.8532 14.9215 57.8091 14.9526 57.7773C14.9836 57.7449 15.0275 57.7286 15.0839 57.7286C15.1411 57.7286 15.187 57.7494 15.2216 57.7911C15.2548 57.8313 15.2714 57.8931 15.2714 57.9764H15.5712C15.5712 57.8416 15.5366 57.7321 15.4674 57.6481C15.3982 57.5634 15.3029 57.5122 15.1814 57.4945V57.271H15.0151V57.4924C14.8916 57.5043 14.7927 57.5477 14.7185 57.6226Z" fill="#724B1E"/>
<path d="M17.1613 56.2468V49.9377" stroke="#0047AB" stroke-miterlimit="10"/>
<path d="M14.8903 55.0986V52.8843" stroke="#0047AB" stroke-miterlimit="10"/>
<path d="M14.8903 51.3417V49.2047" stroke="#0047AB" stroke-miterlimit="10"/>
<path d="M12.6719 58.2724V53.2769" stroke="#0047AB" stroke-miterlimit="10"/>
<path d="M54.623 26.6309C55.9873 26.6309 57.0934 25.5249 57.0934 24.1605C57.0934 22.7962 55.9873 21.6902 54.623 21.6902C53.2587 21.6902 52.1527 22.7962 52.1527 24.1605C52.1527 25.5249 53.2587 26.6309 54.623 26.6309Z" fill="#E8F0F7"/>
<path d="M145.498 42.1836C145.655 41.2179 144.999 40.308 144.033 40.1513C143.068 39.9946 142.158 40.6503 142.001 41.616C141.844 42.5817 142.5 43.4916 143.466 43.6483C144.431 43.805 145.341 43.1493 145.498 42.1836Z" fill="#E8F0F7"/>
<path d="M137.073 39.5734C137.74 39.5734 138.282 39.0321 138.282 38.3644C138.282 37.6967 137.74 37.1554 137.073 37.1554C136.405 37.1554 135.864 37.6967 135.864 38.3644C135.864 39.0321 136.405 39.5734 137.073 39.5734Z" fill="#E8F0F7"/>
<path d="M82.5713 112.434C85.4724 112.434 87.8242 110.083 87.8242 107.182C87.8242 104.281 85.4724 101.929 82.5713 101.929C79.6703 101.929 77.3185 104.281 77.3185 107.182C77.3185 110.083 79.6703 112.434 82.5713 112.434Z" fill="#E8F0F7"/>
<path d="M91.7868 112.917C92.5964 112.917 93.2527 112.261 93.2527 111.451C93.2527 110.642 92.5964 109.985 91.7868 109.985C90.9772 109.985 90.321 110.642 90.321 111.451C90.321 112.261 90.9772 112.917 91.7868 112.917Z" fill="#E8F0F7"/>
<path d="M13.9414 128.142H141.118" stroke="#0047AB" stroke-opacity="0.45" stroke-miterlimit="10" stroke-linecap="round" stroke-linejoin="round"/>
<path d="M142.14 128.141H145.459" stroke="#0047AB" stroke-opacity="0.45" stroke-miterlimit="10" stroke-linecap="round" stroke-linejoin="round"/>
<path d="M146.469 128.141H147.448" stroke="#0047AB" stroke-opacity="0.45" stroke-miterlimit="10" stroke-linecap="round" stroke-linejoin="round"/>
<path d="M12.5861 128.141H9.26721" stroke="#0047AB" stroke-opacity="0.45" stroke-miterlimit="10" stroke-linecap="round" stroke-linejoin="round"/>
<path d="M8.2571 128.141H7.2782" stroke="#0047AB" stroke-opacity="0.45" stroke-miterlimit="10" stroke-linecap="round" stroke-linejoin="round"/>
<path d="M40.8146 36.7383C41.1365 36.7383 41.3975 36.4773 41.3975 36.1554C41.3975 35.8335 41.1365 35.5725 40.8146 35.5725C40.4927 35.5725 40.2317 35.8335 40.2317 36.1554C40.2317 36.4773 40.4927 36.7383 40.8146 36.7383Z" stroke="#5672B6" stroke-width="0.54" stroke-miterlimit="10" stroke-linecap="round" stroke-linejoin="round"/>
<path d="M81.9884 89.4549C82.3104 89.4549 82.5713 89.1939 82.5713 88.872C82.5713 88.55 82.3104 88.2891 81.9884 88.2891C81.6665 88.2891 81.4055 88.55 81.4055 88.872C81.4055 89.1939 81.6665 89.4549 81.9884 89.4549Z" stroke="#5672B6" stroke-width="3.536" stroke-miterlimit="10" stroke-linecap="round" stroke-linejoin="round"/>
<path d="M63.5986 36.1555C64.2425 36.1555 64.7645 35.6335 64.7645 34.9896C64.7645 34.3457 64.2425 33.8237 63.5986 33.8237C62.9547 33.8237 62.4327 34.3457 62.4327 34.9896C62.4327 35.6335 62.9547 36.1555 63.5986 36.1555Z" stroke="#5672B6" stroke-width="0.54" stroke-miterlimit="10" stroke-linecap="round" stroke-linejoin="round"/>
<path d="M28.7477 55.4826C29.4501 55.4826 30.0195 54.9131 30.0195 54.2107C30.0195 53.5083 29.4501 52.9388 28.7477 52.9388C28.0452 52.9388 27.4758 53.5083 27.4758 54.2107C27.4758 54.9131 28.0452 55.4826 28.7477 55.4826Z" stroke="#5672B6" stroke-width="0.54" stroke-miterlimit="10" stroke-linecap="round" stroke-linejoin="round"/>
<path d="M118.394 94.2031C118.507 93.5098 118.036 92.8564 117.343 92.7439C116.649 92.6314 115.996 93.1022 115.883 93.7956C115.771 94.4889 116.242 95.1423 116.935 95.2548C117.628 95.3673 118.282 94.8965 118.394 94.2031Z" stroke="#5672B6" stroke-width="0.54" stroke-miterlimit="10" stroke-linecap="round" stroke-linejoin="round"/>
<path d="M126.36 48.7968L125.525 47.9617" stroke="#5672B6" stroke-miterlimit="10" stroke-linecap="round" stroke-linejoin="round"/>
<path d="M124.278 46.7153L123.493 45.9299" stroke="#5672B6" stroke-miterlimit="10" stroke-linecap="round" stroke-linejoin="round"/>
<path d="M124.328 47.9617L123.493 48.7968" stroke="#5672B6" stroke-miterlimit="10" stroke-linecap="round" stroke-linejoin="round"/>
<path d="M126.36 45.9299L125.525 46.7652" stroke="#5672B6" stroke-miterlimit="10" stroke-linecap="round" stroke-linejoin="round"/>
<path d="M85.7135 30.306L84.8783 29.4708" stroke="#5672B6" stroke-miterlimit="10" stroke-linecap="round" stroke-linejoin="round"/>
<path d="M83.6319 28.2243L82.8465 27.439" stroke="#5672B6" stroke-miterlimit="10" stroke-linecap="round" stroke-linejoin="round"/>
<path d="M83.6818 29.4708L82.8465 30.306" stroke="#5672B6" stroke-miterlimit="10" stroke-linecap="round" stroke-linejoin="round"/>
<path d="M85.7135 27.439L84.8783 28.2742" stroke="#5672B6" stroke-miterlimit="10" stroke-linecap="round" stroke-linejoin="round"/>
<path d="M40.0101 96.0807L39.175 95.2456" stroke="#5672B6" stroke-width="0.54" stroke-miterlimit="10" stroke-linecap="round" stroke-linejoin="round"/>
<path d="M37.9285 93.9991L37.1431 93.2137" stroke="#5672B6" stroke-width="0.54" stroke-miterlimit="10" stroke-linecap="round" stroke-linejoin="round"/>
<path d="M37.9784 95.2456L37.1431 96.0807" stroke="#5672B6" stroke-width="0.54" stroke-miterlimit="10" stroke-linecap="round" stroke-linejoin="round"/>
<path d="M40.0101 93.2137L39.175 94.049" stroke="#5672B6" stroke-width="0.54" stroke-miterlimit="10" stroke-linecap="round" stroke-linejoin="round"/>
<path d="M137.656 62.2562C137.978 62.2562 138.239 61.9953 138.239 61.6733C138.239 61.3514 137.978 61.0905 137.656 61.0905C137.334 61.0905 137.073 61.3514 137.073 61.6733C137.073 61.9953 137.334 62.2562 137.656 62.2562Z" stroke="#5672B6" stroke-width="0.54" stroke-miterlimit="10" stroke-linecap="round" stroke-linejoin="round"/>
<path d="M105.479 31.9187C105.801 31.9187 106.062 31.6577 106.062 31.3358C106.062 31.0139 105.801 30.7529 105.479 30.7529C105.157 30.7529 104.896 31.0139 104.896 31.3358C104.896 31.6577 105.157 31.9187 105.479 31.9187Z" stroke="#5672B6" stroke-width="3.536" stroke-miterlimit="10" stroke-linecap="round" stroke-linejoin="round"/>
<path d="M114.951 84.7971H37.3042C36.4906 84.7971 35.831 84.1376 35.831 83.324V42.2476C35.831 41.434 36.4906 40.7744 37.3042 40.7744H114.951C115.764 40.7744 116.424 41.434 116.424 42.2476V83.324C116.424 84.1376 115.764 84.7971 114.951 84.7971Z" fill="#E3E8FF"/>
<path d="M76.1274 62.7856H35.8309V42.6722C35.8309 41.4362 36.8329 40.4343 38.0688 40.4343H76.1274L76.1274 62.7856ZM114.186 84.6585H76.1274V62.8257H116.424V82.4205C116.424 83.6565 115.422 84.6585 114.186 84.6585Z" fill="#F0F3FF"/>
<path d="M114.951 85.0571H37.3048C36.158 85.0571 35.225 84.124 35.225 82.9773V41.9008C35.225 40.7541 36.1581 39.821 37.3048 39.821H114.951C116.098 39.821 117.031 40.7541 117.031 41.9008V82.9772C117.031 84.124 116.098 85.0571 114.951 85.0571ZM37.3048 41.0343C36.827 41.0343 36.4382 41.423 36.4382 41.9008V82.9772C36.4382 83.455 36.827 83.8438 37.3048 83.8438H114.951C115.429 83.8438 115.818 83.455 115.818 82.9772V41.9008C115.818 41.423 115.429 41.0343 114.951 41.0343H37.3048Z" fill="#0047AB"/>
<path d="M114.951 85.0571V83.8439C115.429 83.8439 115.817 83.4551 115.817 82.9773H117.031C117.031 84.124 116.097 85.0571 114.951 85.0571ZM117.031 41.9008H115.817C115.817 41.423 115.429 41.0343 114.951 41.0343V39.821C116.097 39.821 117.031 40.7541 117.031 41.9008ZM36.4375 41.9008H35.2243C35.2243 40.7541 36.1574 39.821 37.3041 39.821V41.0343C36.8264 41.0343 36.4375 41.423 36.4375 41.9008ZM37.3042 85.0571C36.1574 85.0571 35.2244 84.124 35.2244 82.9773H36.4376C36.4376 83.4551 36.8264 83.8439 37.3042 83.8439V85.0571Z" fill="#0047AB"/>
<path d="M40.0101 58.1627H40.0539" stroke="#4C4D51" stroke-width="0.1" stroke-linecap="round" stroke-linejoin="round"/>
<path d="M40.4024 58.1627H69.0181" stroke="#4C4D51" stroke-width="0.1" stroke-linecap="round" stroke-linejoin="round" stroke-dasharray="1.12 4.47"/>
<path d="M69.1926 58.1627H69.2363" stroke="#4C4D51" stroke-width="0.1" stroke-linecap="round" stroke-linejoin="round"/>
<path d="M40.0101 53.7723H40.0539" stroke="#4C4D51" stroke-width="0.1" stroke-linecap="round" stroke-linejoin="round"/>
<path d="M40.4024 53.7723H69.0181" stroke="#4C4D51" stroke-width="0.1" stroke-linecap="round" stroke-linejoin="round" stroke-dasharray="1.12 4.47"/>
<path d="M69.1926 53.7723H69.2363" stroke="#4C4D51" stroke-width="0.1" stroke-linecap="round" stroke-linejoin="round"/>
<path d="M40.0101 49.382H40.0539" stroke="#4C4D51" stroke-width="0.1" stroke-linecap="round" stroke-linejoin="round"/>
<path d="M40.4024 49.382H69.0181" stroke="#4C4D51" stroke-width="0.1" stroke-linecap="round" stroke-linejoin="round" stroke-dasharray="1.12 4.47"/>
<path d="M69.1926 49.382H69.2363" stroke="#4C4D51" stroke-width="0.1" stroke-linecap="round" stroke-linejoin="round"/>
<path d="M40.0101 44.9916H40.0539" stroke="#4C4D51" stroke-width="0.1" stroke-linecap="round" stroke-linejoin="round"/>
<path d="M40.4024 44.9916H69.0181" stroke="#4C4D51" stroke-width="0.1" stroke-linecap="round" stroke-linejoin="round" stroke-dasharray="1.12 4.47"/>
<path d="M69.1926 44.9916H69.2363" stroke="#4C4D51" stroke-width="0.1" stroke-linecap="round" stroke-linejoin="round"/>
<path d="M68.625 43.4855V45.7149L67.8844 44.9743L59.8391 53.0515L58.0103 51.2226L52.0536 57.1792L49.0649 54.1904L42.0149 61.2101H40.3869L49.0649 52.5664L52.0536 55.5551L58.0103 49.5986L59.8391 51.4274L67.0722 44.1624L66.3956 43.4855H68.625Z" fill="#6495ED"/>
<path d="M70.1621 61.2101H40.0101V42.8829" stroke="#4C4D51" stroke-width="0.1" stroke-miterlimit="10"/>
<path d="M70.1621 61.7612V60.6592L70.7131 61.2102L70.1621 61.7612Z" fill="#4C4D51"/>
<path d="M40.5611 42.8829H39.4591L40.0101 42.332L40.5611 42.8829Z" fill="#4C4D51"/>
<path d="M80.1002 79.3583H80.1439" stroke="#4C4D51" stroke-width="0.1" stroke-linecap="round" stroke-linejoin="round"/>
<path d="M80.4925 79.3583H109.108" stroke="#4C4D51" stroke-width="0.1" stroke-linecap="round" stroke-linejoin="round" stroke-dasharray="1.12 4.47"/>
<path d="M109.283 79.3583H109.326" stroke="#4C4D51" stroke-width="0.1" stroke-linecap="round" stroke-linejoin="round"/>
<path d="M80.1002 74.9679H80.1439" stroke="#4C4D51" stroke-width="0.1" stroke-linecap="round" stroke-linejoin="round"/>
<path d="M80.4925 74.9679H109.108" stroke="#4C4D51" stroke-width="0.1" stroke-linecap="round" stroke-linejoin="round" stroke-dasharray="1.12 4.47"/>
<path d="M109.283 74.9679H109.326" stroke="#4C4D51" stroke-width="0.1" stroke-linecap="round" stroke-linejoin="round"/>
<path d="M80.1002 70.5774H80.1439" stroke="#4C4D51" stroke-width="0.1" stroke-linecap="round" stroke-linejoin="round"/>
<path d="M80.4925 70.5774H109.108" stroke="#4C4D51" stroke-width="0.1" stroke-linecap="round" stroke-linejoin="round" stroke-dasharray="1.12 4.47"/>
<path d="M109.283 70.5774H109.326" stroke="#4C4D51" stroke-width="0.1" stroke-linecap="round" stroke-linejoin="round"/>
<path d="M80.1002 66.187H80.1439" stroke="#4C4D51" stroke-width="0.1" stroke-linecap="round" stroke-linejoin="round"/>
<path d="M80.4925 66.187H109.108" stroke="#4C4D51" stroke-width="0.1" stroke-linecap="round" stroke-linejoin="round" stroke-dasharray="1.12 4.47"/>
<path d="M109.283 66.187H109.326" stroke="#4C4D51" stroke-width="0.1" stroke-linecap="round" stroke-linejoin="round"/>
<path d="M110.252 82.5356H79.9702V64.0785H80.2302V82.2757H110.252V82.5356Z" fill="#4C4D51"/>
<path d="M110.252 82.9565V81.8546L110.803 82.4056L110.252 82.9565Z" fill="#4C4D51"/>
<path d="M80.6511 64.0785H79.5492L80.1002 63.5275L80.6511 64.0785Z" fill="#4C4D51"/>
<path d="M107.519 66.7231L107.311 65.9722L106.56 66.18L106.919 66.3835L101.204 76.7018L93.0832 71.861L88.7208 76.9756L85.0566 74.6229L79.9916 82.3343L80.2089 82.477L85.1326 74.9808L88.7712 77.317L93.1385 72.1966L101.302 77.0625L107.146 66.5116L107.519 66.7231Z" fill="#4C4D51"/>
<path d="M110.023 65.7956L110.022 65.0164L109.243 65.0175L109.54 65.3145L100.29 74.5328L90.227 71.8801L85.4209 78.7001H80.1002V78.96H85.5558L90.3355 72.1775L100.296 74.8032L100.368 74.8222L109.724 65.4981L109.713 65.4869L110.023 65.7956Z" fill="#6495ED"/>
<path d="M78.4001 58.4371H113.752" stroke="#4C4D51" stroke-width="0.1" stroke-miterlimit="10" stroke-linecap="round" stroke-linejoin="round" stroke-dasharray="1.11 4.44"/>
<path d="M83.3607 54.7458H80.1492C79.9099 54.7458 79.7159 54.9398 79.7159 55.1791V61.2101H83.794V55.1791C83.794 54.9398 83.6 54.7458 83.3607 54.7458Z" fill="#6495ED"/>
<path d="M78.4001 54.7458H113.752" stroke="#4C4D51" stroke-width="0.1" stroke-miterlimit="10" stroke-linecap="round" stroke-linejoin="round" stroke-dasharray="1.11 4.44"/>
<path d="M78.4001 51.0547H113.752" stroke="#4C4D51" stroke-width="0.1" stroke-miterlimit="10" stroke-linecap="round" stroke-linejoin="round" stroke-dasharray="1.11 4.44"/>
<path d="M78.4001 47.3634H113.752" stroke="#4C4D51" stroke-width="0.1" stroke-miterlimit="10" stroke-linecap="round" stroke-linejoin="round" stroke-dasharray="1.11 4.44"/>
<path d="M78.4001 43.6722H113.752" stroke="#4C4D51" stroke-width="0.1" stroke-miterlimit="10" stroke-linecap="round" stroke-linejoin="round" stroke-dasharray="1.11 4.44"/>
<path d="M90.3517 52.1461H87.1402C86.9009 52.1461 86.7069 52.3401 86.7069 52.5794V61.2102H90.785V52.5794C90.785 52.3401 90.591 52.1461 90.3517 52.1461ZM97.3427 50.4129H94.1312C93.8919 50.4129 93.6979 50.6069 93.6979 50.8462V61.2102H97.7759V50.8462C97.7759 50.6069 97.582 50.4129 97.3427 50.4129ZM104.334 47.8132H101.122C100.883 47.8132 100.689 48.0072 100.689 48.2465V61.2102H104.767V48.2465C104.767 48.0072 104.573 47.8132 104.334 47.8132ZM111.325 46.08H108.113C107.874 46.08 107.68 46.2739 107.68 46.5132V61.2102H111.758V46.5132C111.758 46.2739 111.564 46.08 111.325 46.08Z" fill="#6495ED"/>
<path d="M113.752 61.0369H78.4001" stroke="#4C4D51" stroke-width="0.1" stroke-miterlimit="10"/>
<path d="M60.1743 79.1436C63.2406 76.0772 63.2405 71.1057 60.1741 68.0395C57.1078 64.9732 52.1363 64.9733 49.07 68.0396C46.0038 71.106 46.0038 76.0775 49.0702 79.1438C52.1366 82.21 57.1081 82.2099 60.1743 79.1436Z" fill="#D0D0D0"/>
<path d="M59.7413 78.7106C62.5684 75.8834 62.5683 71.2996 59.7411 68.4725C56.9139 65.6454 52.3302 65.6455 49.503 68.4727C46.6759 71.2999 46.676 75.8836 49.5032 78.7107C52.3304 81.5379 56.9142 81.5378 59.7413 78.7106Z" fill="white"/>
<path d="M54.623 73.5918L59.7386 78.344C58.4181 79.7654 56.5632 80.5741 54.623 80.5741C51.9866 80.5741 49.5661 79.081 48.3831 76.7248L54.623 73.5918Z" fill="#F0F0F0"/>
<path d="M54.623 73.5918L57.9688 67.4634C60.2076 68.6856 61.6053 71.0412 61.6053 73.5918C61.6053 75.3493 60.9418 77.0435 59.7483 78.3335L54.623 73.5918Z" fill="#0047AB"/>
<path d="M54.623 73.5919L48.4149 76.7874C47.9062 75.7991 47.6408 74.7034 47.6408 73.5919C47.6408 69.7615 50.7927 66.6096 54.623 66.6096C55.8233 66.6096 57.0035 66.9191 58.0493 67.5081L54.623 73.5919Z" fill="#6495ED"/>
<path opacity="0.31" d="M92.2899 114.335L83.702 110.177L74.0103 121.735L72.383 119.425L74.4085 103.888L66.3858 79.7404L48 86.2496L52.8971 98.5776L68.6352 136.464L72.106 145.049L72.5081 142.556L76.3431 127.933L81.703 121.982L91.2733 121.246L76.0321 110.697L92.2899 114.335Z" fill="white"/>
<path d="M77.4849 68.869C83.1706 68.869 87.7797 64.4212 87.7797 58.9345C87.7797 53.4478 83.1706 49 77.4849 49C71.7992 49 67.19 53.4478 67.19 58.9345C67.19 64.4212 71.7992 68.869 77.4849 68.869Z" fill="#0047AB"/>
<path d="M104.655 128.715L98.3927 131.86C96.572 128.396 92.7104 126.102 88.3368 126.451C83.2198 126.86 79.1382 130.976 78.9258 135.926C78.8462 137.773 79.2862 139.518 80.1283 141.028L79.7034 141.24L76.3578 142.917L72.1094 145.049C69.9169 140.099 68.062 135.129 66.4954 130.225C66.2412 129.44 65.9947 128.647 65.7595 127.862V127.854C65.585 127.277 65.4105 126.686 65.2777 126.227C65.145 125.772 65.0539 125.457 65.0539 125.457C62.2431 115.651 60.5248 106.248 59.493 97.9974L59.5006 98.1568C58.1275 89.1023 58.0592 79.2437 58.0592 79.2437C58.0137 77.605 58.0023 76.1218 58.0023 74.8131C58.0023 74.0204 58.0023 73.2883 58.0175 72.6282C58.0592 70.0033 58.154 68.4519 58.1654 68.2319V68.2053L63.6504 68.9488L66.4195 69.4116C66.4005 69.6543 66.3892 69.9009 66.3892 70.1475C66.3892 75.6363 70.9979 80.082 76.6802 80.082C81.4218 80.082 85.4085 76.9943 86.6033 72.7876L89.5621 73.2807L94.076 74.0735V74.0924C94.0646 74.248 93.9433 76.4632 93.9584 80.0251C93.9584 80.0251 94.2202 90.0696 94.645 93.9463C95.1799 99.4427 96.0826 105.531 97.6113 111.482C97.6189 111.501 97.6227 111.517 97.6265 111.536C98.2031 113.876 98.2827 113.948 98.2865 113.948C99.819 119.247 101.883 124.345 104.659 128.711L104.655 128.715Z" fill="#6495ED"/>
</svg>
