<svg width="483" height="279" viewBox="0 0 483 279" fill="none" xmlns="http://www.w3.org/2000/svg">
<path d="M1.02161 264.5C1.02161 267.814 1.02267 270.249 1.27343 272.114C1.52226 273.965 2.00867 275.179 2.92541 276.096C3.84215 277.013 5.05657 277.499 6.90733 277.748C8.77246 277.999 11.2076 278 14.5216 278H100.885H200.209H279.178C281.047 278 281.92 277.998 282.769 277.84C283.619 277.683 284.434 277.371 286.178 276.7L344.249 254.366L344.303 254.346C345.98 253.701 346.884 253.353 347.834 253.176C348.784 253 349.753 253 351.55 253H351.607H468.059C471.373 253 473.808 252.999 475.673 252.748C477.524 252.499 478.738 252.013 479.655 251.096C480.572 250.179 481.058 248.965 481.307 247.114C481.558 245.249 481.559 242.814 481.559 239.5V14C481.559 10.686 481.558 8.25085 481.307 6.38571C481.058 4.53497 480.572 3.32056 479.655 2.40381C478.738 1.48706 477.524 1.00064 475.673 0.751831C473.808 0.501068 471.373 0.5 468.059 0.5H14.5216C11.2076 0.5 8.77246 0.501068 6.90733 0.751831C5.05657 1.00064 3.84215 1.48706 2.92541 2.40381C2.00867 3.32056 1.52226 4.53497 1.27343 6.38571C1.02267 8.25085 1.02161 10.686 1.02161 14V264.5Z" stroke="#0047AB"/>
</svg>
