<svg width="47" height="47" viewBox="0 0 47 47" fill="none" xmlns="http://www.w3.org/2000/svg">
<path d="M14.4006 10.9102C17.9368 10.0266 21.5818 9.66136 25.2182 9.83154C26.2902 9.90811 27.2148 9.04546 27.2645 7.96505C27.3142 6.88464 26.4784 5.96853 25.398 5.91879C21.3762 5.73901 17.3563 6.13499 13.449 7.1122C10.3214 7.89612 7.89364 10.3231 7.11226 13.45C5.46844 20.0249 5.46844 26.9746 7.11226 33.5497C7.89344 36.6766 10.3214 39.1033 13.451 39.8875C16.7375 40.7098 20.1187 41.119 23.4998 41.119C26.8809 41.119 30.2621 40.7098 33.5506 39.8875C36.6784 39.1033 39.1061 36.6766 39.8873 33.5497C40.8626 29.6463 41.2652 25.6322 41.0817 21.616C41.032 20.5354 40.0595 19.6902 39.0364 19.7495C37.9558 19.7993 37.1202 20.7154 37.169 21.7958C37.3354 25.4312 36.971 29.0669 36.0876 32.6011C35.6583 34.3203 34.3214 35.6571 32.6002 36.0893C26.6449 37.5733 20.3529 37.5733 14.4014 36.0893C12.6782 35.6571 11.3415 34.3203 10.9122 32.6011C9.42329 26.6477 9.42329 20.3519 10.9122 14.3986C11.3417 12.6792 12.6784 11.3424 14.4006 10.9102Z" fill="white"/>
<path d="M41.125 7.83333C41.125 7.57836 41.0729 7.32436 40.974 7.08505C40.7755 6.60565 40.3938 6.22417 39.9146 6.02579C39.6755 5.9269 39.4215 5.875 39.1667 5.875H31.3333C30.252 5.875 29.375 6.75096 29.375 7.83333C29.375 8.9157 30.252 9.79167 31.3333 9.79167H34.4391L26.0319 18.1988C25.267 18.9637 25.267 20.203 26.0319 20.9681C26.4146 21.3503 26.9155 21.5417 27.4167 21.5417C27.9178 21.5417 28.4188 21.3503 28.8012 20.9679L37.2083 12.5609V15.6667C37.2083 16.749 38.0853 17.625 39.1667 17.625C40.2481 17.625 41.125 16.749 41.125 15.6667V7.83333Z" fill="white"/>
</svg>
