<svg width="29" height="29" viewBox="0 0 29 29" fill="none" xmlns="http://www.w3.org/2000/svg">
<path d="M26.3287 11.9676H2.39355V22.7385C2.39355 23.6907 2.77182 24.6039 3.44512 25.2772C4.11843 25.9505 5.03163 26.3287 5.98383 26.3287H22.7385C23.6907 26.3287 24.6039 25.9505 25.2772 25.2772C25.9505 24.6039 26.3287 23.6907 26.3287 22.7385V11.9676ZM8.37735 9.57411C8.05995 9.57411 7.75555 9.44802 7.53111 9.22359C7.30668 8.99915 7.18059 8.69475 7.18059 8.37735V3.59031C7.18059 3.27291 7.30668 2.96851 7.53111 2.74408C7.75555 2.51964 8.05995 2.39355 8.37735 2.39355C8.69475 2.39355 8.99915 2.51964 9.22359 2.74408C9.44802 2.96851 9.57411 3.27291 9.57411 3.59031V8.37735C9.57411 8.69475 9.44802 8.99915 9.22359 9.22359C8.99915 9.44802 8.69475 9.57411 8.37735 9.57411ZM20.3449 9.57411C20.0275 9.57411 19.7231 9.44802 19.4987 9.22359C19.2743 8.99915 19.1482 8.69475 19.1482 8.37735V3.59031C19.1482 3.27291 19.2743 2.96851 19.4987 2.74408C19.7231 2.51964 20.0275 2.39355 20.3449 2.39355C20.6623 2.39355 20.9667 2.51964 21.1912 2.74408C21.4156 2.96851 21.5417 3.27291 21.5417 3.59031V8.37735C21.5417 8.69475 21.4156 8.99915 21.1912 9.22359C20.9667 9.44802 20.6623 9.57411 20.3449 9.57411Z" fill="white" fill-opacity="0.9"/>
<path d="M22.7385 4.78711H21.5417V8.37739C21.5417 8.69479 21.4156 8.99919 21.1912 9.22362C20.9667 9.44806 20.6623 9.57415 20.3449 9.57415C20.0275 9.57415 19.7231 9.44806 19.4987 9.22362C19.2743 8.99919 19.1482 8.69479 19.1482 8.37739V4.78711H9.57411V8.37739C9.57411 8.69479 9.44802 8.99919 9.22359 9.22362C8.99915 9.44806 8.69475 9.57415 8.37735 9.57415C8.05995 9.57415 7.75555 9.44806 7.53111 9.22362C7.30668 8.99919 7.18059 8.69479 7.18059 8.37739V4.78711H5.98383C5.03163 4.78711 4.11843 5.16537 3.44512 5.83868C2.77182 6.51199 2.39355 7.42519 2.39355 8.37739V11.9677H26.3287V8.37739C26.3287 7.42519 25.9505 6.51199 25.2772 5.83868C24.6039 5.16537 23.6907 4.78711 22.7385 4.78711Z" fill="#6495ED"/>
</svg>
