<svg width="79" height="87" viewBox="0 0 79 87" fill="none" xmlns="http://www.w3.org/2000/svg">
<path d="M48.9183 2.13675C50.0462 1.58984 51.2562 1.1955 52.5284 1.05701C53.5588 0.944344 54.6057 1.00185 55.628 1.20137C57.521 1.57106 59.2862 2.39848 60.9504 3.32096C62.5911 4.23053 64.1615 5.24926 65.787 6.18347C67.4289 7.12708 69.1494 8.00611 71.0061 8.48613C72.1023 8.76898 73.2372 8.90159 74.3639 8.83235C75.7992 8.74315 77.1677 8.32651 78.4317 7.7127C78.1547 9.17739 77.8778 10.6421 77.602 12.1068C76.7182 16.7837 75.8356 21.4595 74.9519 26.1365C73.6879 26.7491 72.3206 27.1669 70.8841 27.2561C69.7574 27.3253 68.6213 27.1939 67.5263 26.9099C65.6684 26.4298 63.9491 25.5508 62.3071 24.6072C60.6817 23.673 59.1125 22.6543 57.4706 21.7447C55.8064 20.8222 54.0412 19.996 52.1481 19.6251C51.1259 19.4256 50.079 19.3681 49.0486 19.4807C47.7764 19.6192 46.5652 20.0136 45.4385 20.5605C46.3222 15.8836 47.2048 11.2078 48.0885 6.53086C48.3643 5.06734 48.6413 3.60262 48.9183 2.13675Z" fill="white" stroke="#0047AB" stroke-width="0.25" stroke-miterlimit="10"/>
<path d="M48.9182 2.13675C50.0461 1.58984 51.2561 1.1955 52.5283 1.05701C53.5588 0.944344 54.6057 1.00185 55.6279 1.20137C57.521 1.57106 59.2861 2.39848 60.9504 3.32096C62.5911 4.23053 64.1614 5.24926 65.7869 6.18347C67.4288 7.12708 69.1494 8.00611 71.0061 8.48613C72.1022 8.76898 73.2372 8.90159 74.3638 8.83235C75.7992 8.74315 77.1676 8.32651 78.4317 7.71269C77.8519 10.7829 77.2721 13.8543 76.6912 16.9246C75.4272 17.5372 74.0599 17.955 72.6233 18.0442C71.4966 18.1135 70.3606 17.982 69.2656 17.698C67.4077 17.218 65.6883 16.3389 64.0464 15.3953C62.4209 14.4611 60.8518 13.4424 59.2098 12.5328C57.5456 11.6103 55.7805 10.7841 53.8874 10.4132C52.8652 10.2137 51.8171 10.1562 50.7878 10.2689C49.5144 10.4074 48.3044 10.8017 47.1777 11.3486C47.7587 8.27841 48.3385 5.20816 48.9182 2.13675Z" fill="#ED2939"/>
<path d="M52.6667 5.6061C52.953 4.09094 54.3755 2.59807 56.1219 2.67319C55.866 2.54996 55.602 2.45723 55.3238 2.40325C53.2253 1.99013 51.2748 3.95599 50.9379 5.76925C50.7865 6.58493 50.986 7.40647 51.6104 8.02615C52.2453 8.65639 53.1608 9.02255 54.0434 9.18451C54.318 9.23498 54.595 9.26668 54.8743 9.28076C54.1619 8.92632 53.5094 8.41345 53.088 7.75973C52.6655 7.10602 52.527 6.34314 52.6667 5.6061Z" fill="white"/>
<path d="M56.649 4.37264C56.5411 4.55338 56.4343 4.73531 56.3275 4.91723C56.5305 4.84916 56.7335 4.78224 56.9389 4.71886C57.0962 4.91016 57.2511 5.10266 57.4037 5.29631C57.3743 5.06628 57.3438 4.8374 57.3145 4.60737C57.5152 4.54986 57.717 4.49471 57.9201 4.4419C57.7018 4.35153 57.4812 4.26468 57.2593 4.18253C57.23 3.95484 57.1995 3.72598 57.169 3.49829C57.0622 3.67786 56.9554 3.85743 56.8474 4.037C56.6256 3.96306 56.4026 3.89381 56.1772 3.82926C56.3369 4.00883 56.4941 4.18956 56.649 4.37264Z" fill="white"/>
<path d="M59.543 6.67427C59.3282 6.56277 59.1123 6.45245 58.8951 6.34565C58.867 6.10974 58.8376 5.87384 58.8095 5.63794C58.7038 5.80929 58.5982 5.98066 58.4926 6.15201C58.2766 6.05107 58.0583 5.95366 57.8389 5.8586C57.9926 6.06164 58.1464 6.26585 58.2966 6.47123C58.191 6.64376 58.0853 6.81627 57.9797 6.98997C58.1792 6.9442 58.3787 6.89961 58.5783 6.85854C58.7308 7.06979 58.8822 7.28221 59.0324 7.49464C59.0043 7.25756 58.9761 7.02048 58.9479 6.78341C59.1463 6.74585 59.3446 6.70948 59.543 6.67427Z" fill="white"/>
<path d="M55.4028 7.3173C55.3723 7.09548 55.3406 6.87367 55.3089 6.65186C55.2009 6.83846 55.0918 7.0239 54.9838 7.21051C54.7573 7.15769 54.5296 7.11073 54.3008 7.06965C54.4639 7.23044 54.6247 7.39359 54.782 7.5579C54.6728 7.74568 54.5648 7.93461 54.4557 8.1224C54.6611 8.03672 54.8688 7.95341 55.0765 7.87242C55.2373 8.0473 55.3946 8.22334 55.5507 8.40174C55.5202 8.17757 55.4897 7.95458 55.458 7.73042C55.661 7.65765 55.8664 7.58723 56.0718 7.51916C55.8511 7.44757 55.6282 7.3795 55.4028 7.3173Z" fill="white"/>
<path d="M57.7676 8.18239C57.7383 7.94884 57.7101 7.71646 57.6808 7.48291C57.5751 7.65661 57.4683 7.83148 57.3627 8.00635C57.1444 7.9148 56.9249 7.82678 56.7031 7.74228C56.8592 7.9371 57.013 8.1331 57.1655 8.33027C57.0587 8.50632 56.9531 8.68119 56.8463 8.85723C57.047 8.80325 57.2477 8.75163 57.4495 8.70233C57.6033 8.90655 57.7559 9.11193 57.9073 9.31849C57.8791 9.08376 57.8498 8.84904 57.8204 8.61549C58.0188 8.57089 58.2183 8.52863 58.419 8.48755C58.2042 8.3831 57.9871 8.28098 57.7676 8.18239Z" fill="white"/>
<path d="M54.7394 5.53114C54.9025 5.69428 55.0621 5.85859 55.2194 6.02642C55.1877 5.80695 55.156 5.58746 55.1243 5.36799C55.3297 5.28467 55.5363 5.20253 55.744 5.12507C55.5187 5.06522 55.2933 5.01121 55.0656 4.9631C55.0339 4.74597 55.0023 4.52884 54.9694 4.31055C54.8602 4.50068 54.7511 4.69199 54.6419 4.88212C54.4119 4.84456 54.1819 4.81287 53.9507 4.78705C54.1162 4.93493 54.2793 5.08516 54.4401 5.23774C54.3309 5.43021 54.2206 5.62385 54.1115 5.81633C54.3192 5.71892 54.5281 5.62269 54.7394 5.53114Z" fill="white"/>
<path d="M40.832 44.498L49.0029 1.85156" stroke="#0047AB" stroke-miterlimit="10" stroke-linecap="round" stroke-linejoin="round"/>
<path opacity="0.31" d="M18.4578 79.4266L18.4226 79.3374L4.37178 45.518L0 34.5116L9.05695 31.3064C9.17784 34.5785 9.4865 40.0066 10.2635 45.1424L10.2541 45.0039C11.1754 52.3673 12.7128 60.7623 15.2209 69.5165C15.2209 69.5165 15.3019 69.7981 15.4216 70.2054C15.5378 70.6126 15.6985 71.1396 15.8511 71.6536C15.8511 71.6536 15.8511 71.6583 15.8511 71.663C16.0612 72.3602 16.2807 73.0667 16.5084 73.7685C17.1069 75.6452 17.7559 77.5312 18.4578 79.4266Z" fill="#2A72DA"/>
<path d="M26.3234 18.9996C31.3986 18.9996 35.5129 15.0287 35.5129 10.1304C35.5129 5.2321 31.3986 1.26123 26.3234 1.26123C21.2481 1.26123 17.1338 5.2321 17.1338 10.1304C17.1338 15.0287 21.2481 18.9996 26.3234 18.9996Z" fill="#0047AB"/>
<path d="M50.5742 72.4164L44.9865 75.2237C43.3634 72.1347 39.9129 70.0867 36.0094 70.3954C31.4404 70.7615 27.7975 74.4327 27.6097 78.8538C27.5381 80.5039 27.9313 82.059 28.6824 83.4098L28.3021 83.5976L25.3152 85.0952H25.3105L21.5197 87L18.4577 79.4265C17.7558 77.5311 17.108 75.6439 16.5083 73.7672C16.2806 73.0654 16.0611 72.3589 15.851 71.6617C15.851 71.657 15.851 71.6523 15.851 71.6523C15.6996 71.1383 15.5377 70.6102 15.4215 70.2041C15.3006 69.7968 15.2208 69.5151 15.2208 69.5151C12.7127 60.7622 11.1753 52.366 10.254 45.0026L10.2634 45.1411C9.48524 40.0041 9.17657 34.5772 9.05686 31.3051C8.98527 29.4273 8.97586 28.2607 8.97586 28.2607C8.93595 26.7948 8.92188 25.4757 8.92188 24.3044C8.92188 23.5978 8.92189 22.9453 8.9348 22.3549C8.97001 20.0124 9.05567 18.6216 9.06858 18.4303C9.06858 18.4127 9.06858 18.4033 9.06858 18.4033L13.9638 19.0699L16.4355 19.4807C16.4179 19.7002 16.4085 19.9185 16.4085 20.138C16.4085 25.0379 20.5209 29.0071 25.5957 29.0071C29.829 29.0071 33.3875 26.2491 34.4567 22.4935L37.0938 22.9359L41.1217 23.6424V23.66C41.1124 23.7938 41.0055 25.7749 41.0185 28.9531C41.0185 28.9531 41.2555 37.9209 41.6358 41.3819C42.1099 46.2866 42.9139 51.7228 44.2823 57.0382C44.287 57.0558 44.2917 57.0652 44.2953 57.0828C44.8093 59.1707 44.8809 59.2376 44.8856 59.2376C46.2505 63.9674 48.0978 68.5187 50.5742 72.4164Z" fill="#6495ED"/>
<path d="M21.52 87C20.4027 84.479 19.3828 81.9487 18.458 79.4265L21.52 87Z" fill="#0047AB"/>
</svg>
