<svg width="79" height="86" viewBox="0 0 79 86" fill="none" xmlns="http://www.w3.org/2000/svg">
<path d="M75.2804 24.0537C64.4938 27.2462 56.5171 15.3565 45.7305 18.5491C46.8453 12.5619 47.9601 6.57349 49.0749 0.586272C59.8615 -2.60628 67.8382 9.28338 78.6248 6.09083C77.51 12.0792 76.3952 18.0664 75.2804 24.0537Z" fill="white"/>
<path d="M78.6271 6.09431C78.5388 6.57108 78.4493 7.04784 78.3611 7.52461C72.8071 9.16915 67.9982 6.81594 63.167 4.58044C63.2553 4.10368 63.3447 3.62691 63.433 3.15015C68.2642 5.38564 73.0731 7.74003 78.6271 6.09431Z" fill="#CF1C39"/>
<path d="M78.0988 8.93024C78.0105 9.407 77.921 9.88377 77.8327 10.3605C72.2787 12.0051 67.4699 9.65186 62.6387 7.41636C62.727 6.9396 62.8164 6.46285 62.9047 5.98608C67.7359 8.2204 72.5448 10.5748 78.0988 8.93024Z" fill="#CF1C39"/>
<path d="M77.0085 14.7833C76.9202 15.2601 76.8307 15.7368 76.7424 16.2136C71.1837 17.8593 66.3714 15.5002 61.5366 13.2635C61.6249 12.7868 61.7144 12.31 61.8027 11.8333C66.6374 14.0699 71.451 16.4302 77.0085 14.7833Z" fill="#CF1C39"/>
<path d="M77.5514 11.8697C77.4631 12.3465 77.3737 12.8232 77.2854 13.3C71.7314 14.9445 66.9225 12.5913 62.0913 10.3558C62.1796 9.87907 62.2691 9.4023 62.3574 8.92554C67.1886 11.161 71.9974 13.5142 77.5514 11.8697Z" fill="#CF1C39"/>
<path d="M61.6075 13.2965C57.0353 11.1799 52.4466 9.15395 47.1904 10.7102C47.8191 7.33636 48.4465 3.96135 49.0751 0.587512C54.3313 -0.96874 58.92 1.05721 63.4922 3.17381C62.8648 6.54765 62.2362 9.9215 61.6075 13.2965Z" fill="#213668"/>
<path d="M49.415 1.674C49.4644 1.53391 49.515 1.39264 49.5645 1.25256C49.4785 1.18193 49.3926 1.11365 49.3066 1.04538C49.455 0.987694 49.6021 0.932362 49.7493 0.879388C49.8364 0.741656 49.9235 0.605104 50.0106 0.469727C50.0518 0.578029 50.0918 0.687504 50.133 0.796983C50.2719 0.787566 50.4097 0.781683 50.5474 0.778151C50.4273 0.889985 50.3061 1.00417 50.186 1.11953C50.1848 1.24902 50.1837 1.3797 50.1825 1.50919C50.0671 1.46917 49.9517 1.43149 49.8364 1.395C49.6963 1.48564 49.5562 1.57864 49.415 1.674Z" fill="white"/>
<path d="M49.0111 3.84587C49.0606 3.70578 49.1112 3.56452 49.1606 3.42443C49.0747 3.3538 48.9888 3.28552 48.9028 3.21724C49.0512 3.15956 49.1983 3.10424 49.3455 3.05126C49.4326 2.91353 49.5197 2.77698 49.6068 2.6416C49.648 2.7499 49.688 2.85938 49.7292 2.96886C49.8681 2.95944 50.0059 2.95356 50.1436 2.95003C50.0235 3.06186 49.9023 3.17604 49.7822 3.29141C49.781 3.4209 49.7798 3.55157 49.7787 3.68106C49.6633 3.64104 49.5479 3.60337 49.4326 3.56688C49.2913 3.65752 49.1512 3.75052 49.0111 3.84587Z" fill="white"/>
<path d="M51.7024 3.46215C51.7519 3.32678 51.8001 3.1914 51.8496 3.05602C51.7683 2.9642 51.6859 2.87238 51.6035 2.78291C51.746 2.75583 51.8872 2.73111 52.0285 2.70875C52.1133 2.58514 52.198 2.46154 52.2828 2.33911C52.3204 2.46154 52.3593 2.58279 52.3969 2.7064C52.53 2.72641 52.663 2.74878 52.7949 2.7735C52.6783 2.86532 52.5618 2.95832 52.4452 3.05249C52.4429 3.18787 52.4405 3.32207 52.4393 3.45745C52.3287 3.39152 52.2192 3.32795 52.1085 3.26556C51.9732 3.32795 51.8378 3.39388 51.7024 3.46215Z" fill="white"/>
<path d="M54.2757 3.60224C54.3239 3.47157 54.3722 3.33972 54.4205 3.20906C54.3416 3.09958 54.2639 2.9901 54.1851 2.88298C54.3228 2.88062 54.4593 2.88062 54.5959 2.8818C54.6783 2.76879 54.7607 2.65578 54.8431 2.54395C54.8796 2.67579 54.9161 2.80881 54.9514 2.94184C55.0797 2.98539 55.2092 3.03012 55.3375 3.07721C55.2245 3.15255 55.1103 3.22907 54.9961 3.30677C54.9938 3.44567 54.9902 3.58459 54.9879 3.72232C54.8819 3.63638 54.7748 3.55162 54.6677 3.46804C54.5382 3.51042 54.4063 3.55515 54.2757 3.60224Z" fill="white"/>
<path d="M56.7925 4.15437C56.8396 4.02605 56.8878 3.89891 56.9349 3.7706C56.8584 3.64699 56.7831 3.52456 56.7065 3.40331C56.8407 3.42097 56.9738 3.43863 57.108 3.45865C57.1892 3.35388 57.2704 3.2491 57.3516 3.14551C57.387 3.28559 57.4211 3.42686 57.4564 3.56695C57.5824 3.62816 57.7072 3.68938 57.8331 3.75294C57.7213 3.81651 57.6106 3.88125 57.4988 3.946C57.4953 4.08726 57.4917 4.22853 57.4894 4.37097C57.3858 4.26973 57.2822 4.16967 57.1786 4.06961C57.0479 4.09669 56.9208 4.12611 56.7925 4.15437Z" fill="white"/>
<path d="M59.2343 5.00079C59.2813 4.87483 59.3284 4.74887 59.3755 4.62409C59.3013 4.49224 59.2272 4.3604 59.1519 4.22855C59.2837 4.25916 59.4144 4.28977 59.5462 4.32155C59.6262 4.22267 59.7063 4.12379 59.7864 4.0249C59.8205 4.17087 59.8535 4.31566 59.8876 4.46164C60.0112 4.53345 60.1348 4.60643 60.2572 4.68059C60.1478 4.7371 60.0371 4.7936 59.9276 4.85011C59.9241 4.99373 59.9206 5.13735 59.917 5.28097C59.8158 5.17031 59.7134 5.05965 59.6121 4.949C59.4862 4.96548 59.3602 4.98196 59.2343 5.00079Z" fill="white"/>
<path d="M61.6263 6.00124C61.6733 5.87646 61.7204 5.75169 61.7675 5.62808C61.6945 5.49153 61.6203 5.35497 61.5474 5.21841C61.6769 5.25608 61.8075 5.29376 61.937 5.3326C62.0171 5.23607 62.0959 5.13954 62.176 5.04419C62.209 5.19252 62.2431 5.34084 62.2761 5.48917C62.3985 5.56686 62.5209 5.64455 62.6433 5.72343C62.5339 5.7764 62.4244 5.82939 62.3161 5.88236C62.3125 6.02715 62.3079 6.17076 62.3043 6.31556C62.2031 6.20019 62.103 6.08484 62.0018 5.96947C61.8758 5.97771 61.751 5.98947 61.6263 6.00124Z" fill="white"/>
<path d="M50.5757 2.47443C50.6252 2.3367 50.6746 2.19897 50.7241 2.06124C50.6405 1.98001 50.5569 1.89879 50.4722 1.81991C50.617 1.77871 50.7617 1.73869 50.9054 1.70219C50.9913 1.57153 51.0772 1.44203 51.1632 1.31372C51.202 1.42909 51.242 1.54563 51.2809 1.66217C51.4163 1.66806 51.5516 1.67747 51.687 1.68807C51.5681 1.78931 51.4504 1.89172 51.3315 1.99649C51.3303 2.12952 51.328 2.26136 51.3268 2.39439C51.215 2.34141 51.102 2.28961 50.9889 2.23899C50.8512 2.31433 50.7135 2.39321 50.5757 2.47443Z" fill="white"/>
<path d="M50.1685 4.66633C50.218 4.5286 50.2674 4.39087 50.3168 4.25314C50.2333 4.17191 50.1497 4.09068 50.0649 4.01181C50.2097 3.97061 50.3545 3.93058 50.4981 3.89409C50.5841 3.76342 50.67 3.63393 50.7559 3.50562C50.7948 3.62098 50.8348 3.73753 50.8737 3.85407C51.009 3.85995 51.1444 3.86937 51.2798 3.87996C51.1609 3.9812 51.0432 4.08362 50.9243 4.18839C50.9231 4.32141 50.9207 4.45326 50.9196 4.58628C50.8077 4.53331 50.6947 4.48151 50.5817 4.43089C50.4428 4.50741 50.3063 4.58628 50.1685 4.66633Z" fill="white"/>
<path d="M52.8041 4.58036C52.8524 4.44734 52.9006 4.31431 52.9501 4.18129C52.87 4.08005 52.79 3.97881 52.71 3.87993C52.85 3.8658 52.9889 3.85403 53.1278 3.84461C53.2114 3.72689 53.295 3.60917 53.3786 3.49146C53.4163 3.61859 53.4528 3.74691 53.4904 3.87522C53.6211 3.90818 53.7518 3.94232 53.8824 3.97882C53.7671 4.0624 53.6529 4.14598 53.5375 4.23074C53.5352 4.36729 53.5328 4.50502 53.5305 4.64158C53.4222 4.56506 53.3139 4.48971 53.2056 4.41555C53.0702 4.4697 52.9371 4.52503 52.8041 4.58036Z" fill="white"/>
<path d="M57.8026 5.65062C57.8497 5.52348 57.8968 5.39753 57.9451 5.27039C57.8697 5.14207 57.7944 5.01494 57.7202 4.8878C57.8532 4.91252 57.9851 4.93725 58.1169 4.96432C58.197 4.86308 58.2782 4.76066 58.3583 4.65942C58.3924 4.80304 58.4265 4.94549 58.4607 5.0891C58.5855 5.1562 58.7091 5.22448 58.8339 5.29393C58.7232 5.35279 58.6125 5.41283 58.5019 5.47286C58.4984 5.6153 58.4948 5.75774 58.4913 5.90019C58.3889 5.79306 58.2865 5.68712 58.1829 5.58235C58.0569 5.60589 57.9298 5.62825 57.8026 5.65062Z" fill="white"/>
<path d="M60.2089 6.57351C60.256 6.44872 60.3031 6.32393 60.3502 6.19915C60.276 6.06377 60.2031 5.92957 60.1289 5.79537C60.2596 5.82951 60.3902 5.86482 60.5209 5.90132C60.6009 5.80361 60.6798 5.70591 60.7599 5.60938C60.7928 5.75652 60.827 5.90367 60.8599 6.05082C60.9824 6.12616 61.106 6.20269 61.2284 6.27921C61.1189 6.33336 61.0094 6.38751 60.8999 6.44166C60.8964 6.58528 60.8929 6.73006 60.8882 6.87368C60.787 6.75949 60.6857 6.64648 60.5845 6.53229C60.4597 6.54406 60.3349 6.5582 60.2089 6.57351Z" fill="white"/>
<path d="M53.2162 2.36845C53.2645 2.23542 53.3128 2.1024 53.3622 1.96938C53.2821 1.86814 53.2021 1.7669 53.1221 1.66801C53.2622 1.65389 53.401 1.64212 53.54 1.6327C53.6235 1.51498 53.7071 1.39726 53.7907 1.27954C53.8284 1.40668 53.8649 1.53499 53.9025 1.66331C54.0332 1.69627 54.1639 1.7304 54.2946 1.76689C54.1792 1.85048 54.065 1.93406 53.9496 2.01882C53.9473 2.15537 53.9449 2.2931 53.9426 2.42966C53.8343 2.35314 53.726 2.2778 53.6177 2.20364C53.4823 2.25661 53.3492 2.31194 53.2162 2.36845Z" fill="white"/>
<path d="M55.7484 2.72747C55.7967 2.59798 55.8438 2.46849 55.8921 2.339C55.8144 2.22246 55.7379 2.10591 55.6602 1.99055C55.7955 1.99879 55.9309 2.0082 56.0663 2.01998C56.1475 1.91167 56.2299 1.80337 56.3111 1.69507C56.3465 1.83162 56.3818 1.96818 56.4171 2.10591C56.5443 2.15888 56.6714 2.21303 56.7973 2.26836C56.6855 2.33782 56.5725 2.40727 56.4607 2.47791C56.4571 2.61799 56.4548 2.75808 56.4513 2.89817C56.3465 2.80399 56.2417 2.71099 56.1357 2.61799C56.0074 2.65449 55.8779 2.6898 55.7484 2.72747Z" fill="white"/>
<path d="M55.3363 5.0466C55.3846 4.91711 55.4317 4.78762 55.48 4.6593C55.4035 4.54276 55.3257 4.42622 55.248 4.31086C55.3834 4.3191 55.5188 4.32969 55.6542 4.34029C55.7354 4.23199 55.8178 4.12368 55.899 4.01538C55.9344 4.15194 55.9697 4.28967 56.005 4.42622C56.1321 4.47919 56.2593 4.53335 56.3852 4.58985C56.2734 4.65931 56.1604 4.72876 56.0485 4.79939C56.045 4.93948 56.0427 5.07956 56.0391 5.21965C55.9344 5.12547 55.8296 5.0313 55.7236 4.93948C55.5953 4.97479 55.467 5.01011 55.3363 5.0466Z" fill="white"/>
<path d="M58.2347 3.44436C58.2818 3.31723 58.3289 3.19127 58.3772 3.06413C58.3018 2.93582 58.2265 2.80868 58.1523 2.68154C58.2854 2.70626 58.4172 2.73217 58.549 2.75806C58.6291 2.65683 58.7103 2.55558 58.7904 2.45435C58.8245 2.59796 58.8587 2.74158 58.8928 2.8852C59.0176 2.9523 59.1412 3.02058 59.266 3.09003C59.1553 3.14889 59.0446 3.20893 58.934 3.26896C58.9305 3.4114 58.9269 3.55384 58.9234 3.69629C58.821 3.58916 58.7186 3.48322 58.6162 3.37727C58.4878 3.39964 58.3619 3.422 58.2347 3.44436Z" fill="white"/>
<path d="M60.6372 4.38868C60.6843 4.2639 60.7313 4.13912 60.7784 4.01434C60.7043 3.87896 60.6313 3.74476 60.5571 3.61056C60.6878 3.6447 60.8185 3.68002 60.9491 3.71651C61.0292 3.6188 61.1081 3.52109 61.1881 3.42456C61.2211 3.57171 61.2552 3.71886 61.2882 3.86601C61.4106 3.94135 61.5342 4.01787 61.6566 4.09438C61.5472 4.14854 61.4377 4.20269 61.3282 4.25684C61.3247 4.40046 61.3211 4.54525 61.3164 4.68887C61.2152 4.57468 61.114 4.46167 61.0127 4.34748C60.8879 4.36043 60.762 4.37456 60.6372 4.38868Z" fill="white"/>
<path d="M52.1072 1.29028C52.1566 1.1549 52.2049 1.01952 52.2543 0.884144C52.1731 0.792323 52.0907 0.700508 52.0083 0.611041C52.1507 0.583966 52.292 0.559244 52.4333 0.536877C52.518 0.413272 52.6028 0.289665 52.6875 0.167236C52.7252 0.289665 52.7641 0.410915 52.8018 0.534521C52.9348 0.554533 53.0678 0.576901 53.1996 0.601622C53.0831 0.693443 52.9666 0.786441 52.85 0.880616C52.8477 1.01599 52.8453 1.15019 52.8441 1.28557C52.7335 1.21965 52.624 1.15608 52.5133 1.09369C52.3768 1.15608 52.2426 1.222 52.1072 1.29028Z" fill="white"/>
<path d="M54.6795 1.43037C54.7278 1.2997 54.776 1.16786 54.8243 1.03719C54.7454 0.927709 54.6677 0.818228 54.5889 0.711103C54.7266 0.708749 54.8632 0.708748 54.9997 0.709925C55.0821 0.596914 55.1645 0.483904 55.2469 0.37207C55.2834 0.503916 55.3199 0.63694 55.3552 0.769963C55.4835 0.813519 55.613 0.858255 55.7413 0.905343C55.6283 0.980684 55.5141 1.0572 55.3999 1.13489C55.3976 1.2738 55.3941 1.41271 55.3917 1.55044C55.2858 1.46451 55.1786 1.37975 55.0715 1.29617C54.942 1.33854 54.8114 1.38328 54.6795 1.43037Z" fill="white"/>
<path d="M57.1763 1.97761C57.2234 1.84929 57.2716 1.72215 57.3187 1.59384C57.2422 1.47141 57.1668 1.34898 57.0903 1.22656C57.2245 1.24304 57.3575 1.26187 57.4917 1.28188C57.573 1.17711 57.6542 1.07234 57.7354 0.96875C57.7707 1.10884 57.8049 1.24892 57.8402 1.39019C57.9662 1.4514 58.091 1.51261 58.2169 1.57618C58.1051 1.63975 57.9944 1.7045 57.8826 1.76924C57.8791 1.9105 57.8755 2.05177 57.8732 2.19421C57.7696 2.09297 57.666 1.99291 57.5624 1.89285C57.4329 1.91874 57.3046 1.94818 57.1763 1.97761Z" fill="white"/>
<path d="M59.6381 2.82868C59.6851 2.70272 59.7322 2.57793 59.7793 2.45197C59.7052 2.32013 59.631 2.18828 59.5557 2.05644C59.6875 2.08704 59.8182 2.11765 59.95 2.14943C60.0301 2.05055 60.1101 1.95167 60.1902 1.85278C60.2243 1.99876 60.2573 2.14355 60.2914 2.28952C60.415 2.36133 60.5386 2.43432 60.661 2.50848C60.5516 2.56499 60.4409 2.62149 60.3314 2.678C60.3279 2.82162 60.3244 2.96523 60.3208 3.10885C60.2196 2.99819 60.1172 2.88753 60.0159 2.77688C59.89 2.79336 59.764 2.80984 59.6381 2.82868Z" fill="white"/>
<path d="M62.011 3.82005C62.0581 3.69527 62.1052 3.57048 62.1523 3.44688C62.0793 3.31032 62.0051 3.17377 61.9321 3.03722C62.0616 3.07489 62.1923 3.11255 62.3218 3.15022C62.4018 3.05369 62.4807 2.95717 62.5608 2.86182C62.5937 3.01014 62.6279 3.15847 62.6608 3.30679C62.7833 3.38449 62.9057 3.46218 63.0281 3.54105C62.9186 3.59403 62.8091 3.64701 62.7008 3.69998C62.6973 3.84477 62.6938 3.98839 62.6891 4.13319C62.5878 4.01782 62.4878 3.90246 62.3865 3.78709C62.2606 3.79651 62.1358 3.80828 62.011 3.82005Z" fill="white"/>
<path d="M48.6464 6.02727C48.6958 5.88719 48.7465 5.74591 48.7959 5.60583C48.71 5.5352 48.624 5.46575 48.5381 5.39747C48.6864 5.33979 48.8336 5.28563 48.9795 5.23266C49.0666 5.09611 49.1538 4.95955 49.2409 4.823C49.2821 4.9313 49.3221 5.04078 49.3621 5.15143C49.501 5.14319 49.6388 5.13731 49.7765 5.13378C49.6564 5.24561 49.5352 5.35862 49.4151 5.47398C49.4139 5.60347 49.4128 5.73415 49.4116 5.86364C49.2962 5.82362 49.182 5.78477 49.0655 5.74828C48.9266 5.8401 48.7865 5.9331 48.6464 6.02727Z" fill="white"/>
<path d="M48.2416 8.20036C48.291 8.06028 48.3417 7.91902 48.3911 7.77893C48.3052 7.7083 48.2192 7.63884 48.1333 7.57057C48.2816 7.51288 48.4288 7.45873 48.5747 7.40576C48.6619 7.2692 48.749 7.13265 48.8361 6.99609C48.8773 7.1044 48.9173 7.21388 48.9573 7.32454C49.0962 7.3163 49.234 7.31041 49.3717 7.30688C49.2516 7.41871 49.1304 7.53172 49.0103 7.64709C49.0091 7.77658 49.0079 7.90724 49.0068 8.03673C48.8914 7.99671 48.7772 7.95786 48.6607 7.92137C48.523 8.01201 48.3829 8.10501 48.2416 8.20036Z" fill="white"/>
<path d="M47.8344 10.3923C47.8838 10.2522 47.9344 10.1109 47.9839 9.97083C47.8979 9.90019 47.812 9.83074 47.7261 9.76246C47.8744 9.70478 48.0216 9.65062 48.1675 9.59765C48.2546 9.4611 48.3417 9.32454 48.4289 9.18799C48.4701 9.29629 48.5101 9.40577 48.5501 9.51643C48.689 9.50819 48.8268 9.5023 48.9645 9.49877C48.8444 9.6106 48.7232 9.72362 48.6031 9.83898C48.6019 9.96847 48.6007 10.0991 48.5995 10.2286C48.4842 10.1886 48.37 10.1498 48.2535 10.1133C48.1145 10.2051 47.9745 10.2969 47.8344 10.3923Z" fill="white"/>
<path d="M50.5227 10.0168C50.5722 9.88147 50.6204 9.74608 50.6699 9.61071C50.5886 9.51771 50.5062 9.42707 50.4238 9.33643C50.5663 9.30935 50.7075 9.28581 50.8488 9.26344C50.9336 9.13983 51.0183 9.0174 51.1019 8.8938C51.1396 9.01623 51.1784 9.13865 51.2161 9.26108C51.3491 9.28227 51.4821 9.30463 51.614 9.32936C51.4974 9.42118 51.3809 9.513 51.2644 9.60717C51.262 9.74255 51.2596 9.87676 51.2585 10.0121C51.1478 9.94621 51.0383 9.88146 50.9277 9.81907C50.7935 9.88382 50.6581 9.94975 50.5227 10.0168Z" fill="white"/>
<path d="M53.095 10.165C53.1433 10.0343 53.1916 9.90248 53.2398 9.77181C53.161 9.66233 53.0833 9.55285 53.0044 9.44454C53.1421 9.44337 53.2787 9.44337 53.4152 9.44454C53.4976 9.33153 53.58 9.2197 53.6624 9.10669C53.6989 9.23971 53.7354 9.37156 53.7707 9.50458C53.8991 9.54814 54.0286 9.59405 54.1557 9.64114C54.0427 9.71648 53.9285 9.79301 53.8143 9.86952C53.8119 10.0084 53.8084 10.1473 53.806 10.2862C53.7001 10.2003 53.593 10.1144 53.487 10.0308C53.3575 10.0744 53.2257 10.1191 53.095 10.165Z" fill="white"/>
<path d="M55.5518 10.7066C55.5988 10.5783 55.6471 10.4512 55.6942 10.3229C55.6177 10.2004 55.5423 10.078 55.4658 9.95557C55.6 9.97205 55.733 9.99088 55.8672 10.0109C55.9485 9.90612 56.0297 9.80135 56.1109 9.69775C56.1462 9.83784 56.1804 9.97794 56.2157 10.1192C56.3417 10.1804 56.4664 10.2416 56.5924 10.3052C56.4806 10.3688 56.3699 10.4335 56.2581 10.4983C56.2545 10.6395 56.251 10.7808 56.2486 10.9232C56.1451 10.822 56.0415 10.7219 55.9379 10.6218C55.8072 10.6477 55.6801 10.6772 55.5518 10.7066Z" fill="white"/>
<path d="M58.0136 11.5577C58.0606 11.4317 58.1077 11.3069 58.1548 11.181C58.0807 11.0491 58.0065 10.9173 57.9312 10.7854C58.063 10.816 58.1937 10.8467 58.3255 10.8784C58.4056 10.7796 58.4856 10.6807 58.5657 10.5818C58.5998 10.7278 58.6328 10.8726 58.6669 11.0185C58.7905 11.0903 58.9141 11.1633 59.0366 11.2375C58.9271 11.294 58.8164 11.3505 58.7069 11.407C58.7034 11.5506 58.6999 11.6942 58.6963 11.8379C58.5951 11.7272 58.4927 11.6165 58.3915 11.5059C58.2655 11.5224 58.1395 11.5389 58.0136 11.5577Z" fill="white"/>
<path d="M60.4397 12.596C60.4868 12.4712 60.5339 12.3476 60.581 12.2228C60.508 12.0863 60.4338 11.9497 60.3608 11.8132C60.4903 11.8508 60.621 11.8885 60.7505 11.9273C60.8305 11.8308 60.9094 11.7343 60.9894 11.6389C61.0224 11.7872 61.0566 11.9356 61.0895 12.0839C61.2119 12.1616 61.3344 12.2393 61.4568 12.3182C61.3473 12.3711 61.2379 12.4241 61.1296 12.4771C61.126 12.6219 61.1213 12.7655 61.1178 12.9103C61.0165 12.7949 60.9165 12.6796 60.8152 12.5642C60.6893 12.5724 60.5645 12.5842 60.4397 12.596Z" fill="white"/>
<path d="M50.9099 7.82587C50.9594 7.6905 51.0076 7.55512 51.0571 7.41975C50.9759 7.32793 50.8934 7.23611 50.811 7.14547C50.9535 7.11839 51.0948 7.09367 51.236 7.0713C51.3208 6.9477 51.4055 6.82409 51.4891 6.70166C51.5268 6.82409 51.5656 6.94652 51.6033 7.06894C51.7363 7.08896 51.8693 7.1125 52.0012 7.13722C51.8846 7.22904 51.7681 7.32203 51.6516 7.41503C51.6492 7.55041 51.6469 7.68462 51.6457 7.82C51.535 7.75407 51.4255 7.68933 51.3149 7.62693C51.1807 7.69168 51.0453 7.7576 50.9099 7.82587Z" fill="white"/>
<path d="M53.4622 7.96601C53.5105 7.83534 53.5588 7.7035 53.607 7.57283C53.5281 7.46335 53.4505 7.35387 53.3716 7.24675C53.5093 7.24439 53.6459 7.24439 53.7824 7.24557C53.8648 7.13256 53.9472 7.01955 54.0296 6.90771C54.0661 7.03956 54.1026 7.17258 54.1379 7.30561C54.2663 7.34916 54.3957 7.3939 54.5241 7.44099C54.4111 7.51633 54.2969 7.59284 54.1827 7.67054C54.1803 7.80944 54.1768 7.94836 54.1744 8.08609C54.0685 8.00015 53.9614 7.91539 53.8542 7.83181C53.7248 7.87537 53.5941 7.9201 53.4622 7.96601Z" fill="white"/>
<path d="M55.9604 8.5135C56.0075 8.38519 56.0558 8.25805 56.1029 8.12974C56.0264 8.00731 55.951 7.88488 55.8745 7.76245C56.0087 7.77893 56.1417 7.79776 56.2759 7.81778C56.3572 7.71301 56.4384 7.60823 56.5196 7.50464C56.5549 7.64472 56.5891 7.78482 56.6244 7.92608C56.7504 7.9873 56.8751 8.04851 57.0011 8.11208C56.8893 8.17564 56.7786 8.24039 56.6668 8.30514C56.6632 8.4464 56.6597 8.58766 56.6574 8.7301C56.5538 8.62886 56.4502 8.52881 56.3466 8.42875C56.2159 8.45582 56.0876 8.48407 55.9604 8.5135Z" fill="white"/>
<path d="M58.3783 9.37043C58.4254 9.24447 58.4725 9.1185 58.5196 8.99372C58.4454 8.86187 58.3712 8.73003 58.2959 8.59936C58.4277 8.62997 58.5584 8.66058 58.6902 8.69237C58.7703 8.59348 58.8503 8.49342 58.9304 8.39453C58.9645 8.5405 58.9975 8.68529 59.0316 8.83127C59.1553 8.90307 59.2788 8.97606 59.4013 9.05022C59.2918 9.10673 59.1811 9.16324 59.0717 9.21975C59.0681 9.36336 59.0646 9.50698 59.0611 9.64943C58.9598 9.53877 58.8574 9.42811 58.7562 9.31863C58.6302 9.33393 58.5043 9.3516 58.3783 9.37043Z" fill="white"/>
<path d="M60.8279 10.3946C60.875 10.2698 60.9221 10.145 60.9692 10.0214C60.8962 9.88483 60.822 9.74828 60.749 9.61172C60.8785 9.64939 61.0092 9.68706 61.1387 9.72591C61.2187 9.62938 61.2976 9.53285 61.3777 9.4375C61.4106 9.58583 61.4448 9.73416 61.4777 9.88248C61.6002 9.96018 61.7226 10.0379 61.845 10.1167C61.7355 10.1697 61.626 10.2227 61.5177 10.2757C61.5142 10.4205 61.5095 10.5641 61.506 10.7089C61.4047 10.5935 61.3047 10.4781 61.2034 10.3628C61.0787 10.371 60.9539 10.3828 60.8279 10.3946Z" fill="white"/>
<path d="M49.8023 6.8536C49.8518 6.71587 49.9012 6.57813 49.9506 6.4404C49.8671 6.358 49.7835 6.27794 49.6987 6.19789C49.8435 6.15669 49.9883 6.11784 50.1319 6.08135C50.2179 5.95186 50.3038 5.82236 50.3886 5.69287C50.4274 5.80824 50.4675 5.92479 50.5063 6.04133C50.6417 6.04839 50.777 6.05781 50.9124 6.0684C50.7947 6.16964 50.6758 6.27206 50.5569 6.37565C50.5557 6.50867 50.5534 6.64052 50.5522 6.77354C50.4404 6.71939 50.3273 6.6676 50.2143 6.61698C50.0778 6.69468 49.94 6.77355 49.8023 6.8536Z" fill="white"/>
<path d="M49.3517 9.05134C49.4011 8.91361 49.4505 8.77587 49.5 8.63814C49.4164 8.55691 49.3328 8.4757 49.248 8.39682C49.3928 8.35562 49.5377 8.3156 49.6813 8.27911C49.7672 8.14844 49.8531 8.01894 49.9391 7.89062C49.9779 8.00599 50.0179 8.12253 50.0568 8.23907C50.1922 8.24496 50.3275 8.25438 50.4629 8.26498C50.344 8.36622 50.2263 8.46863 50.1074 8.5734C50.1062 8.70643 50.1039 8.83827 50.1027 8.9713C49.9897 8.91832 49.8779 8.86652 49.7649 8.8159C49.6271 8.89242 49.4894 8.97129 49.3517 9.05134Z" fill="white"/>
<path d="M51.9955 8.92558C52.0438 8.79255 52.0921 8.65953 52.1415 8.5265C52.0615 8.42527 51.9814 8.32402 51.9014 8.22514C52.0415 8.21101 52.1804 8.19925 52.3193 8.18983C52.4029 8.07211 52.4864 7.95439 52.57 7.83667C52.6077 7.96381 52.6442 8.09212 52.6819 8.22044C52.8125 8.2534 52.9432 8.28754 53.0738 8.32403C52.9585 8.40761 52.8443 8.49119 52.7289 8.57595C52.7266 8.71251 52.7242 8.85024 52.7219 8.98679C52.6136 8.91027 52.5053 8.83493 52.397 8.76077C52.2616 8.81374 52.1286 8.86907 51.9955 8.92558Z" fill="white"/>
<path d="M54.5277 9.28459C54.576 9.15509 54.6231 9.02561 54.6714 8.89612C54.5937 8.77958 54.5171 8.66303 54.4395 8.54766C54.5748 8.5559 54.7102 8.56532 54.8456 8.57709C54.928 8.46879 55.0092 8.3605 55.0904 8.2522C55.1258 8.38875 55.1611 8.52531 55.1964 8.66304C55.3235 8.71601 55.4507 8.77016 55.5766 8.82549C55.4648 8.89495 55.3518 8.96439 55.24 9.03502C55.2364 9.17511 55.2341 9.3152 55.2305 9.45529C55.1258 9.36111 55.021 9.26811 54.915 9.17511C54.7867 9.21161 54.6572 9.24692 54.5277 9.28459Z" fill="white"/>
<path d="M56.994 9.99438C57.0411 9.86724 57.0882 9.74128 57.1365 9.61415C57.0611 9.48583 56.9858 9.35869 56.9116 9.23156C57.0446 9.25628 57.1765 9.281 57.3083 9.30808C57.3884 9.20684 57.4696 9.10441 57.5497 9.00317C57.5838 9.14679 57.6179 9.28924 57.6521 9.43285C57.7769 9.49995 57.9005 9.56823 58.0252 9.63768C57.9146 9.69654 57.8039 9.75658 57.6933 9.81662C57.6897 9.95906 57.6862 10.1015 57.6827 10.2439C57.5803 10.1368 57.4778 10.0309 57.3743 9.92611C57.2483 9.94965 57.1212 9.97201 56.994 9.99438Z" fill="white"/>
<path d="M59.4155 10.9456C59.4626 10.8208 59.5097 10.696 59.5567 10.5712C59.4826 10.4358 59.4096 10.3016 59.3354 10.1674C59.4661 10.2016 59.5968 10.2369 59.7274 10.2734C59.8075 10.1757 59.8864 10.078 59.9664 9.98145C59.9994 10.1286 60.0335 10.2757 60.0665 10.4229C60.1889 10.4982 60.3125 10.5747 60.4349 10.6513C60.3255 10.7054 60.216 10.7596 60.1065 10.8137C60.103 10.9573 60.0994 11.1021 60.0947 11.2458C59.9935 11.1316 59.8922 11.0186 59.791 10.9044C59.6662 10.9173 59.5415 10.9314 59.4155 10.9456Z" fill="white"/>
<path d="M52.4404 6.75594C52.4886 6.62292 52.5369 6.48989 52.5863 6.35687C52.5063 6.25563 52.4262 6.1544 52.3462 6.05434C52.4863 6.04139 52.6252 6.02961 52.7641 6.02019C52.8477 5.90247 52.9312 5.78476 53.0148 5.66821C53.0525 5.79535 53.089 5.92367 53.1267 6.05198C53.2573 6.08494 53.388 6.12026 53.5175 6.15675C53.4021 6.23916 53.288 6.32392 53.1726 6.40867C53.1702 6.54523 53.1679 6.68296 53.1655 6.81951C53.0572 6.743 52.9489 6.66647 52.8406 6.59231C52.7064 6.64528 52.5734 6.69943 52.4404 6.75594Z" fill="white"/>
<path d="M54.9316 7.11272C54.9798 6.98323 55.0269 6.85374 55.0752 6.72424C54.9975 6.6077 54.921 6.49116 54.8433 6.3758C54.9786 6.38404 55.114 6.39346 55.2494 6.40523C55.3318 6.29693 55.413 6.18862 55.4943 6.08032C55.5296 6.21688 55.5649 6.35343 55.6002 6.49116C55.7273 6.54414 55.8545 6.59829 55.9805 6.65362C55.8686 6.72307 55.7556 6.79253 55.6438 6.86316C55.6402 7.00325 55.6379 7.14333 55.6343 7.28341C55.5296 7.18924 55.4248 7.09624 55.3189 7.00324C55.1905 7.03973 55.061 7.07505 54.9316 7.11272Z" fill="white"/>
<path d="M57.379 7.81541C57.4261 7.68827 57.4732 7.56231 57.5214 7.43518C57.4461 7.30686 57.3708 7.17972 57.2954 7.05259C57.4284 7.07731 57.5603 7.10203 57.6921 7.12911C57.7722 7.02787 57.8534 6.92546 57.9334 6.82422C57.9676 6.96784 58.0017 7.11027 58.0359 7.25388C58.1607 7.32098 58.2842 7.38926 58.409 7.45871C58.2984 7.51757 58.1877 7.57761 58.0771 7.63883C58.0735 7.78127 58.07 7.92371 58.0665 8.06615C57.9641 7.95903 57.8616 7.85308 57.758 7.74831C57.6333 7.77068 57.5061 7.79304 57.379 7.81541Z" fill="white"/>
<path d="M59.8017 8.7654C59.8488 8.64062 59.8959 8.51583 59.943 8.39105C59.8688 8.25567 59.7958 8.12148 59.7217 7.98728C59.8523 8.02141 59.983 8.05672 60.1137 8.09321C60.1937 7.9955 60.2726 7.8978 60.3527 7.80127C60.3856 7.94842 60.4198 8.09557 60.4527 8.24272C60.5752 8.31806 60.6988 8.39458 60.8212 8.4711C60.7117 8.52525 60.6022 8.5794 60.4927 8.63355C60.4892 8.77717 60.4857 8.92196 60.481 9.06558C60.3798 8.95139 60.2785 8.83837 60.1773 8.72419C60.0525 8.73714 59.9265 8.75127 59.8017 8.7654Z" fill="white"/>
<path d="M51.3401 5.63281C51.3895 5.49744 51.4378 5.36205 51.4872 5.22667C51.406 5.13368 51.3236 5.04304 51.2412 4.95239C51.3837 4.92532 51.5249 4.90177 51.6662 4.8794C51.7509 4.75579 51.8357 4.63337 51.9193 4.50977C51.9569 4.63219 51.9958 4.75462 52.0335 4.87705C52.1665 4.89824 52.2995 4.9206 52.4313 4.94532C52.3148 5.03714 52.1983 5.12897 52.0817 5.22315C52.0794 5.35852 52.077 5.49272 52.0758 5.6281C51.9663 5.56218 51.8557 5.49743 51.745 5.43504C51.6108 5.49861 51.4755 5.56454 51.3401 5.63281Z" fill="white"/>
<path d="M53.9276 5.80346C53.9758 5.67279 54.0241 5.54094 54.0724 5.41027C53.9935 5.29961 53.9158 5.19132 53.8369 5.08301C53.9746 5.08184 54.1112 5.08184 54.2478 5.08301C54.3302 4.97 54.4126 4.85817 54.495 4.74634C54.5315 4.87936 54.568 5.0112 54.6033 5.1454C54.7316 5.18896 54.8611 5.23487 54.9882 5.28196C54.8752 5.3573 54.761 5.43382 54.648 5.51034C54.6457 5.64925 54.6421 5.78816 54.6398 5.92707C54.5338 5.84113 54.4267 5.75519 54.3208 5.67161C54.1901 5.71281 54.0594 5.75755 53.9276 5.80346Z" fill="white"/>
<path d="M56.4043 6.35335C56.4514 6.22503 56.4996 6.09789 56.5467 5.96958C56.4702 5.84597 56.3949 5.72355 56.3184 5.6023C56.4526 5.61995 56.5856 5.63761 56.7198 5.65762C56.801 5.55285 56.8822 5.44808 56.9635 5.34448C56.9988 5.48457 57.0329 5.62583 57.0682 5.76591C57.1942 5.82713 57.319 5.88953 57.4449 5.95192C57.3331 6.01549 57.2224 6.08024 57.1106 6.14498C57.1071 6.28624 57.1035 6.42868 57.1012 6.56995C56.9976 6.46871 56.894 6.36864 56.7904 6.26858C56.6597 6.29565 56.5326 6.32392 56.4043 6.35335Z" fill="white"/>
<path d="M58.8104 7.16436C58.8575 7.0384 58.9046 6.91245 58.9517 6.78766C58.8775 6.65582 58.8034 6.52398 58.728 6.39331C58.8599 6.42391 58.9906 6.45453 59.1224 6.48631C59.2024 6.38743 59.2825 6.28854 59.3626 6.18848C59.3967 6.33445 59.4296 6.47924 59.4638 6.62521C59.5874 6.69702 59.711 6.77 59.8334 6.84417C59.724 6.90067 59.6133 6.95719 59.5038 7.01369C59.5003 7.15731 59.4967 7.30092 59.4932 7.44336C59.392 7.3327 59.2896 7.22205 59.1883 7.11139C59.0624 7.12905 58.9364 7.1467 58.8104 7.16436Z" fill="white"/>
<path d="M61.2176 8.19339C61.2647 8.06861 61.3117 7.94382 61.3588 7.82021C61.2858 7.68366 61.2117 7.54711 61.1387 7.41055C61.2682 7.44822 61.3988 7.48589 61.5283 7.52474C61.6084 7.42821 61.6873 7.33168 61.7673 7.23633C61.8003 7.38465 61.8344 7.53297 61.8673 7.6813C61.9898 7.75899 62.1122 7.83669 62.2346 7.91556C62.1252 7.96853 62.0157 8.02152 61.9074 8.07449C61.9039 8.21929 61.8992 8.3629 61.8956 8.50769C61.7944 8.39233 61.6943 8.27697 61.5931 8.1616C61.4671 8.16984 61.3423 8.18162 61.2176 8.19339Z" fill="white"/>
<path d="M76.1999 19.127C65.4121 22.3219 57.4343 10.4287 46.6465 13.6236C46.736 13.1421 46.8254 12.6607 46.9149 12.1804C57.7027 8.98548 65.6805 20.8787 76.4684 17.6838C76.3789 18.1653 76.2894 18.6467 76.1999 19.127Z" fill="#CF1C39"/>
<path d="M75.9211 20.6233C75.8328 21.1001 75.7433 21.5769 75.6551 22.0536C64.8672 25.2486 56.8894 13.3553 46.1016 16.5503C46.1899 16.0735 46.2793 15.5967 46.3676 15.12C57.1554 11.9262 65.1333 23.8194 75.9211 20.6233Z" fill="#CF1C39"/>
<path d="M75.3912 23.4721C75.3559 23.6652 75.1687 24.6576 75.1334 24.8494C64.3456 28.0443 56.3689 16.1511 45.5811 19.3472C45.6164 19.1542 45.8024 18.1618 45.8377 17.9687C56.6255 14.7738 64.6034 26.667 75.3912 23.4721Z" fill="#CF1C39"/>
<path d="M40.957 43.369L49.1527 0.592041" stroke="#0047AB" stroke-miterlimit="10" stroke-linecap="round" stroke-linejoin="round"/>
<path opacity="0.31" d="M18.5138 78.4036L18.4784 78.3142L4.38507 44.3921L0 33.3524L9.08442 30.1375C9.20567 33.4195 9.51528 38.864 10.2946 44.0154L10.2852 43.8765C11.2093 51.2622 12.7514 59.6827 15.2671 68.4634C15.2671 68.4634 15.3483 68.7459 15.4683 69.1544C15.5849 69.5629 15.7462 70.0915 15.8992 70.6071C15.8992 70.6071 15.8992 70.6118 15.8992 70.6165C16.1099 71.3157 16.3301 72.0244 16.5584 72.7284C17.16 74.6095 17.8098 76.5025 18.5138 78.4036Z" fill="#2A72DA"/>
<path d="M26.4035 17.7921C31.4941 17.7921 35.6209 13.8092 35.6209 8.89607C35.6209 3.9829 31.4941 0 26.4035 0C21.3128 0 17.186 3.9829 17.186 8.89607C17.186 13.8092 21.3128 17.7921 26.4035 17.7921Z" fill="#0047AB"/>
<path d="M50.7288 71.3722L45.1242 74.188C43.4961 71.0897 40.0352 69.0355 36.1198 69.3451C31.537 69.7123 27.883 73.3946 27.6947 77.8291C27.6229 79.4842 28.0172 81.044 28.7706 82.399L28.3892 82.5873L25.3933 84.0894H25.3885L21.5862 86L18.5149 78.4036C17.8109 76.5024 17.1611 74.6095 16.5596 72.7271C16.3312 72.0232 16.1111 71.3145 15.9003 70.6152C15.9003 70.6105 15.9003 70.6058 15.9003 70.6058C15.7485 70.0902 15.586 69.5605 15.4695 69.1532C15.3482 68.7447 15.2682 68.4622 15.2682 68.4622C12.7525 59.6826 11.2104 51.261 10.2863 43.8753L10.2957 44.0142C9.51524 38.8616 9.20564 33.4182 9.08556 30.1362C9.01375 28.2527 9.00434 27.0826 9.00434 27.0826C8.96432 25.6123 8.9502 24.2891 8.9502 23.1143C8.9502 22.4056 8.95018 21.751 8.96313 21.1589C8.99844 18.8092 9.0844 17.4143 9.09734 17.2224C9.09734 17.2047 9.09734 17.1953 9.09734 17.1953L14.0074 17.864L16.4866 18.276C16.4689 18.4961 16.4595 18.7151 16.4595 18.9352C16.4595 23.85 20.5844 27.8313 25.6746 27.8313C29.9207 27.8313 33.49 25.0649 34.5624 21.2978L37.2076 21.7416L41.2477 22.4503V22.468C41.2383 22.6022 41.1312 24.5893 41.1441 27.7771C41.1441 27.7771 41.3819 36.7721 41.7633 40.2436C42.2389 45.1631 43.0453 50.6159 44.4179 55.9474C44.4226 55.9651 44.4273 55.9745 44.4309 55.9921C44.9465 58.0864 45.0183 58.1535 45.023 58.1535C46.3921 62.8976 48.2438 67.4627 50.7288 71.3722Z" fill="#6495ED"/>
<path d="M21.5864 86C20.4657 83.4714 19.4428 80.9334 18.5151 78.4036L21.5864 86Z" fill="#0047AB"/>
</svg>
