<svg width="147" height="109" viewBox="0 0 147 109" fill="none" xmlns="http://www.w3.org/2000/svg">
<path opacity="0.31" d="M50.061 73.8482L40.3541 69.1491L29.3995 82.2132L27.5601 79.6021L29.8497 62.0404L20.7816 34.7461L0 42.1035L5.53518 56.0379L23.3241 98.8616L27.2472 108.564L27.7016 105.747L32.0363 89.219L38.0946 82.4919L48.912 81.6601L31.6847 69.7365L50.061 73.8482Z" fill="#2A72DA"/>
<path d="M33.3263 22.458C39.7528 22.458 44.9626 17.4306 44.9626 11.229C44.9626 5.0274 39.7528 0 33.3263 0C26.8997 0 21.6899 5.0274 21.6899 11.229C21.6899 17.4306 26.8997 22.458 33.3263 22.458Z" fill="#0047AB"/>
<path d="M64.0388 90.102L56.9601 93.6564C54.9021 89.7419 50.5374 87.1479 45.5939 87.5424C39.81 88.0054 35.1967 92.6574 34.9566 98.2526C34.8665 100.341 35.3639 102.313 36.3157 104.019L35.8355 104.259L32.0539 106.154L27.2519 108.564C24.7737 102.969 22.6771 97.3522 20.9064 91.8085C20.6191 90.921 20.3404 90.0249 20.0746 89.1374V89.1288C19.8774 88.4771 19.6802 87.8082 19.5301 87.2894C19.38 86.7749 19.2771 86.4191 19.2771 86.4191C16.1001 75.3358 14.1578 64.7071 12.9916 55.3818L13.0002 55.5618C11.4481 45.3275 11.371 34.1843 11.371 34.1843C11.3195 32.3321 11.3066 30.6557 11.3066 29.1765C11.3066 28.2804 11.3066 27.4529 11.3238 26.7069C11.371 23.7399 11.4781 21.9863 11.491 21.7376V21.7076L17.6908 22.548L20.8206 23.071C20.7992 23.3454 20.7863 23.6241 20.7863 23.9028C20.7863 30.1069 25.9957 35.1318 32.4184 35.1318C37.7778 35.1318 42.2839 31.6418 43.6345 26.8869L46.9788 27.4443L52.0809 28.3404V28.3618C52.068 28.5376 51.9308 31.0415 51.948 35.0675C51.948 35.0675 52.2438 46.4208 52.724 50.8027C53.3286 57.0153 54.349 63.8968 56.0769 70.6239C56.0854 70.6453 56.0897 70.6624 56.094 70.6839C56.7457 73.3293 56.8358 73.4107 56.84 73.4107C58.5722 79.4004 60.9046 85.1628 64.0431 90.0978L64.0388 90.102Z" fill="#6495ED"/>
<g clip-path="url(#clip0_88_3)">
<path d="M131.828 66.0826H125.759C123.345 66.0826 121.029 67.0417 119.322 68.7488C117.615 70.456 116.656 72.7715 116.656 75.1858V99.461C116.656 101.875 117.615 104.191 119.322 105.898C121.029 107.605 123.345 108.564 125.759 108.564H131.828C134.242 108.564 136.558 107.605 138.265 105.898C139.972 104.191 140.931 101.875 140.931 99.461V75.1858C140.931 72.7715 139.972 70.456 138.265 68.7488C136.558 67.0417 134.242 66.0826 131.828 66.0826ZM125.759 72.1514H131.828C132.633 72.1514 133.404 72.4711 133.974 73.0401C134.543 73.6092 134.862 74.381 134.862 75.1858V81.2546H122.725V75.1858C122.725 74.381 123.044 73.6092 123.613 73.0401C124.182 72.4711 124.954 72.1514 125.759 72.1514ZM131.828 102.495H125.759C124.954 102.495 124.182 102.176 123.613 101.607C123.044 101.038 122.725 100.266 122.725 99.461V87.3234H134.862V99.461C134.862 100.266 134.543 101.038 133.974 101.607C133.404 102.176 132.633 102.495 131.828 102.495ZM101.484 53.945H95.415C93.0007 53.945 90.6853 54.904 88.9781 56.6112C87.2709 58.3184 86.3118 60.6338 86.3118 63.0482V99.461C86.3118 101.875 87.2709 104.191 88.9781 105.898C90.6853 107.605 93.0007 108.564 95.415 108.564H101.484C103.898 108.564 106.214 107.605 107.921 105.898C109.628 104.191 110.587 101.875 110.587 99.461V90.3578C110.587 89.553 110.267 88.7812 109.698 88.2122C109.129 87.6431 108.357 87.3234 107.553 87.3234C106.748 87.3234 105.976 87.6431 105.407 88.2122C104.838 88.7812 104.518 89.553 104.518 90.3578V99.461C104.518 100.266 104.199 101.038 103.629 101.607C103.06 102.176 102.289 102.495 101.484 102.495H95.415C94.6102 102.495 93.8384 102.176 93.2694 101.607C92.7003 101.038 92.3806 100.266 92.3806 99.461V75.1858H104.518V78.2202C104.518 79.025 104.838 79.7968 105.407 80.3658C105.976 80.9349 106.748 81.2546 107.553 81.2546C108.357 81.2546 109.129 80.9349 109.698 80.3658C110.267 79.7968 110.587 79.025 110.587 78.2202V63.0482C110.587 60.6338 109.628 58.3184 107.921 56.6112C106.214 54.904 103.898 53.945 101.484 53.945ZM92.3806 69.117V63.0482C92.3806 62.2434 92.7003 61.4716 93.2694 60.9025C93.8384 60.3335 94.6102 60.0138 95.415 60.0138H101.484C102.289 60.0138 103.06 60.3335 103.629 60.9025C104.199 61.4716 104.518 62.2434 104.518 63.0482V69.117H92.3806ZM71.1398 41.8073H65.071C62.6567 41.8073 60.3412 42.7664 58.634 44.4736C56.9269 46.1808 55.9678 48.4962 55.9678 50.9106V99.461C55.9678 101.875 56.9269 104.191 58.634 105.898C60.3412 107.605 62.6567 108.564 65.071 108.564H71.1398C73.5541 108.564 75.8696 107.605 77.5767 105.898C79.2839 104.191 80.243 101.875 80.243 99.461V50.9106C80.243 48.4962 79.2839 46.1808 77.5767 44.4736C75.8696 42.7664 73.5541 41.8073 71.1398 41.8073ZM65.071 47.8761H71.1398C71.9446 47.8761 72.7164 48.1958 73.2854 48.7649C73.8545 49.334 74.1742 50.1058 74.1742 50.9106V56.9794H62.0366V50.9106C62.0366 50.1058 62.3563 49.334 62.9253 48.7649C63.4944 48.1958 64.2662 47.8761 65.071 47.8761ZM71.1398 102.495H65.071C64.2662 102.495 63.4944 102.176 62.9253 101.607C62.3563 101.038 62.0366 100.266 62.0366 99.461V63.0482H74.1742V99.461C74.1742 100.266 73.8545 101.038 73.2854 101.607C72.7164 102.176 71.9446 102.495 71.1398 102.495Z" fill="#0047AB"/>
<path d="M134.862 56.9797C134.463 56.982 134.067 56.9055 133.697 56.7545C133.328 56.6035 132.991 56.381 132.708 56.0997C124.354 47.6926 114.415 41.0273 103.466 36.4904C92.517 31.9535 80.7763 29.6353 68.9247 29.6701H59.0022C58.1974 29.6701 57.4256 29.3504 56.8565 28.7813C56.2875 28.2123 55.9678 27.4405 55.9678 26.6357C55.9678 25.8309 56.2875 25.0591 56.8565 24.49C57.4256 23.921 58.1974 23.6013 59.0022 23.6013H68.9247C81.5743 23.5669 94.1052 26.0405 105.793 30.8791C117.481 35.7177 128.093 42.8253 137.017 51.7909C137.445 52.2153 137.736 52.7576 137.855 53.3485C137.974 53.9394 137.913 54.5523 137.682 55.109C137.451 55.6656 137.06 56.1408 136.557 56.474C136.055 56.8072 135.465 56.9832 134.862 56.9797Z" fill="#6495ED"/>
<path d="M137.897 60.0141H125.759C124.954 60.0141 124.182 59.6944 123.613 59.1254C123.044 58.5563 122.725 57.7845 122.725 56.9797C122.725 56.175 123.044 55.4031 123.613 54.8341C124.182 54.265 124.954 53.9453 125.759 53.9453H134.862V44.8421C134.862 44.0373 135.182 43.2655 135.751 42.6965C136.32 42.1274 137.092 41.8077 137.897 41.8077C138.701 41.8077 139.473 42.1274 140.042 42.6965C140.611 43.2655 140.931 44.0373 140.931 44.8421V56.9797C140.931 57.7845 140.611 58.5563 140.042 59.1254C139.473 59.6944 138.701 60.0141 137.897 60.0141Z" fill="#6495ED"/>
</g>
<defs>
<clipPath id="clip0_88_3">
<rect width="97.1009" height="97.1009" fill="white" transform="translate(49.8989 11.4633)"/>
</clipPath>
</defs>
</svg>
