<svg width="139" height="152" viewBox="0 0 139 152" fill="none" xmlns="http://www.w3.org/2000/svg">
<path d="M77.3149 58.769H25.5933V110.491H77.3149V58.769Z" fill="#E3F1FF"/>
<path d="M123.811 44.9281H72.0898V96.6498H123.811V44.9281Z" fill="#E3F1FF"/>
<path d="M64.4564 26.0042H32.5596V35.7263H64.4564V26.0042Z" fill="#E3F1FF"/>
<path d="M100.391 38.3097V102.35C100.391 103.169 99.7261 103.834 98.9064 103.834H40.7033C39.8836 103.834 39.2188 103.169 39.2188 102.35V38.3097C39.2188 37.49 39.8836 36.8251 40.7033 36.8251H98.9064C99.7261 36.8251 100.391 37.49 100.391 38.3097Z" fill="#F7F7F7"/>
<path d="M39.2793 42.7076H100.457V38.1143C100.457 37.2946 99.7917 36.6297 98.972 36.6297H40.7664C39.9467 36.6297 39.2818 37.2946 39.2818 38.1143V42.7076H39.2793Z" fill="#0047AB"/>
<path d="M52.3312 40.5455C52.8161 40.5455 53.2092 40.1523 53.2092 39.6674C53.2092 39.1825 52.8161 38.7893 52.3312 38.7893C51.8462 38.7893 51.4531 39.1825 51.4531 39.6674C51.4531 40.1523 51.8462 40.5455 52.3312 40.5455Z" fill="white"/>
<path d="M48.1285 40.5455C48.6135 40.5455 49.0066 40.1523 49.0066 39.6674C49.0066 39.1825 48.6135 38.7893 48.1285 38.7893C47.6436 38.7893 47.2505 39.1825 47.2505 39.6674C47.2505 40.1523 47.6436 40.5455 48.1285 40.5455Z" fill="white"/>
<path d="M43.9259 40.5455C44.4108 40.5455 44.804 40.1523 44.804 39.6674C44.804 39.1825 44.4108 38.7893 43.9259 38.7893C43.441 38.7893 43.0479 39.1825 43.0479 39.6674C43.0479 40.1523 43.441 40.5455 43.9259 40.5455Z" fill="white"/>
<g opacity="0.5">
<path d="M54.4526 78.5887H43.624V89.4172H54.4526V78.5887Z" fill="#D8D8D8"/>
<path d="M68.3188 78.5887H57.4902V89.4172H68.3188V78.5887Z" fill="#D8D8D8"/>
<path d="M82.185 78.5887H71.3564V89.4172H82.185V78.5887Z" fill="#D8D8D8"/>
<path d="M96.0487 78.5887H85.2202V89.4172H96.0487V78.5887Z" fill="#D8D8D8"/>
</g>
<path opacity="0.5" d="M96.1373 67.4582H43.5376V74.6349H96.1373V67.4582Z" fill="#D8D8D8"/>
<path d="M61.4441 45.6692H43.52V63.5932H61.4441V45.6692Z" fill="#6495ED"/>
<path opacity="0.5" d="M96.1553 46.9558H63.7534V48.217H96.1553V46.9558Z" fill="#D8D8D8"/>
<path opacity="0.5" d="M96.1553 51.5542H63.7534V52.8154H96.1553V51.5542Z" fill="#D8D8D8"/>
<path opacity="0.5" d="M96.1553 56.15H63.7534V57.4113H96.1553V56.15Z" fill="#D8D8D8"/>
<path opacity="0.5" d="M96.1553 60.7484H63.7534V62.0097H96.1553V60.7484Z" fill="#D8D8D8"/>
<path opacity="0.5" d="M95.8558 95.4824H43.8169V96.7437H95.8558V95.4824Z" fill="#D8D8D8"/>
<path d="M117.015 84.8112H78.0231C77.1273 84.8112 76.3989 84.0854 76.3989 83.1871V58.0381C76.3989 57.1423 77.1247 56.4139 78.0231 56.4139H117.015C117.911 56.4139 118.64 57.1397 118.64 58.0381V83.1871C118.637 84.0829 117.911 84.8112 117.015 84.8112Z" fill="white"/>
<path d="M97.5207 62.134C99.0179 62.134 100.467 62.3522 101.835 62.7659L100.023 67.1993C99.2235 66.9963 98.386 66.8897 97.5232 66.8897C91.8437 66.8897 87.2378 71.4957 87.2378 77.1752H82.4795C82.477 68.8641 89.2121 62.134 97.5207 62.134Z" fill="#6495ED"/>
<path d="M112.562 77.1726H107.804C107.804 73.1706 105.52 69.7015 102.183 68.0089L103.987 63.5932C109.055 66.0066 112.562 71.181 112.562 77.1726Z" fill="#D8D8D8"/>
<path d="M102.86 63.2582L96.2695 76.5204L98.7134 77.4772L102.86 63.2582Z" fill="#0047AB"/>
<path d="M97.5205 79.0937C98.6137 79.0937 99.4999 78.2075 99.4999 77.1143C99.4999 76.021 98.6137 75.1348 97.5205 75.1348C96.4272 75.1348 95.541 76.021 95.541 77.1143C95.541 78.2075 96.4272 79.0937 97.5205 79.0937Z" fill="#0047AB"/>
<path d="M87.4812 18.8021C83.2863 18.7894 79.8629 22.19 79.8477 26.3874C79.835 30.5823 83.2356 34.0057 87.433 34.0209C91.6279 34.0336 95.0513 30.633 95.064 26.4356C95.0792 22.2407 91.6761 18.8148 87.4812 18.8021ZM87.4787 19.6675C88.0091 20.2207 89.2475 21.6672 89.8997 23.7075C88.2806 24.172 86.6488 24.1593 85.0424 23.6695C85.7073 21.6444 86.9483 20.2131 87.4787 19.6675ZM90.0418 28.4277C88.3187 27.9303 86.5803 27.9303 84.8673 28.4328C84.4892 26.9356 84.5552 25.5601 84.847 24.3623C85.7276 24.6287 86.6133 24.7734 87.5015 24.7759C88.3643 24.7785 89.2272 24.6491 90.0875 24.4029C90.3641 25.5931 90.4199 26.9508 90.0418 28.4277ZM89.8362 29.118C89.4048 30.3818 88.646 31.7192 87.4381 33.1099C86.2453 31.7217 85.4942 30.3843 85.0704 29.1256C86.6488 28.6612 88.2476 28.6587 89.8362 29.118ZM90.7371 24.1923C91.6355 23.87 92.5085 23.4182 93.3383 22.8447C93.9753 23.8928 94.3483 25.1185 94.3458 26.4331C94.3407 27.7476 93.9601 28.9734 93.3155 30.0164C92.4882 29.4352 91.6152 28.9784 90.7143 28.6511C91.133 27.0168 91.0569 25.5068 90.7371 24.1923ZM92.9348 22.2483C92.1684 22.7787 91.3665 23.1949 90.5417 23.4969C89.9707 21.718 88.9988 20.3527 88.3593 19.5863C90.222 19.8324 91.8487 20.8221 92.9348 22.2483ZM86.6006 19.5812C85.9586 20.3374 84.9866 21.6875 84.4029 23.4487C83.6086 23.1442 82.8143 22.7178 82.0378 22.1748C83.1315 20.7765 84.7531 19.8121 86.6006 19.5812ZM81.6241 22.7635C82.4692 23.3523 83.332 23.8141 84.1999 24.1415C83.8624 25.4713 83.7736 26.999 84.1923 28.6587C83.3219 28.981 82.454 29.4378 81.6013 30.0214C80.9465 28.9632 80.5633 27.7223 80.5684 26.3899C80.5735 25.0576 80.9643 23.8167 81.6241 22.7635ZM82.0099 30.6127C82.7965 30.0722 83.5959 29.6509 84.3928 29.3489C84.8039 30.5874 85.5068 31.8943 86.6032 33.2393C84.7405 33.0109 83.1062 32.0313 82.0099 30.6127ZM88.2679 33.2469C89.382 31.8968 90.0951 30.5874 90.5113 29.3413C91.3335 29.6459 92.1481 30.0773 92.9069 30.6077C91.803 32.0389 90.1534 33.0261 88.2679 33.2469Z" fill="#E3F1FF"/>
<path d="M59.15 92.8432L28.5601 92.7468C28.182 92.7468 27.8774 92.4372 27.8774 92.059L27.9257 76.9037C27.9257 76.5255 28.2353 76.221 28.6134 76.221L59.2033 76.3174C59.5814 76.3174 59.8859 76.627 59.8859 77.0052L59.8377 92.1605C59.8377 92.5387 59.5281 92.8457 59.15 92.8432Z" fill="#B5D6F9"/>
<path d="M33.4101 85.2356L31.4814 85.2295L31.4654 90.3481L33.394 90.3541L33.4101 85.2356Z" fill="#4C94E1"/>
<path d="M37.3164 83.3526L35.3877 83.3465L35.3657 90.3608L37.2943 90.3668L37.3164 83.3526Z" fill="white"/>
<path d="M41.226 80.5712L39.2974 80.5652L39.2666 90.3709L41.1952 90.377L41.226 80.5712Z" fill="#4C94E1"/>
<path d="M45.1171 83.5099L43.1885 83.5038L43.1669 90.3836L45.0955 90.3897L45.1171 83.5099Z" fill="white"/>
<path d="M49.0039 87.0127L47.0752 87.0066L47.0645 90.397L48.9932 90.4031L49.0039 87.0127Z" fill="#4C94E1"/>
<path d="M56.8315 78.5943L54.9028 78.5883L54.8657 90.4217L56.7943 90.4277L56.8315 78.5943Z" fill="#4C94E1"/>
<path d="M52.9243 81.2412L50.9956 81.2351L50.9668 90.409L52.8955 90.415L52.9243 81.2412Z" fill="white"/>
<path opacity="0.31" d="M49.0631 117.976L39.5496 113.371L28.8134 126.174L27.0107 123.615L29.2546 106.404L20.3673 79.6534L0 86.8642L5.42484 100.521L22.8591 142.491L26.704 152L27.1494 149.239L31.3977 133.04L37.3352 126.447L47.9369 125.632L31.0531 113.946L49.0631 117.976Z" fill="#2A72DA"/>
<path d="M32.6617 67.6103C38.9601 67.6103 44.066 62.6832 44.066 56.6052C44.066 50.5272 38.9601 45.6 32.6617 45.6C26.3632 45.6 21.2573 50.5272 21.2573 56.6052C21.2573 62.6832 26.3632 67.6103 32.6617 67.6103Z" fill="#0047AB"/>
<path d="M62.762 133.906L55.8244 137.389C53.8074 133.553 49.5297 131.011 44.6848 131.397C39.0162 131.851 34.4948 136.41 34.2595 141.894C34.1713 143.94 34.6587 145.873 35.5916 147.546L35.1209 147.781L31.4147 149.638L26.7085 152C24.2797 146.516 22.2249 141.012 20.4894 135.578C20.2079 134.708 19.9348 133.83 19.6742 132.96V132.952C19.4809 132.313 19.2876 131.658 19.1406 131.149C18.9935 130.645 18.8927 130.296 18.8927 130.296C15.7789 119.434 13.8754 109.017 12.7325 99.8778L12.7409 100.054C11.2197 90.024 11.1441 79.1029 11.1441 79.1029C11.0937 77.2876 11.0811 75.6446 11.0811 74.1949C11.0811 73.3166 11.0811 72.5056 11.0979 71.7745C11.1441 68.8667 11.2491 67.148 11.2617 66.9043V66.8749L17.3379 67.6985L20.4054 68.2112C20.3844 68.4801 20.3718 68.7532 20.3718 69.0264C20.3718 75.1067 25.4773 80.0315 31.7719 80.0315C37.0245 80.0315 41.4408 76.611 42.7645 71.951L46.0421 72.4972L51.0425 73.3755V73.3965C51.0299 73.5688 50.8954 76.0228 50.9122 79.9685C50.9122 79.9685 51.2022 91.0955 51.6728 95.39C52.2653 101.479 53.2654 108.223 54.9588 114.816C54.9672 114.837 54.9714 114.854 54.9756 114.875C55.6143 117.468 55.7026 117.547 55.7068 117.547C57.4044 123.418 59.6903 129.065 62.7662 133.902L62.762 133.906Z" fill="#6495ED"/>
</svg>
