<svg width="88" height="149" viewBox="0 0 88 149" fill="none" xmlns="http://www.w3.org/2000/svg">
<path opacity="0.31" d="M69 101.501L55.6205 95.0711L40.5218 112.946L37.9866 109.373L41.1424 85.3448L28.6435 48L0 58.0666L7.6291 77.1322L32.1479 135.725L37.5552 149L38.1815 145.146L44.1561 122.531L52.5063 113.327L67.4161 112.189L43.6716 95.8748L69 101.501Z" fill="#6495ED"/>
<path d="M46 31C54.8367 31 62 24.0604 62 15.5C62 6.93961 54.8367 0 46 0C37.1636 0 30 6.93961 30 15.5C30 24.0604 37.1636 31 46 31Z" fill="#0047AB"/>
<path d="M87.994 123.705L78.3298 128.575C75.5201 123.212 69.5608 119.658 62.8116 120.199C54.9152 120.833 48.6166 127.207 48.2889 134.872C48.166 137.733 48.8448 140.435 50.1444 142.773L49.4888 143.102L44.3258 145.698L37.7698 149C34.3865 141.334 31.5239 133.639 29.1064 126.043C28.7142 124.828 28.3337 123.6 27.9709 122.384V122.372C27.7015 121.479 27.4322 120.563 27.2273 119.852C27.0224 119.147 26.882 118.659 26.882 118.659C22.5446 103.475 19.8928 88.9126 18.3006 76.1362L18.3124 76.3828C16.1934 62.3611 16.088 47.0939 16.088 47.0939C16.0176 44.5565 16 42.2596 16 40.233C16 39.0051 16 37.8714 16.0236 36.8494C16.088 32.7844 16.2342 30.3818 16.2518 30.0413V30L24.7163 31.1513L28.9893 31.8681C28.9602 32.2441 28.9426 32.6258 28.9426 33.0076C28.9426 41.5076 36.0547 48.3923 44.8234 48.3923C52.1406 48.3923 58.2926 43.6107 60.1366 37.096L64.7025 37.8598L71.6684 39.0874V39.1169C71.6505 39.3577 71.4635 42.7883 71.4868 48.3042C71.4868 48.3042 71.8905 63.859 72.5463 69.8625C73.3716 78.3741 74.7647 87.8023 77.1238 97.0191C77.1356 97.0482 77.1413 97.0719 77.1473 97.1011C78.0371 100.725 78.16 100.837 78.1657 100.837C80.5306 109.044 83.7149 116.938 88 123.7L87.994 123.705Z" fill="#6495ED"/>
</svg>
