<svg width="1601" height="682" viewBox="0 0 1601 682" fill="none" xmlns="http://www.w3.org/2000/svg">
<path d="M1487 206.823C1486.97 340.573 1486.9 474.293 1486.9 608.01C1478.43 608.446 1453.58 611.282 1434.42 630.666C1415.25 649.956 1414.67 672.799 1415.25 681.865C1196.34 681.897 976.913 681.968 758 682L758.5 142L823.713 142.067C947.327 142.067 1070.91 142.035 1194.52 142.005C1269.9 142.038 1345.32 142.067 1420.7 142.067C1421.46 149.423 1424.68 168.462 1441.85 185.103C1458.34 200.993 1477.98 205.452 1487 206.823Z" fill="url(#paint0_linear_1_74)"/>
<path d="M0 206.823C0.0334473 340.584 0.107056 474.316 0.107056 608.045C8.91833 608.48 34.7766 611.317 54.7148 630.702C74.6531 649.995 75.2589 672.839 74.6531 681.906C302.434 681.939 530.219 681.968 758 682L758.5 142L690.157 142.061C561.535 142.061 432.947 142.029 304.325 142C225.89 142.032 147.415 142.061 68.9807 142.061C68.1976 149.418 64.8446 168.458 46.9744 185.101C29.817 200.993 9.38019 205.452 0 206.823Z" fill="url(#paint1_linear_1_74)"/>
<mask id="path-3-inside-1_1_74" fill="white">
<path d="M1358.18 188H119.824C86.7582 188 60 211.838 60 241.258V566.772C60 596.161 86.7582 620 119.824 620H1358.18C1391.24 620 1418 596.161 1418 566.772V241.258C1418 211.838 1391.24 188 1358.18 188ZM1411.5 560C1411.5 601.5 1382.67 612 1353.01 612H737H125C78.5 614 66.5 587.5 66.5 559.5V248C66.5 212 90.164 194.5 119.824 194.5H737H1353.01C1382.66 194.5 1411.5 221.08 1411.5 247.5V405V560Z"/>
</mask>
<path d="M1358.18 188H119.824C86.7582 188 60 211.838 60 241.258V566.772C60 596.161 86.7582 620 119.824 620H1358.18C1391.24 620 1418 596.161 1418 566.772V241.258C1418 211.838 1391.24 188 1358.18 188ZM1411.5 560C1411.5 601.5 1382.67 612 1353.01 612H737H125C78.5 614 66.5 587.5 66.5 559.5V248C66.5 212 90.164 194.5 119.824 194.5H737H1353.01C1382.66 194.5 1411.5 221.08 1411.5 247.5V405V560Z" fill="white"/>
<path d="M125 612V596H124.656L124.312 596.015L125 612ZM1358.18 172H119.824V204H1358.18V172ZM119.824 172C79.7176 172 44 201.307 44 241.258H76C76 222.37 93.7988 204 119.824 204V172ZM44 241.258V566.772H76V241.258H44ZM44 566.772C44 606.698 79.7239 636 119.824 636V604C93.7925 604 76 585.624 76 566.772H44ZM119.824 636H1358.18V604H119.824V636ZM1358.18 636C1398.28 636 1434 606.698 1434 566.772H1402C1402 585.624 1384.21 604 1358.18 604V636ZM1434 566.772V241.258H1402V566.772H1434ZM1434 241.258C1434 201.307 1398.28 172 1358.18 172V204C1384.2 204 1402 222.37 1402 241.258H1434ZM1395.5 560C1395.5 576.588 1390.03 584.282 1384.06 588.551C1377.1 593.533 1366.44 596 1353.01 596V628C1369.24 628 1387.82 625.216 1402.69 614.573C1418.55 603.218 1427.5 584.911 1427.5 560H1395.5ZM124.312 596.015C104.145 596.882 94.8783 591.533 90.2502 586.347C85.1687 580.652 82.5 571.65 82.5 559.5H50.5C50.5 575.35 53.8313 593.597 66.3748 607.653C79.3717 622.217 99.3546 629.118 125.688 627.985L124.312 596.015ZM82.5 559.5V248H50.5V559.5H82.5ZM82.5 248C82.5 233.688 87.0806 224.866 92.8866 219.512C98.9097 213.957 108.04 210.5 119.824 210.5V178.5C101.948 178.5 84.4163 183.793 71.1924 195.988C57.7514 208.384 50.5 226.312 50.5 248H82.5ZM1353.01 210.5C1363.18 210.5 1374.1 215.171 1382.6 222.919C1391.21 230.766 1395.5 240.011 1395.5 247.5H1427.5C1427.5 228.569 1417.37 211.313 1404.15 199.266C1390.82 187.118 1372.49 178.5 1353.01 178.5V210.5ZM119.824 210.5H737V178.5H119.824V210.5ZM737 210.5H1353.01V178.5H737V210.5ZM1353.01 596H737V628H1353.01V596ZM737 596H125V628H737V596ZM1395.5 247.5V405H1427.5V247.5H1395.5ZM1395.5 405V560H1427.5V405H1395.5Z" fill="white" mask="url(#path-3-inside-1_1_74)"/>
<path opacity="0.31" d="M1520.88 421.712L1465.44 394.878L1402.89 469.481L1392.38 454.57L1405.46 354.283L1353.67 198.418L1235 240.433L1266.61 320.006L1368.19 564.552L1390.6 619.96L1393.19 603.874L1417.94 509.488L1452.54 471.072L1514.31 466.322L1415.94 398.232L1520.88 421.712Z" fill="#010101" fill-opacity="0.3"/>
<path d="M1425.32 128.247C1462.01 128.247 1491.77 99.5383 1491.77 64.1237C1491.77 28.7092 1462.01 0 1425.32 0C1388.62 0 1358.87 28.7092 1358.87 64.1237C1358.87 99.5383 1388.62 128.247 1425.32 128.247Z" fill="#0047AB"/>
<path d="M1600.69 514.53L1560.27 534.828C1548.52 512.474 1523.59 497.661 1495.36 499.913C1462.34 502.558 1435.99 529.123 1434.62 561.075C1434.11 572.998 1436.95 584.261 1442.38 594.006L1439.64 595.377L1418.04 606.199L1390.62 619.959C1376.47 588.007 1364.5 555.933 1354.39 524.275C1352.74 519.207 1351.15 514.09 1349.64 509.021V508.973C1348.51 505.251 1347.38 501.431 1346.53 498.469C1345.67 495.531 1345.08 493.499 1345.08 493.499C1326.94 430.207 1315.85 369.511 1309.19 316.258L1309.24 317.287C1300.37 258.843 1299.93 195.209 1299.93 195.209C1299.64 184.632 1299.57 175.059 1299.57 166.612C1299.57 161.495 1299.57 156.769 1299.66 152.509C1299.93 135.566 1300.54 125.552 1300.62 124.132V123.961L1336.02 128.76L1353.9 131.747C1353.77 133.314 1353.7 134.905 1353.7 136.497C1353.7 171.925 1383.45 200.62 1420.12 200.62C1450.73 200.62 1476.46 180.69 1484.18 153.537L1503.27 156.72L1532.41 161.838V161.96C1532.34 162.964 1531.55 177.262 1531.65 200.253C1531.65 200.253 1533.34 265.087 1536.08 290.11C1539.53 325.587 1545.36 364.884 1555.23 403.299C1555.28 403.422 1555.3 403.52 1555.33 403.642C1559.05 418.749 1559.56 419.214 1559.59 419.214C1569.48 453.418 1582.8 486.325 1600.72 514.506L1600.69 514.53Z" fill="#6495ED"/>
<defs>
<linearGradient id="paint0_linear_1_74" x1="1122.76" y1="142.005" x2="1122.76" y2="681.959" gradientUnits="userSpaceOnUse">
<stop stop-color="#0047AB" stop-opacity="0.15"/>
<stop offset="1" stop-color="#0047AB" stop-opacity="0.15"/>
</linearGradient>
<linearGradient id="paint1_linear_1_74" x1="379" y1="142" x2="379" y2="682" gradientUnits="userSpaceOnUse">
<stop stop-color="#0047AB" stop-opacity="0.15"/>
<stop offset="1" stop-color="#0047AB" stop-opacity="0.15"/>
</linearGradient>
</defs>
</svg>
